<svg version="1.1" xmlns="http://www.w3.org/2000/svg" xmlns:xlink="http://www.w3.org/1999/xlink" width="1907" height="3295"><defs/><g><g/><g/><g/><g/><g/><g/><g/><g/><g/><g/><g/><g/><g/><g/><g/><g/><g/><g/><g/><g/><g/><g/><g/><g/><g/><g/><g/><g/><g/><g/><g/><g/><g/><g/><g/><g/><g/><g/><g/><g/><g><rect fill="white" stroke="none" x="0" y="0" width="1907" height="3295"/></g><g><text fill="black" stroke="none" font-family="sans-serif" font-size="16.5pt" font-style="normal" font-weight="normal" text-decoration="normal" x="869.9082184118693" y="39.58145414999999" text-anchor="start" dominant-baseline="alphabetic" xml:space="preserve">UI Authentication</text></g><g/><g><path fill="none" stroke="black" paint-order="fill stroke markers" d=" M 32.192916042 208.0665106485 L 32.192916042 3295.4199343485016" stroke-miterlimit="10" stroke-width="2.1989696750000003" stroke-dasharray="20.298181615384618,8.795878700000001"/><path fill="none" stroke="black" paint-order="fill stroke markers" d=" M 135.0070384469805 208.0665106485 L 135.0070384469805 3295.4199343485016" stroke-miterlimit="10" stroke-width="2.1989696750000003" stroke-dasharray="20.298181615384618,8.795878700000001"/><path fill="none" stroke="black" paint-order="fill stroke markers" d=" M 307.2318597003008 208.0665106485 L 307.2318597003008 3295.4199343485016" stroke-miterlimit="10" stroke-width="2.1989696750000003" stroke-dasharray="20.298181615384618,8.795878700000001"/><path fill="none" stroke="black" paint-order="fill stroke markers" d=" M 795.1602924901446 208.0665106485 L 795.1602924901446 3295.4199343485016" stroke-miterlimit="10" stroke-width="2.1989696750000003" stroke-dasharray="20.298181615384618,8.795878700000001"/><path fill="none" stroke="black" paint-order="fill stroke markers" d=" M 1134.6265509067462 208.0665106485 L 1134.6265509067462 3295.4199343485016" stroke-miterlimit="10" stroke-width="2.1989696750000003" stroke-dasharray="20.298181615384618,8.795878700000001"/><path fill="none" stroke="black" paint-order="fill stroke markers" d=" M 1334.8242868981524 208.0665106485 L 1334.8242868981524 3295.4199343485016" stroke-miterlimit="10" stroke-width="2.1989696750000003" stroke-dasharray="20.298181615384618,8.795878700000001"/><path fill="none" stroke="black" paint-order="fill stroke markers" d=" M 1743.308626068465 208.0665106485 L 1743.308626068465 3295.4199343485016" stroke-miterlimit="10" stroke-width="2.1989696750000003" stroke-dasharray="20.298181615384618,8.795878700000001"/></g><g><g><path fill="white" stroke="black" paint-order="fill stroke markers" d=" M 47.233868619 96.44680994550002 A 15.040952577 15.040952577 0 1 1 47.23386109852434 96.43176899542983 M 32.192916042 111.48776252250002 L 32.192916042 143.68067856450003 M 13.19381805 123.09832240650002 L 51.192014033999996 123.09832240650002 M 32.192916042 143.68067856450003 L 13.19381805 173.76258371850003 M 32.192916042 143.68067856450003 L 51.192014033999996 173.76258371850003" stroke-miterlimit="10" stroke-width="4.485898137" stroke-dasharray=""/></g><g><g/><text fill="black" stroke="none" font-family="sans-serif" font-size="11pt" font-style="normal" font-weight="normal" text-decoration="normal" x="16.71690285840625" y="200.1502198185" text-anchor="start" dominant-baseline="alphabetic" xml:space="preserve">User</text></g><g><path fill="white" stroke="black" paint-order="fill stroke markers" d=" M 150.0479910239805 96.44680994550002 A 15.040952577 15.040952577 0 1 1 150.04798350350484 96.43176899542983 M 135.0070384469805 111.48776252250002 L 135.0070384469805 143.68067856450003 M 116.00794045498048 123.09832240650002 L 154.0061364389805 123.09832240650002 M 135.0070384469805 143.68067856450003 L 116.00794045498048 173.76258371850003 M 135.0070384469805 143.68067856450003 L 154.0061364389805 173.76258371850003" stroke-miterlimit="10" stroke-width="4.485898137" stroke-dasharray=""/></g><g><g/><text fill="black" stroke="none" font-family="sans-serif" font-size="11pt" font-style="normal" font-weight="normal" text-decoration="normal" x="96.71786150606252" y="200.1502198185" text-anchor="start" dominant-baseline="alphabetic" xml:space="preserve">Admin User</text></g><path fill="none" stroke="none"/><g><path fill="white" stroke="black" paint-order="fill stroke markers" d=" M 251.7186832842422 136.8198931785 L 362.7450361163594 136.8198931785 L 362.7450361163594 208.0665106485 L 251.7186832842422 208.0665106485 L 251.7186832842422 136.8198931785 Z" stroke-miterlimit="10" stroke-width="4.222021776" stroke-dasharray=""/></g><g><g/><text fill="black" stroke="none" font-family="sans-serif" font-size="11pt" font-style="normal" font-weight="normal" text-decoration="normal" x="280.3492684527422" y="181.6788745485" text-anchor="start" dominant-baseline="alphabetic" xml:space="preserve">Browser</text></g><path fill="none" stroke="none"/><g><path fill="white" stroke="black" paint-order="fill stroke markers" d=" M 728.6378082127578 136.8198931785 L 861.6827767675313 136.8198931785 L 861.6827767675313 208.0665106485 L 728.6378082127578 208.0665106485 L 728.6378082127578 136.8198931785 Z" stroke-miterlimit="10" stroke-width="4.222021776" stroke-dasharray=""/></g><g><g/><text fill="black" stroke="none" font-family="sans-serif" font-size="11pt" font-style="normal" font-weight="normal" text-decoration="normal" x="757.2683933812579" y="181.6788745485" text-anchor="start" dominant-baseline="alphabetic" xml:space="preserve">UI Backend</text></g><path fill="none" stroke="none"/><g><path fill="white" stroke="black" paint-order="fill stroke markers" d=" M 1095.4054124545548 136.8198931785 L 1173.8476893589377 136.8198931785 L 1173.8476893589377 208.0665106485 L 1095.4054124545548 208.0665106485 L 1095.4054124545548 136.8198931785 Z" stroke-miterlimit="10" stroke-width="4.222021776" stroke-dasharray=""/></g><g><g/><text fill="black" stroke="none" font-family="sans-serif" font-size="11pt" font-style="normal" font-weight="normal" text-decoration="normal" x="1124.0359976230548" y="181.6788745485" text-anchor="start" dominant-baseline="alphabetic" xml:space="preserve">OP</text></g><path fill="none" stroke="none"/><g><path fill="white" stroke="black" paint-order="fill stroke markers" d=" M 1271.5659398888322 136.8198931785 L 1398.0826339074729 136.8198931785 L 1398.0826339074729 208.0665106485 L 1271.5659398888322 208.0665106485 L 1271.5659398888322 136.8198931785 Z" stroke-miterlimit="10" stroke-width="4.222021776" stroke-dasharray=""/></g><g><g/><text fill="black" stroke="none" font-family="sans-serif" font-size="11pt" font-style="normal" font-weight="normal" text-decoration="normal" x="1300.196525057332" y="181.6788745485" text-anchor="start" dominant-baseline="alphabetic" xml:space="preserve">Admin API</text></g><path fill="none" stroke="none"/><g><path fill="white" stroke="black" paint-order="fill stroke markers" d=" M 1695.9343122622697 136.8198931785 L 1790.6829398746604 136.8198931785 L 1790.6829398746604 208.0665106485 L 1695.9343122622697 208.0665106485 L 1695.9343122622697 136.8198931785 Z" stroke-miterlimit="10" stroke-width="4.222021776" stroke-dasharray=""/></g><g><g/><text fill="black" stroke="none" font-family="sans-serif" font-size="11pt" font-style="normal" font-weight="normal" text-decoration="normal" x="1724.5648974307696" y="181.6788745485" text-anchor="start" dominant-baseline="alphabetic" xml:space="preserve">Kafka</text></g></g><g><path fill="white" stroke="black" paint-order="fill stroke markers" d=" M 294.0380416503008 970.6691939385 L 320.4256777503008 970.6691939385 L 320.4256777503008 2121.170127898501 L 294.0380416503008 2121.170127898501 L 294.0380416503008 970.6691939385" stroke-miterlimit="10" stroke-width="2.1989696750000003" stroke-dasharray=""/><path fill="white" stroke="black" paint-order="fill stroke markers" d=" M 294.0380416503008 2295.328526158501 L 320.4256777503008 2295.328526158501 L 320.4256777503008 3203.0632079985016 L 294.0380416503008 3203.0632079985016 L 294.0380416503008 2295.328526158501" stroke-miterlimit="10" stroke-width="2.1989696750000003" stroke-dasharray=""/><path fill="white" stroke="black" paint-order="fill stroke markers" d=" M 781.9664744401446 2369.213907238501 L 808.3541105401446 2369.213907238501 L 808.3541105401446 3094.8738999885018 L 781.9664744401446 3094.8738999885018 L 781.9664744401446 2369.213907238501" stroke-miterlimit="10" stroke-width="2.1989696750000003" stroke-dasharray=""/><path fill="white" stroke="black" paint-order="fill stroke markers" d=" M 8.444043551999997 260.84178284850003 L 1743.3086260684652 260.84178284850003 L 1767.057498558465 284.5906553385 L 1767.057498558465 321.53334587850003 L 8.444043551999997 321.53334587850003 L 8.444043551999997 260.84178284850003 M 1743.3086260684652 260.84178284850003 L 1743.3086260684652 284.5906553385 L 1767.057498558465 284.5906553385" stroke-miterlimit="10" stroke-width="2.1989696750000003" stroke-dasharray=""/><g><text fill="black" stroke="none" font-family="sans-serif" font-size="11pt" font-style="normal" font-weight="normal" text-decoration="normal" x="844.973419675838" y="297.78447338850003" text-anchor="start" dominant-baseline="alphabetic" xml:space="preserve">Prerequisites</text></g><g><g><rect fill="white" stroke="none" x="494.37694454994926" y="361.1148000285" width="214.85966546378907" height="34.30392693"/></g><g><rect fill="white" stroke="none" x="494.37694454994926" y="387.5024361285" width="253.80021722160157" height="34.30392693"/></g><g><rect fill="white" stroke="none" x="494.37694454994926" y="413.8900722285" width="280.8797002538281" height="34.30392693"/></g><text fill="black" stroke="none" font-family="sans-serif" font-size="11pt" font-style="normal" font-weight="normal" text-decoration="normal" x="498.33508996494925" y="384.8636725185" text-anchor="start" dominant-baseline="alphabetic" xml:space="preserve">Register OAuth 2 clients - for UI</text><text fill="black" stroke="none" font-family="sans-serif" font-size="11pt" font-style="normal" font-weight="normal" text-decoration="normal" x="498.33508996494925" y="411.2513086185" text-anchor="start" dominant-baseline="alphabetic" xml:space="preserve">this includes "redirect URIs" to ensure</text><text fill="black" stroke="none" font-family="sans-serif" font-size="11pt" font-style="normal" font-weight="normal" text-decoration="normal" x="498.33508996494925" y="437.6389447185" text-anchor="start" dominant-baseline="alphabetic" xml:space="preserve">MITM attacks cannot redirect to own page</text></g><g><path fill="none" stroke="black" paint-order="fill stroke markers" d=" M 135.0070384469805 448.1939991585 L 1130.2286115567463 448.1939991585" stroke-miterlimit="10" stroke-width="2.1989696750000003" stroke-dasharray=""/><g transform="translate(1134.6265509067462,448.1939991585) translate(-1134.6265509067462,-448.1939991585)"><path fill="black" stroke="none" paint-order="stroke fill markers" d=" M 1112.6368541567463 437.1991507835 L 1134.6265509067462 448.1939991585 L 1112.6368541567463 459.1888475335 Z"/></g></g><g><g><rect fill="white" stroke="none" x="579.53082180825" y="487.7754533085" width="110.57194573722656" height="34.30392693"/></g><text fill="black" stroke="none" font-family="sans-serif" font-size="11pt" font-style="normal" font-weight="normal" text-decoration="normal" x="583.48896722325" y="511.5243257985" text-anchor="start" dominant-baseline="alphabetic" xml:space="preserve">Client ID/Secret</text></g><g><path fill="none" stroke="black" paint-order="fill stroke markers" d=" M 1134.6265509067462 522.0793802385 L 139.4049777969805 522.0793802385" stroke-miterlimit="10" stroke-width="2.1989696750000003" stroke-dasharray="10.555054440000001"/><g transform="translate(135.0070384469805,522.0793802385) translate(-135.0070384469805,-522.0793802385)"><path fill="black" stroke="none" paint-order="stroke fill markers" d=" M 156.9967351969805 511.0845318635 L 135.0070384469805 522.0793802385 L 156.9967351969805 533.0742286134999 Z"/></g></g><g><g><rect fill="white" stroke="none" x="337.27803165024227" y="561.6608343885" width="255.61126763664063" height="34.30392693"/></g><g><rect fill="white" stroke="none" x="337.27803165024227" y="588.0484704885" width="127.68718011222656" height="34.30392693"/></g><text fill="black" stroke="none" font-family="sans-serif" font-size="11pt" font-style="normal" font-weight="normal" text-decoration="normal" x="341.23617706524226" y="585.4097068785001" text-anchor="start" dominant-baseline="alphabetic" xml:space="preserve">Configure OIDC client with credentials</text><text fill="black" stroke="none" font-family="sans-serif" font-size="11pt" font-style="normal" font-weight="normal" text-decoration="normal" x="341.23617706524226" y="611.7973429785001" text-anchor="start" dominant-baseline="alphabetic" xml:space="preserve">and discovery URI</text></g><g><path fill="none" stroke="black" paint-order="fill stroke markers" d=" M 135.0070384469805 622.3523974185 L 790.7623531401446 622.3523974185" stroke-miterlimit="10" stroke-width="2.1989696750000003" stroke-dasharray=""/><g transform="translate(795.1602924901446,622.3523974185) translate(-795.1602924901446,-622.3523974185)"><path fill="black" stroke="none" paint-order="stroke fill markers" d=" M 773.1705957401446 611.3575490435001 L 795.1602924901446 622.3523974185 L 773.1705957401446 633.3472457935 Z"/></g></g><g><g><rect fill="white" stroke="none" x="777.1216991718243" y="661.9338515685" width="324.07226617179685" height="34.30392693"/></g><g><rect fill="white" stroke="none" x="777.1216991718243" y="688.3214876685" width="203.45666558585938" height="34.30392693"/></g><text fill="black" stroke="none" font-family="sans-serif" font-size="11pt" font-style="normal" font-weight="normal" text-decoration="normal" x="781.0798445868243" y="685.6827240585001" text-anchor="start" dominant-baseline="alphabetic" xml:space="preserve">Configure Kafka OAUTHBEARER authentication</text><text fill="black" stroke="none" font-family="sans-serif" font-size="11pt" font-style="normal" font-weight="normal" text-decoration="normal" x="781.0798445868243" y="712.0703601585001" text-anchor="start" dominant-baseline="alphabetic" xml:space="preserve"> with credentials and jwks URI</text></g><g><path fill="none" stroke="black" paint-order="fill stroke markers" d=" M 135.0070384469805 722.6254145985 L 1738.910686718465 722.6254145985" stroke-miterlimit="10" stroke-width="2.1989696750000003" stroke-dasharray=""/><g transform="translate(1743.308626068465,722.6254145985) translate(-1743.308626068465,-722.6254145985)"><path fill="black" stroke="none" paint-order="stroke fill markers" d=" M 1721.318929318465 711.6305662235001 L 1743.308626068465 722.6254145985 L 1721.318929318465 733.6202629735 Z"/></g></g><g><g><rect fill="white" stroke="none" x="588.8973226627422" y="762.2068687485" width="91.83894402824218" height="34.30392693"/></g><text fill="black" stroke="none" font-family="sans-serif" font-size="11pt" font-style="normal" font-weight="normal" text-decoration="normal" x="592.8554680777422" y="785.9557412385001" text-anchor="start" dominant-baseline="alphabetic" xml:space="preserve">Create users</text></g><g><path fill="none" stroke="black" paint-order="fill stroke markers" d=" M 135.0070384469805 796.5107956785 L 1130.2286115567463 796.5107956785" stroke-miterlimit="10" stroke-width="2.1989696750000003" stroke-dasharray=""/><g transform="translate(1134.6265509067462,796.5107956785) translate(-1134.6265509067462,-796.5107956785)"><path fill="black" stroke="none" paint-order="stroke fill markers" d=" M 1112.6368541567463 785.5159473035001 L 1134.6265509067462 796.5107956785 L 1112.6368541567463 807.5056440535 Z"/></g></g><path fill="white" stroke="black" paint-order="fill stroke markers" d=" M 8.444043551999997 836.0922498285 L 1743.3086260684652 836.0922498285 L 1767.057498558465 859.8411223185001 L 1767.057498558465 896.7838128585 L 8.444043551999997 896.7838128585 L 8.444043551999997 836.0922498285 M 1743.3086260684652 836.0922498285 L 1743.3086260684652 859.8411223185001 L 1767.057498558465 859.8411223185001" stroke-miterlimit="10" stroke-width="2.1989696750000003" stroke-dasharray=""/><g><text fill="black" stroke="none" font-family="sans-serif" font-size="11pt" font-style="normal" font-weight="normal" text-decoration="normal" x="826.2225194072834" y="873.0349403685001" text-anchor="start" dominant-baseline="alphabetic" xml:space="preserve">Authentication flow</text></g><g><g><rect fill="white" stroke="none" x="136.07216649999808" y="936.3652670085" width="54.08662469230469" height="34.30392693"/></g><text fill="black" stroke="none" font-family="sans-serif" font-size="11pt" font-style="normal" font-weight="normal" text-decoration="normal" x="140.03031191499807" y="960.1141394985001" text-anchor="start" dominant-baseline="alphabetic" xml:space="preserve">Visit UI</text></g><g><path fill="none" stroke="black" paint-order="fill stroke markers" d=" M 32.192916042 970.6691939385 L 289.6401023003008 970.6691939385" stroke-miterlimit="10" stroke-width="2.1989696750000003" stroke-dasharray=""/><g transform="translate(294.0380416503008,970.6691939385) translate(-294.0380416503008,-970.6691939385)"><path fill="black" stroke="none" paint-order="stroke fill markers" d=" M 272.0483449003008 959.6743455635001 L 294.0380416503008 970.6691939385 L 272.0483449003008 981.6640423135 Z"/></g></g><g><g><rect fill="white" stroke="none" x="519.6616295611798" y="1010.2506480885002" width="76.26271111808593" height="34.30392693"/></g><text fill="black" stroke="none" font-family="sans-serif" font-size="11pt" font-style="normal" font-weight="normal" text-decoration="normal" x="523.6197749761798" y="1033.9995205785" text-anchor="start" dominant-baseline="alphabetic" xml:space="preserve">Request '/'</text></g><g><path fill="none" stroke="black" paint-order="fill stroke markers" d=" M 320.4256777503008 1044.5545750185001 L 790.7623531401446 1044.5545750185001" stroke-miterlimit="10" stroke-width="2.1989696750000003" stroke-dasharray=""/><g transform="translate(795.1602924901446,1044.5545750185001) translate(-795.1602924901446,-1044.5545750185001)"><path fill="black" stroke="none" paint-order="stroke fill markers" d=" M 773.1705957401446 1033.5597266435002 L 795.1602924901446 1044.5545750185001 L 773.1705957401446 1055.5494233935 Z"/></g></g><g><g><rect fill="white" stroke="none" x="826.3856618751446" y="1084.1360291685003" width="178.22401482902345" height="34.30392693"/></g><text fill="black" stroke="none" font-family="sans-serif" font-size="11pt" font-style="normal" font-weight="normal" text-decoration="normal" x="830.3438072901446" y="1107.8849016585002" text-anchor="start" dominant-baseline="alphabetic" xml:space="preserve">No session/cannot refresh</text></g><g><path fill="none" stroke="black" paint-order="fill stroke markers" d=" M 795.1602924901446 1118.4399560985003 L 900.7108368901446 1118.4399560985003 L 900.7108368901446 1152.7438830285002 L 799.5582318401446 1152.7438830285002" stroke-miterlimit="10" stroke-width="2.1989696750000003" stroke-dasharray=""/><g transform="translate(795.1602924901446,1152.7438830285002) translate(-795.1602924901446,-1152.7438830285002)"><path fill="black" stroke="none" paint-order="stroke fill markers" d=" M 817.1499892401446 1141.7490346535003 L 795.1602924901446 1152.7438830285002 L 817.1499892401446 1163.7387314035002 Z"/></g></g><g><g><rect fill="white" stroke="none" x="358.2479561603009" y="1192.3253371785004" width="399.09005791984373" height="34.30392693"/></g><g><rect fill="white" stroke="none" x="358.2479561603009" y="1218.7129732785004" width="124.33712823234374" height="34.30392693"/></g><text fill="black" stroke="none" font-family="sans-serif" font-size="11pt" font-style="normal" font-weight="normal" text-decoration="normal" x="362.20610157530086" y="1216.0742096685003" text-anchor="start" dominant-baseline="alphabetic" xml:space="preserve">Redirect to OP authorize endpoint (authentication_code flow</text><text fill="black" stroke="none" font-family="sans-serif" font-size="11pt" font-style="normal" font-weight="normal" text-decoration="normal" x="362.20610157530086" y="1242.4618457685003" text-anchor="start" dominant-baseline="alphabetic" xml:space="preserve">with 'state' nonce)</text></g><g><path fill="none" stroke="black" paint-order="fill stroke markers" d=" M 795.1602924901446 1253.0169002085004 L 324.8236171003008 1253.0169002085004" stroke-miterlimit="10" stroke-width="2.1989696750000003" stroke-dasharray="10.555054440000001"/><g transform="translate(320.4256777503008,1253.0169002085004) translate(-320.4256777503008,-1253.0169002085004)"><path fill="black" stroke="none" paint-order="stroke fill markers" d=" M 342.4153745003008 1242.0220518335004 L 320.4256777503008 1253.0169002085004 L 342.4153745003008 1264.0117485835003 Z"/></g></g><g><g><rect fill="white" stroke="none" x="91.52672582616994" y="1292.5983543585005" width="143.17750603996095" height="34.30392693"/></g><text fill="black" stroke="none" font-family="sans-serif" font-size="11pt" font-style="normal" font-weight="normal" text-decoration="normal" x="95.48487124116994" y="1316.3472268485004" text-anchor="start" dominant-baseline="alphabetic" xml:space="preserve">Enter OP credentials</text></g><g><path fill="none" stroke="black" paint-order="fill stroke markers" d=" M 32.192916042 1326.9022812885005 L 289.6401023003008 1326.9022812885005" stroke-miterlimit="10" stroke-width="2.1989696750000003" stroke-dasharray=""/><g transform="translate(294.0380416503008,1326.9022812885005) translate(-294.0380416503008,-1326.9022812885005)"><path fill="black" stroke="none" paint-order="stroke fill markers" d=" M 272.0483449003008 1315.9074329135005 L 294.0380416503008 1326.9022812885005 L 272.0483449003008 1337.8971296635004 Z"/></g></g><g><g><rect fill="white" stroke="none" x="663.2709336962383" y="1366.4837354385006" width="128.51036126457032" height="34.30392693"/></g><text fill="black" stroke="none" font-family="sans-serif" font-size="11pt" font-style="normal" font-weight="normal" text-decoration="normal" x="667.2290791112383" y="1390.2326079285006" text-anchor="start" dominant-baseline="alphabetic" xml:space="preserve">Submit credentials</text></g><g><path fill="none" stroke="black" paint-order="fill stroke markers" d=" M 320.4256777503008 1400.7876623685006 L 1130.2286115567463 1400.7876623685006" stroke-miterlimit="10" stroke-width="2.1989696750000003" stroke-dasharray=""/><g transform="translate(1134.6265509067462,1400.7876623685006) translate(-1134.6265509067462,-1400.7876623685006)"><path fill="black" stroke="none" paint-order="stroke fill markers" d=" M 1112.6368541567463 1389.7928139935007 L 1134.6265509067462 1400.7876623685006 L 1112.6368541567463 1411.7825107435006 Z"/></g></g><g><g><rect fill="white" stroke="none" x="1165.851920291746" y="1440.3691165185007" width="122.0107274755078" height="34.30392693"/></g><text fill="black" stroke="none" font-family="sans-serif" font-size="11pt" font-style="normal" font-weight="normal" text-decoration="normal" x="1169.810065706746" y="1464.1179890085007" text-anchor="start" dominant-baseline="alphabetic" xml:space="preserve">Authenticate user</text></g><g><path fill="none" stroke="black" paint-order="fill stroke markers" d=" M 1134.6265509067462 1474.6730434485007 L 1240.1770953067462 1474.6730434485007 L 1240.1770953067462 1508.9769703785007 L 1139.024490256746 1508.9769703785007" stroke-miterlimit="10" stroke-width="2.1989696750000003" stroke-dasharray=""/><g transform="translate(1134.6265509067462,1508.9769703785007) translate(-1134.6265509067462,-1508.9769703785007)"><path fill="black" stroke="none" paint-order="stroke fill markers" d=" M 1156.616247656746 1497.9821220035008 L 1134.6265509067462 1508.9769703785007 L 1156.616247656746 1519.9718187535007 Z"/></g></g><g><g><rect fill="white" stroke="none" x="597.5157685961407" y="1548.5584245285008" width="204.18676812492188" height="34.30392693"/></g><g><rect fill="white" stroke="none" x="597.5157685961407" y="1574.9460606285008" width="260.0206914647656" height="34.30392693"/></g><text fill="black" stroke="none" font-family="sans-serif" font-size="11pt" font-style="normal" font-weight="normal" text-decoration="normal" x="601.4739140111407" y="1572.3072970185008" text-anchor="start" dominant-baseline="alphabetic" xml:space="preserve">Redirect to '&lt;ui&gt;/callback' with</text><text fill="black" stroke="none" font-family="sans-serif" font-size="11pt" font-style="normal" font-weight="normal" text-decoration="normal" x="601.4739140111407" y="1598.6949331185008" text-anchor="start" dominant-baseline="alphabetic" xml:space="preserve">same 'state' + auth code query parmas</text></g><g><path fill="none" stroke="black" paint-order="fill stroke markers" d=" M 1134.6265509067462 1609.2499875585008 L 324.8236171003008 1609.2499875585008" stroke-miterlimit="10" stroke-width="2.1989696750000003" stroke-dasharray="10.555054440000001"/><g transform="translate(320.4256777503008,1609.2499875585008) translate(-320.4256777503008,-1609.2499875585008)"><path fill="black" stroke="none" paint-order="stroke fill markers" d=" M 342.4153745003008 1598.255139183501 L 320.4256777503008 1609.2499875585008 L 342.4153745003008 1620.2448359335008 Z"/></g></g><g><g><rect fill="white" stroke="none" x="491.45478904604306" y="1648.831441708501" width="132.67639214835938" height="34.30392693"/></g><text fill="black" stroke="none" font-family="sans-serif" font-size="11pt" font-style="normal" font-weight="normal" text-decoration="normal" x="495.41293446104305" y="1672.580314198501" text-anchor="start" dominant-baseline="alphabetic" xml:space="preserve">Visit `&lt;ui&gt;/callback'</text></g><g><path fill="none" stroke="black" paint-order="fill stroke markers" d=" M 320.4256777503008 1683.135368638501 L 790.7623531401446 1683.135368638501" stroke-miterlimit="10" stroke-width="2.1989696750000003" stroke-dasharray=""/><g transform="translate(795.1602924901446,1683.135368638501) translate(-795.1602924901446,-1683.135368638501)"><path fill="black" stroke="none" paint-order="stroke fill markers" d=" M 773.1705957401446 1672.140520263501 L 795.1602924901446 1683.135368638501 L 773.1705957401446 1694.130217013501 Z"/></g></g><g><g><rect fill="white" stroke="none" x="826.3856618751446" y="1722.716822788501" width="245.75439507804688" height="34.30392693"/></g><text fill="black" stroke="none" font-family="sans-serif" font-size="11pt" font-style="normal" font-weight="normal" text-decoration="normal" x="830.3438072901446" y="1746.465695278501" text-anchor="start" dominant-baseline="alphabetic" xml:space="preserve">Check 'state' matches original nonce</text></g><g><path fill="none" stroke="black" paint-order="fill stroke markers" d=" M 795.1602924901446 1757.020749718501 L 900.7108368901446 1757.020749718501 L 900.7108368901446 1791.324676648501 L 799.5582318401446 1791.324676648501" stroke-miterlimit="10" stroke-width="2.1989696750000003" stroke-dasharray=""/><g transform="translate(795.1602924901446,1791.324676648501) translate(-795.1602924901446,-1791.324676648501)"><path fill="black" stroke="none" paint-order="stroke fill markers" d=" M 817.1499892401446 1780.329828273501 L 795.1602924901446 1791.324676648501 L 817.1499892401446 1802.319525023501 Z"/></g></g><g><g><rect fill="white" stroke="none" x="832.9825709001445" y="1830.906130798501" width="263.82170159660154" height="34.30392693"/></g><text fill="black" stroke="none" font-family="sans-serif" font-size="11pt" font-style="normal" font-weight="normal" text-decoration="normal" x="836.9407163151445" y="1854.655003288501" text-anchor="start" dominant-baseline="alphabetic" xml:space="preserve">Request access_token using auth code</text></g><g><path fill="none" stroke="black" paint-order="fill stroke markers" d=" M 795.1602924901446 1865.210057728501 L 1130.2286115567463 1865.210057728501" stroke-miterlimit="10" stroke-width="2.1989696750000003" stroke-dasharray=""/><g transform="translate(1134.6265509067462,1865.210057728501) translate(-1134.6265509067462,-1865.210057728501)"><path fill="black" stroke="none" paint-order="stroke fill markers" d=" M 1112.6368541567463 1854.215209353501 L 1134.6265509067462 1865.210057728501 L 1112.6368541567463 1876.204906103501 Z"/></g></g><g><g><rect fill="white" stroke="none" x="892.0770380632305" y="1904.791511878501" width="145.6327672704297" height="34.30392693"/></g><text fill="black" stroke="none" font-family="sans-serif" font-size="11pt" font-style="normal" font-weight="normal" text-decoration="normal" x="896.0351834782305" y="1928.540384368501" text-anchor="start" dominant-baseline="alphabetic" xml:space="preserve">Return access_token</text></g><g><path fill="none" stroke="black" paint-order="fill stroke markers" d=" M 1134.6265509067462 1939.095438808501 L 799.5582318401446 1939.095438808501" stroke-miterlimit="10" stroke-width="2.1989696750000003" stroke-dasharray="10.555054440000001"/><g transform="translate(795.1602924901446,1939.095438808501) translate(-795.1602924901446,-1939.095438808501)"><path fill="black" stroke="none" paint-order="stroke fill markers" d=" M 817.1499892401446 1928.100590433501 L 795.1602924901446 1939.095438808501 L 817.1499892401446 1950.090287183501 Z"/></g></g><g><g><rect fill="white" stroke="none" x="826.3856618751446" y="1978.6768929585012" width="152.15387017570313" height="34.30392693"/></g><text fill="black" stroke="none" font-family="sans-serif" font-size="11pt" font-style="normal" font-weight="normal" text-decoration="normal" x="830.3438072901446" y="2002.4257654485011" text-anchor="start" dominant-baseline="alphabetic" xml:space="preserve">Store token in session</text></g><g><path fill="none" stroke="black" paint-order="fill stroke markers" d=" M 795.1602924901446 2012.9808198885012 L 900.7108368901446 2012.9808198885012 L 900.7108368901446 2047.2847468185012 L 799.5582318401446 2047.2847468185012" stroke-miterlimit="10" stroke-width="2.1989696750000003" stroke-dasharray=""/><g transform="translate(795.1602924901446,2047.2847468185012) translate(-795.1602924901446,-2047.2847468185012)"><path fill="black" stroke="none" paint-order="stroke fill markers" d=" M 817.1499892401446 2036.2898984435012 L 795.1602924901446 2047.2847468185012 L 817.1499892401446 2058.2795951935013 Z"/></g></g><g><g><rect fill="white" stroke="none" x="491.55498588442197" y="2086.866200968501" width="132.47599847160157" height="34.30392693"/></g><text fill="black" stroke="none" font-family="sans-serif" font-size="11pt" font-style="normal" font-weight="normal" text-decoration="normal" x="495.51313129942196" y="2110.615073458501" text-anchor="start" dominant-baseline="alphabetic" xml:space="preserve">Return '/index.html'</text></g><g><path fill="none" stroke="black" paint-order="fill stroke markers" d=" M 795.1602924901446 2121.170127898501 L 324.8236171003008 2121.170127898501" stroke-miterlimit="10" stroke-width="2.1989696750000003" stroke-dasharray="10.555054440000001"/><g transform="translate(320.4256777503008,2121.170127898501) translate(-320.4256777503008,-2121.170127898501)"><path fill="black" stroke="none" paint-order="stroke fill markers" d=" M 342.4153745003008 2110.175279523501 L 320.4256777503008 2121.170127898501 L 342.4153745003008 2132.164976273501 Z"/></g></g><path fill="white" stroke="black" paint-order="fill stroke markers" d=" M 8.444043551999997 2160.751582048501 L 1743.3086260684652 2160.751582048501 L 1767.057498558465 2184.500454538501 L 1767.057498558465 2221.443145078501 L 8.444043551999997 2221.443145078501 L 8.444043551999997 2160.751582048501 M 1743.3086260684652 2160.751582048501 L 1743.3086260684652 2184.500454538501 L 1767.057498558465 2184.500454538501" stroke-miterlimit="10" stroke-width="2.1989696750000003" stroke-dasharray=""/><g><text fill="black" stroke="none" font-family="sans-serif" font-size="11pt" font-style="normal" font-weight="normal" text-decoration="normal" x="831.5267491436115" y="2197.694272588501" text-anchor="start" dominant-baseline="alphabetic" xml:space="preserve">Using credentials</text></g><g><g><rect fill="white" stroke="none" x="103.11228185644337" y="2261.024599228501" width="120.00639397941406" height="34.30392693"/></g><text fill="black" stroke="none" font-family="sans-serif" font-size="11pt" font-style="normal" font-weight="normal" text-decoration="normal" x="107.07042727144338" y="2284.773471718501" text-anchor="start" dominant-baseline="alphabetic" xml:space="preserve">Visit 'topics' page</text></g><g><path fill="none" stroke="black" paint-order="fill stroke markers" d=" M 32.192916042 2295.328526158501 L 289.6401023003008 2295.328526158501" stroke-miterlimit="10" stroke-width="2.1989696750000003" stroke-dasharray=""/><g transform="translate(294.0380416503008,2295.328526158501) translate(-294.0380416503008,-2295.328526158501)"><path fill="black" stroke="none" paint-order="stroke fill markers" d=" M 272.0483449003008 2284.333677783501 L 294.0380416503008 2295.328526158501 L 272.0483449003008 2306.323374533501 Z"/></g></g><g><g><rect fill="white" stroke="none" x="473.5013813027813" y="2334.909980308501" width="155.38938958488282" height="34.30392693"/></g><text fill="black" stroke="none" font-family="sans-serif" font-size="11pt" font-style="normal" font-weight="normal" text-decoration="normal" x="477.4595267177813" y="2358.658852798501" text-anchor="start" dominant-baseline="alphabetic" xml:space="preserve">XHR request for topics</text></g><g><path fill="none" stroke="black" paint-order="fill stroke markers" d=" M 320.4256777503008 2369.213907238501 L 777.5685350901446 2369.213907238501" stroke-miterlimit="10" stroke-width="2.1989696750000003" stroke-dasharray=""/><g transform="translate(781.9664744401446,2369.213907238501) translate(-781.9664744401446,-2369.213907238501)"><path fill="black" stroke="none" paint-order="stroke fill markers" d=" M 759.9767776901446 2358.2190588635012 L 781.9664744401446 2369.213907238501 L 759.9767776901446 2380.208755613501 Z"/></g></g><g><g><rect fill="white" stroke="none" x="902.6168321127423" y="2408.795361388501" width="337.9447332128125" height="34.30392693"/></g><text fill="black" stroke="none" font-family="sans-serif" font-size="11pt" font-style="normal" font-weight="normal" text-decoration="normal" x="906.5749775277422" y="2432.544233878501" text-anchor="start" dominant-baseline="alphabetic" xml:space="preserve">Request topics (with access_token in Auth header)</text></g><g><path fill="none" stroke="black" paint-order="fill stroke markers" d=" M 808.3541105401446 2443.0992883185013 L 1330.4263475481525 2443.0992883185013" stroke-miterlimit="10" stroke-width="2.1989696750000003" stroke-dasharray=""/><g transform="translate(1334.8242868981524,2443.0992883185013) translate(-1334.8242868981524,-2443.0992883185013)"><path fill="black" stroke="none" paint-order="stroke fill markers" d=" M 1312.8345901481525 2432.1044399435013 L 1334.8242868981524 2443.0992883185013 L 1312.8345901481525 2454.0941366935012 Z"/></g></g><g><g><rect fill="white" stroke="none" x="1366.0496562831524" y="2482.680742468501" width="346.0336004003125" height="34.30392693"/></g><text fill="black" stroke="none" font-family="sans-serif" font-size="11pt" font-style="normal" font-weight="normal" text-decoration="normal" x="1370.0078016981524" y="2506.429614958501" text-anchor="start" dominant-baseline="alphabetic" xml:space="preserve">Request topics (SASL_OAUTHBEARER) admin call</text></g><g><path fill="none" stroke="black" paint-order="fill stroke markers" d=" M 1334.8242868981524 2516.9846693985014 L 1738.910686718465 2516.9846693985014" stroke-miterlimit="10" stroke-width="2.1989696750000003" stroke-dasharray=""/><g transform="translate(1743.308626068465,2516.9846693985014) translate(-1743.308626068465,-2516.9846693985014)"><path fill="black" stroke="none" paint-order="stroke fill markers" d=" M 1721.318929318465 2505.9898210235015 L 1743.308626068465 2516.9846693985014 L 1721.318929318465 2527.9795177735014 Z"/></g></g><g><g><rect fill="white" stroke="none" x="1774.5339954534647" y="2556.5661235485013" width="123.59266717277343" height="34.30392693"/></g><text fill="black" stroke="none" font-family="sans-serif" font-size="11pt" font-style="normal" font-weight="normal" text-decoration="normal" x="1778.4921408684647" y="2580.3149960385012" text-anchor="start" dominant-baseline="alphabetic" xml:space="preserve">Verify JWT locally</text></g><g><path fill="none" stroke="black" paint-order="fill stroke markers" d=" M 1743.308626068465 2590.870050478501 L 1848.859170468465 2590.870050478501 L 1848.859170468465 2625.1739774085013 L 1747.7065654184648 2625.1739774085013" stroke-miterlimit="10" stroke-width="2.1989696750000003" stroke-dasharray=""/><g transform="translate(1743.308626068465,2625.1739774085013) translate(-1743.308626068465,-2625.1739774085013)"><path fill="black" stroke="none" paint-order="stroke fill markers" d=" M 1765.2983228184648 2614.1791290335013 L 1743.308626068465 2625.1739774085013 L 1765.2983228184648 2636.1688257835012 Z"/></g></g><path fill="white" stroke="black" paint-order="fill stroke markers" d=" M 1695.3709404112774 2664.755431558501 L 1767.4974392356526 2664.755431558501 L 1791.2463117256525 2688.504304048501 L 1791.2463117256525 2725.446994588501 L 1695.3709404112774 2725.446994588501 L 1695.3709404112774 2664.755431558501 M 1767.4974392356526 2664.755431558501 L 1767.4974392356526 2688.504304048501 L 1791.2463117256525 2688.504304048501" stroke-miterlimit="10" stroke-width="2.1989696750000003" stroke-dasharray=""/><g><text fill="black" stroke="none" font-family="sans-serif" font-size="11pt" font-style="normal" font-weight="normal" text-decoration="normal" x="1732.3136309512774" y="2701.6981220985012" text-anchor="start" dominant-baseline="alphabetic" xml:space="preserve">OR</text></g><g><g><rect fill="white" stroke="none" x="1382.8548486512188" y="2765.028448738501" width="112.22547967277343" height="34.30392693"/></g><text fill="black" stroke="none" font-family="sans-serif" font-size="11pt" font-style="normal" font-weight="normal" text-decoration="normal" x="1386.8129940662188" y="2788.777321228501" text-anchor="start" dominant-baseline="alphabetic" xml:space="preserve">Introspect token</text></g><g><path fill="none" stroke="black" paint-order="fill stroke markers" d=" M 1743.308626068465 2799.3323756685013 L 1139.024490256746 2799.3323756685013" stroke-miterlimit="10" stroke-width="2.1989696750000003" stroke-dasharray=""/><g transform="translate(1134.6265509067462,2799.3323756685013) translate(-1134.6265509067462,-2799.3323756685013)"><path fill="black" stroke="none" paint-order="stroke fill markers" d=" M 1156.616247656746 2788.3375272935014 L 1134.6265509067462 2799.3323756685013 L 1156.616247656746 2810.3272240435012 Z"/></g></g><g><g><rect fill="white" stroke="none" x="1369.411763934422" y="2838.913829818501" width="139.1116491063672" height="34.30392693"/></g><text fill="black" stroke="none" font-family="sans-serif" font-size="11pt" font-style="normal" font-weight="normal" text-decoration="normal" x="1373.369909349422" y="2862.662702308501" text-anchor="start" dominant-baseline="alphabetic" xml:space="preserve">Return introspection</text></g><g><path fill="none" stroke="black" paint-order="fill stroke markers" d=" M 1134.6265509067462 2873.2177567485014 L 1738.910686718465 2873.2177567485014" stroke-miterlimit="10" stroke-width="2.1989696750000003" stroke-dasharray=""/><g transform="translate(1743.308626068465,2873.2177567485014) translate(-1743.308626068465,-2873.2177567485014)"><path fill="black" stroke="none" paint-order="stroke fill markers" d=" M 1721.318929318465 2862.2229083735015 L 1743.308626068465 2873.2177567485014 L 1721.318929318465 2884.2126051235014 Z"/></g></g><g><g><rect fill="white" stroke="none" x="1491.9229320399884" y="2912.7992108985013" width="94.28704888664062" height="34.30392693"/></g><text fill="black" stroke="none" font-family="sans-serif" font-size="11pt" font-style="normal" font-weight="normal" text-decoration="normal" x="1495.8810774549884" y="2936.5480833885013" text-anchor="start" dominant-baseline="alphabetic" xml:space="preserve">Return topics</text></g><g><path fill="none" stroke="black" paint-order="fill stroke markers" d=" M 1743.308626068465 2947.1031378285015 L 1339.2222262481523 2947.1031378285015" stroke-miterlimit="10" stroke-width="2.1989696750000003" stroke-dasharray="10.555054440000001"/><g transform="translate(1334.8242868981524,2947.1031378285015) translate(-1334.8242868981524,-2947.1031378285015)"><path fill="black" stroke="none" paint-order="stroke fill markers" d=" M 1356.8139836481523 2936.1082894535016 L 1334.8242868981524 2947.1031378285015 L 1356.8139836481523 2958.0979862035015 Z"/></g></g><g><g><rect fill="white" stroke="none" x="1024.4456742758282" y="2986.6845919785014" width="94.28704888664062" height="34.30392693"/></g><text fill="black" stroke="none" font-family="sans-serif" font-size="11pt" font-style="normal" font-weight="normal" text-decoration="normal" x="1028.4038196908282" y="3010.4334644685014" text-anchor="start" dominant-baseline="alphabetic" xml:space="preserve">Return topics</text></g><g><path fill="none" stroke="black" paint-order="fill stroke markers" d=" M 1334.8242868981524 3020.9885189085016 L 812.7520498901446 3020.9885189085016" stroke-miterlimit="10" stroke-width="2.1989696750000003" stroke-dasharray="10.555054440000001"/><g transform="translate(808.3541105401446,3020.9885189085016) translate(-808.3541105401446,-3020.9885189085016)"><path fill="black" stroke="none" paint-order="stroke fill markers" d=" M 830.3438072901446 3009.9936705335017 L 808.3541105401446 3020.9885189085016 L 830.3438072901446 3031.9833672835016 Z"/></g></g><g><g><rect fill="white" stroke="none" x="504.0525516519024" y="3060.5699730585015" width="94.28704888664062" height="34.30392693"/></g><text fill="black" stroke="none" font-family="sans-serif" font-size="11pt" font-style="normal" font-weight="normal" text-decoration="normal" x="508.01069706690237" y="3084.3188455485015" text-anchor="start" dominant-baseline="alphabetic" xml:space="preserve">Return topics</text></g><g><path fill="none" stroke="black" paint-order="fill stroke markers" d=" M 781.9664744401446 3094.8738999885018 L 324.8236171003008 3094.8738999885018" stroke-miterlimit="10" stroke-width="2.1989696750000003" stroke-dasharray="10.555054440000001"/><g transform="translate(320.4256777503008,3094.8738999885018) translate(-320.4256777503008,-3094.8738999885018)"><path fill="black" stroke="none" paint-order="stroke fill markers" d=" M 342.4153745003008 3083.879051613502 L 320.4256777503008 3094.8738999885018 L 342.4153745003008 3105.8687483635017 Z"/></g></g><g><g><rect fill="white" stroke="none" x="351.6510471353008" y="3134.4553541385017" width="113.01286370597656" height="34.30392693"/></g><text fill="black" stroke="none" font-family="sans-serif" font-size="11pt" font-style="normal" font-weight="normal" text-decoration="normal" x="355.6091925503008" y="3158.2042266285016" text-anchor="start" dominant-baseline="alphabetic" xml:space="preserve">Display topic list</text></g><g><path fill="none" stroke="black" paint-order="fill stroke markers" d=" M 320.4256777503008 3168.7592810685014 L 425.9762221503008 3168.7592810685014 L 425.9762221503008 3203.0632079985016 L 324.8236171003008 3203.0632079985016" stroke-miterlimit="10" stroke-width="2.1989696750000003" stroke-dasharray=""/><g transform="translate(320.4256777503008,3203.0632079985016) translate(-320.4256777503008,-3203.0632079985016)"><path fill="black" stroke="none" paint-order="stroke fill markers" d=" M 342.4153745003008 3192.0683596235017 L 320.4256777503008 3203.0632079985016 L 342.4153745003008 3214.0580563735016 Z"/></g></g></g><g/><g/><g/><g/><g/><g/><g/></g></svg>