<svg xmlns="http://www.w3.org/2000/svg" xmlns:xlink="http://www.w3.org/1999/xlink" xmlns:lucid="lucid" width="801.08" height="1024.18"><g transform="translate(-64.13060561304498 -71.48936170212767)" lucid:page-tab-id="0_0"><path d="M0 0h932.28v1322.83H0z" fill="#fff"/><path d="M792.5 970.47l-.56 3.4-1.56 3.02-2.4 2.37-3 1.57-3.4.55h-79.6v-2h79.43l2.93-.5 2.47-1.26 1.94-1.95 1.28-2.47.47-2.92V363.93h2m0-21.34h-2V171.72h2M701 985.02l-14.28-4.63 14.27-4.65z" fill="#c92d39"/><path d="M702 986.4l-18.52-6 18.5-6.03m-12.02 6.02l10.03 3.24v-6.5M792.5 171.74h-2v-1.02h2" fill="#c92d39"/><path d="M128.28 93.58c-.75.08-1.35.23-1.95.53l-26.04 12.84c-1.44.67-2.4 1.88-2.7 3.45l-6.47 28.9c-.3 1.34-.07 2.7.68 3.9.08.14.16.2.3.36l18.02 23.12c.98 1.28 2.33 1.95 3.9 1.95H143c1.57 0 2.92-.67 3.9-1.95l18-23.12c1-1.27 1.36-2.77 1-4.35l-6.47-28.8c-.3-1.58-1.27-2.8-2.7-3.46L130.7 94.1c-.84-.37-1.6-.6-2.42-.52z" stroke="#000" stroke-opacity="0" stroke-width="3.83" fill="#326ce5"/><path d="M128.27 91.5c-.8.07-1.42.23-2.06.54L98.73 105.6c-1.5.7-2.53 1.97-2.85 3.64l-6.82 30.5c-.3 1.43-.07 2.85.72 4.12.08.16.16.24.3.4l19.03 24.4c1.03 1.35 2.46 2.06 4.12 2.06h30.58c1.67 0 3.1-.7 4.12-2.06l19.02-24.4c1.03-1.35 1.42-2.94 1.03-4.52l-6.82-30.5c-.3-1.67-1.34-2.93-2.85-3.65l-27.5-13.56c-.86-.4-1.66-.63-2.53-.55zm0 2.13c.87-.08 1.6.08 2.38.47l26.15 12.84c1.34.7 2.3 1.9 2.7 3.5l6.4 28.82c.32 1.6 0 3.02-.94 4.28l-18.07 23.14c-.96 1.27-2.3 1.98-3.9 1.98h-29c-1.57 0-2.92-.7-3.87-1.98l-18.06-23.14c-.08-.08-.16-.23-.24-.4-.8-1.18-1.03-2.45-.72-3.88l6.43-28.83c.4-1.6 1.27-2.78 2.7-3.5l26.14-12.83c.64-.3 1.2-.47 1.9-.55z" stroke="#000" stroke-opacity="0" stroke-width="3.83" fill="#fff"/><path d="M124.57 158.88c0 2.35-.8 3.53-2.4 3.53-1.02 0-1.7-.38-2.05-1.17h-.02c0 .04.02.4.02 1.07v2.63h-1.1v-8.02c0-.7 0-1.14-.03-1.37h1.04c0 .02.02.08.02.18l.03.5v.4h.03c.2-.4.45-.7.77-.9.32-.2.73-.3 1.26-.3.8 0 1.4.3 1.8.85.4.55.6 1.43.6 2.63zm-1.15.02c0-.93-.12-1.6-.37-2-.25-.42-.64-.62-1.17-.62-.44 0-.77.1-1.02.3-.24.17-.42.46-.55.86-.12.4-.18.92-.18 1.54 0 .9.14 1.55.4 1.97.28.4.73.62 1.35.62.54 0 .93-.2 1.17-.6.25-.4.38-1.1.38-2.07zM131.47 158.9c0 1.2-.26 2.07-.76 2.64-.5.58-1.23.87-2.2.87-.94 0-1.66-.3-2.16-.9-.48-.6-.73-1.46-.73-2.6 0-2.33 1-3.5 2.95-3.5 1 0 1.73.3 2.2.86.48.57.72 1.45.72 2.64zm-1.15 0c0-.93-.14-1.6-.4-2.03-.27-.42-.72-.63-1.35-.63-.64 0-1.1.2-1.4.65-.27.4-.42 1.1-.42 2 0 .9.14 1.56.43 2 .28.46.72.68 1.32.68.65 0 1.12-.2 1.4-.65.28-.43.42-1.1.42-2.03zM136.96 161.2c-.2.43-.47.74-.8.93-.34.2-.75.28-1.24.28-.83 0-1.44-.28-1.83-.85-.4-.58-.6-1.45-.6-2.6 0-2.37.8-3.54 2.42-3.54.5 0 .9.1 1.24.3.33.18.6.48.8.88v-3.55h1.1v7.86c0 .7 0 1.16.03 1.4h-1.06l-.04-.48-.02-.62zm-3.3-2.3c0 .95.12 1.62.36 2.03.24.4.63.62 1.18.62.62 0 1.06-.23 1.34-.67.28-.44.42-1.13.42-2.05 0-.9-.14-1.55-.42-1.97-.28-.4-.72-.62-1.33-.62-.54 0-.93.2-1.18.63-.24.42-.37 1.1-.37 2.03z" stroke="#000" stroke-opacity="0" fill="#fff"/><path d="M112.6 118.03l15.9-4.75 15.9 4.75-15.9 4.75zM112.6 119.85v17.43l14.82 8.47.08-21.34zM144.4 119.85v17.43l-14.8 8.47-.08-21.34z" stroke="#000" stroke-opacity="0" stroke-width="3.77" fill="#fff"/><use xlink:href="#a" transform="matrix(1,0,0,1,58.89603771181041,179.71856287425152) translate(34.907407407407405 17.77777777777778)"/><use xlink:href="#b" transform="matrix(1,0,0,1,58.89603771181041,179.71856287425152) translate(26.23456790123457 44.44444444444444)"/><path d="M188.1 132.1h-21.06v-2h21.05m63.15 2h-42.1v-2h42.1m63.16 2h-42.1v-2h42.1m63.16 2h-42.1v-2h42.1m54.8 2h-33.74v-2h33.75m134.67 2h-42.1v-2h42.1m63.16 2h-42.1v-2h42.1m63.15 2h-42.1v-2h42.1m42.1 2h-21.04v-2h21.06m-231.58 2h-16.25v-2h16.25" fill="#5e5e5e"/><path d="M167.06 132.1h-.8l-.45-2h1.26M750.73 131.1l-14.27 4.64v-9.27z" fill="#5e5e5e"/><path d="M753.96 131.1l-18.5 6.02V125.1m2 9.26l10.03-3.26-10.04-3.25" fill="#5e5e5e"/><use xlink:href="#c" transform="matrix(1,0,0,1,432.3703702843085,120.43729562152292) translate(0 14.222222222222223)"/><path d="M241.48 501.9c-.75.06-1.35.2-1.96.5l-26.04 12.85c-1.42.67-2.4 1.87-2.7 3.45l-6.46 28.9c-.3 1.35-.07 2.7.68 3.9.08.15.15.22.3.37l18 23.12c1 1.26 2.34 1.94 3.92 1.94h28.97c1.56 0 2.9-.68 3.9-1.95l18-23.13c.98-1.27 1.35-2.77.98-4.35l-6.46-28.82c-.3-1.58-1.27-2.78-2.7-3.45l-26.04-12.84c-.83-.36-1.58-.6-2.4-.5z" stroke="#000" stroke-opacity="0" stroke-width="3.83" fill="#326ce5"/><path d="M241.46 499.8c-.8.08-1.42.24-2.06.55l-27.5 13.55c-1.5.7-2.52 1.98-2.84 3.65l-6.8 30.5c-.33 1.42-.1 2.85.7 4.12.08.16.16.24.32.4l19 24.4c1.04 1.34 2.47 2.06 4.13 2.06H257c1.66 0 3.08-.72 4.1-2.06l19.03-24.4c1.03-1.35 1.42-2.94 1.03-4.52l-6.82-30.5c-.3-1.67-1.34-2.94-2.85-3.65L244 500.35c-.87-.4-1.66-.63-2.54-.55zm0 2.14c.88-.08 1.6.08 2.38.47L270 515.26c1.33.7 2.28 1.9 2.68 3.48l6.42 28.84c.32 1.6 0 3-.95 4.28L260.08 575c-.95 1.25-2.3 1.97-3.88 1.97h-29c-1.58 0-2.93-.72-3.88-1.98l-18.06-23.15c-.08-.08-.16-.24-.24-.4-.8-1.18-1.03-2.45-.7-3.88l6.4-28.84c.4-1.58 1.27-2.77 2.7-3.48l26.14-12.84c.64-.3 1.2-.46 1.9-.54z" stroke="#000" stroke-opacity="0" stroke-width="3.83" fill="#fff"/><path d="M243.1 530.48v3.6h16.92v-3.6zM234.43 520.9v3.58h25.6v-3.6zM223.4 520.9v3.58h6.4v-3.6zM243.73 540.05v3.6h16.3v-3.6zM234.43 549.64v3.6h25.6v-3.6zM223.4 549.64v3.6h6.4v-3.6z" stroke="#000" stroke-opacity="0" stroke-width="3.77" fill="#fff"/><path d="M244.22 544.16c0 1.4-1.1 2.5-2.44 2.5-1.35 0-2.44-1.1-2.44-2.5s1.1-2.5 2.44-2.5c1.34 0 2.44 1.1 2.44 2.5z" stroke="#000" stroke-opacity="0" stroke-width="3.77" fill="#326ce5"/><path d="M232.17 533.32l4.4.06c1.64-7 9.56-5.7 10.46.2l4.3-.26c-1.37-11.47-17.28-13.13-18.95-1.22z" stroke="#000" stroke-opacity="0" stroke-width="3.77" fill="#fff"/><path d="M241.68 523.5c-5.77 0-10.5 4.55-10.5 10.17 1.66-.02 5.23.1 5.8 0 0-2.27 2.06-4.18 4.7-4.18 2.65 0 4.7 1.9 4.7 4.17 1.02.05 5.24-.2 5.8 0 0-5.62-4.72-10.16-10.5-10.16zm0 1.2c4.94 0 8.72 3.77 9.1 8.38h-3.5c-.37-2.68-2.66-4.8-5.6-4.8-2.94 0-5.22 2.12-5.58 4.8h-3.5c.37-4.6 4.15-8.37 9.08-8.37z" stroke="#000" stroke-opacity="0" stroke-width="3.77" fill="#326ce5"/><path d="M229.08 533.78h24.95v16h-24.95v-16z" stroke="#000" stroke-opacity="0" stroke-width="3.77" fill="#fff"/><path d="M228.87 532.93v17.76h25.84v-17.77zm1.17 1.2h23.5v15.35h-23.5z" stroke="#000" stroke-opacity="0" stroke-width="3.77" fill="#326ce5"/><path d="M230.35 568.18c0 .63-.23 1.12-.7 1.47-.47.34-1.12.52-1.96.52-.82 0-1.45-.14-1.9-.42-.43-.27-.72-.7-.86-1.3l.97-.2c.1.37.3.64.58.8.3.18.7.26 1.2.26.57 0 .97-.08 1.22-.25.26-.17.4-.44.4-.8 0-.25-.1-.47-.28-.64-.17-.15-.46-.3-.85-.4l-.8-.2c-.6-.18-1.06-.34-1.32-.5-.27-.16-.47-.35-.62-.58-.15-.23-.23-.5-.23-.84 0-.62.2-1.08.64-1.4.43-.33 1.05-.5 1.87-.5.72 0 1.3.14 1.72.4.43.26.7.68.82 1.26l-1 .13c-.05-.3-.2-.53-.47-.7-.27-.16-.62-.23-1.06-.23-.5 0-.85.07-1.1.23-.22.15-.34.38-.34.7 0 .18.05.34.15.47.1.12.25.23.44.3.2.1.58.22 1.2.38.57.14 1 .28 1.24.42.26.12.46.26.6.42.15.15.27.32.35.53.08.2.12.42.12.68zM232.47 566.9c0 .78.15 1.38.46 1.8.3.42.76.63 1.36.63.46 0 .84-.1 1.13-.3.28-.2.47-.44.57-.74l.96.27c-.4 1.07-1.28 1.6-2.67 1.6-.98 0-1.72-.3-2.22-.9-.5-.6-.76-1.48-.76-2.64 0-1.12.25-1.98.76-2.57.5-.6 1.23-.9 2.17-.9 1.93 0 2.9 1.2 2.9 3.6v.15zm3.54-.86c-.05-.7-.22-1.23-.5-1.55-.3-.34-.72-.5-1.26-.5-.53 0-.96.18-1.27.55-.3.36-.47.86-.5 1.5zM239.36 566.64c0 .9.14 1.56.4 2 .28.43.7.64 1.25.64.4 0 .72-.1.98-.32s.43-.55.5-1l1.1.07c-.1.65-.37 1.17-.82 1.56-.45.37-1.02.57-1.72.57-.9 0-1.62-.3-2.1-.9-.48-.6-.72-1.46-.72-2.6 0-1.14.24-2 .73-2.6.48-.6 1.18-.9 2.08-.9.67 0 1.23.18 1.67.54.44.36.72.85.83 1.48l-1.12.1c-.05-.38-.2-.68-.42-.9-.23-.22-.56-.33-.98-.33-.58 0-1 .2-1.25.6-.26.4-.4 1.05-.4 2zM244.75 570.04v-5.18c0-.47 0-1-.03-1.57h1.03l.05 1.37h.02c.17-.58.37-.97.6-1.2.22-.2.54-.3.95-.3.15 0 .3.02.45.06v1.03c-.15-.04-.34-.06-.58-.06-.46 0-.8.2-1.04.6-.24.4-.36.97-.36 1.72v3.52zM249.7 566.9c0 .78.16 1.38.47 1.8.3.42.76.63 1.36.63.47 0 .85-.1 1.14-.3.28-.2.47-.44.57-.74l.96.27c-.4 1.07-1.28 1.6-2.67 1.6-.97 0-1.7-.3-2.2-.9-.52-.6-.77-1.48-.77-2.64 0-1.12.25-1.98.76-2.57.5-.6 1.23-.9 2.17-.9 1.92 0 2.87 1.2 2.87 3.6v.15zm3.55-.86c-.06-.7-.24-1.23-.53-1.55-.3-.34-.7-.5-1.25-.5-.53 0-.95.18-1.26.55-.3.36-.46.86-.48 1.5zM258.28 570c-.35.1-.72.14-1.1.14-.87 0-1.3-.5-1.3-1.53v-4.5h-.76v-.8h.8l.32-1.52h.72v1.52h1.22v.8h-1.22v4.27c0 .33.06.55.16.68.1.14.28.2.53.2.15 0 .36-.03.63-.1z" stroke="#000" stroke-opacity="0" fill="#fff"/><path d="M244.23 541.8c0 1.4-1.1 2.52-2.44 2.52-1.36 0-2.45-1.12-2.45-2.5 0-1.4 1.1-2.53 2.44-2.53 1.33 0 2.43 1.12 2.43 2.5z" stroke="#000" stroke-opacity="0" stroke-width="3.77" fill="#326ce5"/><use xlink:href="#d" transform="matrix(1,0,0,1,172.08752707351255,588.0269461077846) translate(37.9320987654321 17.77777777777778)"/><use xlink:href="#e" transform="matrix(1,0,0,1,172.08752707351255,588.0269461077846) translate(72.43827160493828 17.77777777777778)"/><use xlink:href="#f" transform="matrix(1,0,0,1,172.08752707351255,588.0269461077846) translate(22.56172839506172 44.44444444444444)"/><path d="M645.73 942.86c-.75.08-1.35.23-1.95.53l-26.04 12.82c-1.43.68-2.4 1.88-2.7 3.45l-6.46 28.9c-.3 1.35-.08 2.7.68 3.9.07.15.15.23.3.38l18 23.1c.98 1.3 2.34 1.96 3.9 1.96h28.98c1.58 0 2.93-.66 3.9-1.94l18.02-23.1c.97-1.3 1.35-2.8.97-4.37l-6.45-28.83c-.3-1.57-1.28-2.77-2.7-3.45l-26.05-12.83c-.82-.4-1.57-.6-2.4-.54z" stroke="#000" stroke-opacity="0" stroke-width="3.83" fill="#326ce5"/><path d="M645.72 940.77c-.8.08-1.43.24-2.06.56l-27.5 13.54c-1.5.72-2.53 1.98-2.84 3.65l-6.82 30.5c-.32 1.43-.08 2.85.7 4.12.1.16.17.24.33.4l19.02 24.4c1.03 1.35 2.45 2.06 4.12 2.06h30.58c1.66 0 3.1-.7 4.12-2.06l19-24.4c1.04-1.35 1.44-2.93 1.04-4.52l-6.8-30.5c-.32-1.67-1.35-2.93-2.85-3.65l-27.5-13.54c-.87-.4-1.66-.64-2.53-.56zm0 2.14c.87-.07 1.58.1 2.38.5l26.14 12.82c1.35.7 2.3 1.9 2.7 3.5l6.4 28.83c.33 1.58 0 3-.94 4.27l-18.06 23.14c-.95 1.27-2.3 1.98-3.88 1.98h-29c-1.6 0-2.93-.7-3.88-1.98l-18.07-23.14c-.07-.07-.15-.23-.23-.4-.8-1.18-1.03-2.45-.7-3.87l6.4-28.84c.4-1.58 1.28-2.77 2.7-3.48l26.15-12.83c.63-.33 1.2-.5 1.9-.57z" stroke="#000" stroke-opacity="0" stroke-width="3.83" fill="#fff"/><path d="M647.37 971.45v3.6h16.9v-3.6zM638.68 961.86v3.6h25.6v-3.6zM627.64 961.86v3.6h6.4v-3.6zM647.98 981.03v3.6h16.3v-3.6zM638.68 990.6v3.6h25.6v-3.6zM627.64 990.6v3.6h6.4v-3.6z" stroke="#000" stroke-opacity="0" stroke-width="3.77" fill="#fff"/><path d="M648.47 985.13c0 1.4-1.1 2.52-2.44 2.52-1.34 0-2.43-1.13-2.43-2.52 0-1.38 1.1-2.5 2.43-2.5 1.35 0 2.44 1.12 2.44 2.5z" stroke="#000" stroke-opacity="0" stroke-width="3.77" fill="#326ce5"/><path d="M636.42 974.3l4.4.05c1.64-7 9.56-5.7 10.46.2l4.32-.25c-1.38-11.47-17.3-13.14-18.96-1.22z" stroke="#000" stroke-opacity="0" stroke-width="3.77" fill="#fff"/><path d="M645.94 964.5c-5.78 0-10.5 4.52-10.5 10.15 1.66-.02 5.23.08 5.8 0 0-2.27 2.05-4.2 4.7-4.2 2.64 0 4.7 1.93 4.7 4.2 1 .04 5.23-.2 5.8 0 0-5.63-4.73-10.16-10.5-10.16zm0 1.18c4.93 0 8.7 3.76 9.1 8.38h-3.52c-.35-2.68-2.64-4.8-5.58-4.8s-5.23 2.12-5.6 4.8h-3.47c.36-4.62 4.13-8.38 9.07-8.38z" stroke="#000" stroke-opacity="0" stroke-width="3.77" fill="#326ce5"/><path d="M633.33 974.75h24.96v16h-24.97v-16z" stroke="#000" stroke-opacity="0" stroke-width="3.77" fill="#fff"/><path d="M633.13 973.9v17.76h25.83V973.9zm1.16 1.2h23.5v15.35h-23.5z" stroke="#000" stroke-opacity="0" stroke-width="3.77" fill="#326ce5"/><path d="M634.6 1009.15c0 .64-.23 1.12-.7 1.47-.46.35-1.1.52-1.96.52-.8 0-1.44-.14-1.88-.4-.44-.3-.73-.72-.86-1.3l.96-.2c.1.36.3.62.57.8.3.16.7.25 1.2.25.57 0 .97-.1 1.23-.28.25-.17.38-.44.38-.8 0-.25-.08-.47-.26-.64-.18-.16-.47-.3-.86-.4l-.78-.22c-.62-.16-1.07-.32-1.34-.5-.26-.15-.47-.34-.6-.57-.17-.24-.24-.52-.24-.85 0-.6.2-1.08.64-1.4.42-.33 1.05-.5 1.86-.5.72 0 1.3.14 1.72.4.43.26.7.68.8 1.26l-.97.14c-.05-.3-.2-.53-.48-.7-.26-.15-.62-.23-1.06-.23-.5 0-.86.1-1.1.24-.22.15-.34.38-.34.7 0 .2.05.35.14.47.1.13.24.24.43.33.2.1.58.2 1.2.36.57.14 1 .28 1.24.4.25.14.45.27.6.43.14.15.26.33.34.54.1.2.12.42.12.68zM636.72 1007.88c0 .77.15 1.37.47 1.8.3.4.75.62 1.35.62.47 0 .85-.1 1.13-.3.3-.2.48-.43.58-.74l.96.28c-.4 1.07-1.28 1.6-2.67 1.6-.97 0-1.7-.3-2.22-.9-.5-.58-.75-1.47-.75-2.64 0-1.1.25-1.98.75-2.57.5-.6 1.24-.9 2.18-.9 1.93 0 2.9 1.2 2.9 3.6v.15zm3.54-.86c-.05-.72-.23-1.23-.52-1.56-.3-.33-.7-.5-1.25-.5-.54 0-.96.2-1.27.56-.3.36-.47.86-.5 1.5zM643.62 1007.6c0 .9.14 1.57.4 2 .28.44.7.65 1.25.65.4 0 .7-.1.96-.32.27-.22.43-.55.5-1l1.1.08c-.1.66-.36 1.18-.82 1.56-.43.4-1 .58-1.7.58-.92 0-1.62-.3-2.1-.9-.48-.6-.72-1.46-.72-2.6 0-1.14.24-2 .72-2.6.5-.6 1.18-.9 2.08-.9.68 0 1.23.18 1.67.54.44.36.72.85.83 1.48l-1.1.08c-.07-.37-.22-.67-.45-.9-.23-.2-.55-.32-.97-.32-.58 0-1 .2-1.26.6-.26.4-.38 1.06-.38 2zM649 1011v-5.16c0-.48 0-1-.03-1.58H650l.05 1.4h.02c.18-.6.38-1 .6-1.2.23-.22.55-.32.96-.32.14 0 .3.02.44.06v1.03c-.14-.04-.34-.06-.58-.06-.46 0-.8.2-1.04.6-.24.4-.36.98-.36 1.72v3.5zM653.96 1007.88c0 .77.15 1.37.47 1.8.3.4.76.62 1.36.62.46 0 .84-.1 1.12-.3.3-.2.48-.43.58-.74l.96.28c-.4 1.07-1.28 1.6-2.67 1.6-.98 0-1.72-.3-2.23-.9-.5-.58-.76-1.47-.76-2.64 0-1.1.26-1.98.77-2.57.5-.6 1.23-.9 2.18-.9 1.92 0 2.88 1.2 2.88 3.6v.15zm3.54-.86c-.06-.72-.23-1.23-.52-1.56-.3-.33-.7-.5-1.25-.5-.53 0-.95.2-1.26.56-.3.36-.47.86-.5 1.5zM662.54 1010.96c-.36.1-.73.15-1.1.15-.87 0-1.3-.5-1.3-1.52v-4.5h-.77v-.8h.8l.32-1.53h.72v1.52h1.2v.8h-1.2v4.27c0 .33.05.55.15.7.1.12.3.18.54.18.16 0 .36-.02.64-.08z" stroke="#000" stroke-opacity="0" fill="#fff"/><path d="M648.48 982.78c0 1.4-1.1 2.5-2.44 2.5-1.34 0-2.43-1.1-2.43-2.5s1.1-2.5 2.44-2.5c1.35 0 2.44 1.1 2.44 2.5z" stroke="#000" stroke-opacity="0" stroke-width="3.77" fill="#326ce5"/><use xlink:href="#g" transform="matrix(1,0,0,1,576.3428462224488,1029.0000000000005) translate(36.04938271604939 17.77777777777778)"/><use xlink:href="#e" transform="matrix(1,0,0,1,576.3428462224488,1029.0000000000005) translate(74.32098765432099 17.77777777777778)"/><use xlink:href="#f" transform="matrix(1,0,0,1,576.3428462224488,1029.0000000000005) translate(22.56172839506172 44.44444444444444)"/><path d="M451.7 746.87c-.76.08-1.36.23-1.96.53l-26.05 12.83c-1.43.68-2.4 1.88-2.7 3.46l-6.46 28.88c-.3 1.35-.08 2.7.67 3.9.1.15.16.23.3.38l18.03 23.1c.97 1.3 2.32 1.96 3.9 1.96h28.97c1.58 0 2.93-.67 3.9-1.95l18.02-23.1c.97-1.3 1.35-2.8.97-4.37l-6.46-28.8c-.3-1.6-1.28-2.8-2.7-3.47l-26.05-12.83c-.83-.38-1.6-.6-2.4-.53z" stroke="#000" stroke-opacity="0" stroke-width="3.83" fill="#326ce5"/><path d="M451.68 744.78c-.8.08-1.43.24-2.06.56l-27.5 13.55c-1.5.7-2.53 1.97-2.85 3.63l-6.8 30.5c-.33 1.43-.1 2.86.7 4.12.08.16.16.24.32.4l19 24.4c1.03 1.35 2.46 2.06 4.12 2.06h30.6c1.65 0 3.08-.7 4.1-2.05l19.02-24.4c1.03-1.35 1.43-2.93 1.03-4.52l-6.8-30.5c-.33-1.66-1.36-2.93-2.86-3.64l-27.5-13.56c-.86-.4-1.65-.64-2.52-.56zm0 2.14c.87-.08 1.58.08 2.37.48l26.15 12.83c1.35.72 2.3 1.9 2.7 3.5l6.4 28.83c.33 1.58 0 3-.94 4.28l-18.06 23.13c-.95 1.27-2.3 1.98-3.9 1.98h-28.98c-1.6 0-2.94-.7-3.9-1.98l-18.05-23.13c-.08-.08-.16-.24-.24-.4-.8-1.2-1.03-2.46-.7-3.88l6.4-28.84c.4-1.6 1.27-2.77 2.7-3.5l26.15-12.82c.63-.32 1.18-.48 1.9-.56z" stroke="#000" stroke-opacity="0" stroke-width="3.83" fill="#fff"/><path d="M453.32 775.46v3.6h16.9v-3.6zM444.64 765.88v3.6h25.6v-3.6zM433.6 765.88v3.6h6.4v-3.6zM453.94 785.04v3.6h16.3v-3.6zM444.64 794.62v3.6h25.6v-3.6zM433.6 794.62v3.6h6.4v-3.6z" stroke="#000" stroke-opacity="0" stroke-width="3.77" fill="#fff"/><path d="M454.43 789.14c0 1.4-1.1 2.52-2.44 2.52-1.35 0-2.45-1.13-2.45-2.52 0-1.38 1.1-2.5 2.44-2.5 1.34 0 2.43 1.12 2.43 2.5z" stroke="#000" stroke-opacity="0" stroke-width="3.77" fill="#326ce5"/><path d="M442.38 778.3l4.4.07c1.64-7 9.56-5.7 10.46.2l4.3-.26c-1.37-11.46-17.28-13.12-18.95-1.2z" stroke="#000" stroke-opacity="0" stroke-width="3.77" fill="#fff"/><path d="M451.9 768.5c-5.78 0-10.5 4.53-10.5 10.16 1.66-.02 5.23.08 5.8 0 0-2.27 2.05-4.2 4.7-4.2 2.64 0 4.7 1.93 4.7 4.2 1 .04 5.23-.2 5.8 0 0-5.63-4.73-10.16-10.5-10.16zm0 1.2c4.93 0 8.7 3.75 9.1 8.37h-3.52c-.35-2.68-2.64-4.8-5.58-4.8s-5.23 2.12-5.6 4.8h-3.47c.35-4.62 4.13-8.38 9.07-8.38z" stroke="#000" stroke-opacity="0" stroke-width="3.77" fill="#326ce5"/><path d="M439.3 778.76h24.94v16.02H439.3v-16.02z" stroke="#000" stroke-opacity="0" stroke-width="3.77" fill="#fff"/><path d="M439.1 777.9v17.77h25.82V777.9zm1.15 1.22h23.5v15.35h-23.5z" stroke="#000" stroke-opacity="0" stroke-width="3.77" fill="#326ce5"/><path d="M440.56 813.16c0 .64-.23 1.13-.7 1.48-.47.34-1.1.5-1.96.5-.8 0-1.44-.13-1.88-.4-.44-.28-.73-.7-.86-1.3l.96-.2c.1.37.3.63.57.8.28.18.7.26 1.2.26.56 0 .96-.1 1.2-.27.27-.17.4-.44.4-.78 0-.27-.08-.5-.26-.65-.18-.16-.47-.3-.86-.4l-.8-.22c-.6-.17-1.06-.33-1.32-.5-.27-.15-.47-.35-.62-.58-.15-.22-.22-.5-.22-.84 0-.6.2-1.08.63-1.4.43-.33 1.05-.5 1.87-.5.72 0 1.3.14 1.72.4.42.27.7.7.8 1.27l-.98.12c-.06-.3-.22-.53-.48-.7-.27-.15-.62-.23-1.06-.23-.5 0-.86.08-1.1.23-.23.16-.34.4-.34.7 0 .2.04.35.14.48.1.1.24.23.43.3.2.1.6.22 1.2.37.58.15 1 .3 1.25.42.25.13.45.27.6.42.14.15.26.33.34.54.08.2.12.42.12.68zM442.68 811.9c0 .76.15 1.36.47 1.78.3.42.76.63 1.36.63.48 0 .86-.1 1.14-.28.3-.2.48-.44.58-.74l.96.28c-.4 1.06-1.28 1.6-2.67 1.6-.96 0-1.7-.3-2.2-.9-.52-.6-.77-1.48-.77-2.65 0-1.1.25-1.96.76-2.56.5-.6 1.22-.9 2.17-.9 1.92 0 2.88 1.2 2.88 3.6v.15zm3.54-.87c-.06-.7-.23-1.23-.52-1.55-.3-.33-.7-.5-1.25-.5-.53 0-.96.2-1.26.55-.32.37-.5.86-.5 1.5zM449.57 811.63c0 .9.14 1.56.42 2 .26.42.67.63 1.22.63.4 0 .72-.1.97-.32.25-.2.42-.54.48-1l1.1.08c-.1.65-.35 1.17-.8 1.55-.46.4-1.03.58-1.72.58-.92 0-1.62-.3-2.1-.9-.48-.6-.72-1.46-.72-2.6 0-1.14.24-2 .72-2.6.48-.6 1.18-.9 2.08-.9.67 0 1.23.2 1.67.54.45.35.73.84.84 1.47l-1.12.08c-.05-.37-.2-.67-.43-.9-.24-.2-.56-.3-1-.3-.56 0-.98.18-1.24.57-.26.4-.4 1.07-.4 2zM454.97 815.03v-5.18c0-.47-.02-1-.04-1.57h1.03l.05 1.38h.03c.17-.58.37-.98.6-1.2.23-.2.55-.3.96-.3.13 0 .28 0 .43.05v1.04c-.15-.04-.34-.06-.58-.06-.45 0-.8.2-1.04.6-.22.4-.35.98-.35 1.73v3.53zM459.92 811.9c0 .76.15 1.36.46 1.78.3.42.76.63 1.36.63.47 0 .85-.1 1.14-.28.28-.2.47-.44.57-.74l.96.28c-.38 1.06-1.27 1.6-2.66 1.6-.97 0-1.7-.3-2.2-.9-.52-.6-.77-1.48-.77-2.65 0-1.1.25-1.96.76-2.56.5-.6 1.23-.9 2.17-.9 1.93 0 2.9 1.2 2.9 3.6v.15zm3.54-.87c-.06-.7-.23-1.23-.52-1.55-.3-.33-.7-.5-1.25-.5-.54 0-.96.2-1.28.55-.3.37-.47.86-.5 1.5zM468.5 814.98c-.36.1-.73.15-1.1.15-.87 0-1.3-.5-1.3-1.53v-4.5h-.77v-.82h.8l.32-1.5h.73v1.5h1.2v.8h-1.2v4.27c0 .33.05.56.15.7.1.12.28.18.54.18.14 0 .35-.02.63-.08z" stroke="#000" stroke-opacity="0" fill="#fff"/><path d="M454.44 786.8c0 1.38-1.1 2.5-2.44 2.5-1.34 0-2.44-1.12-2.44-2.5 0-1.4 1.1-2.52 2.44-2.52 1.35 0 2.44 1.13 2.44 2.5z" stroke="#000" stroke-opacity="0" stroke-width="3.77" fill="#326ce5"/><use xlink:href="#h" transform="matrix(1,0,0,1,382.3002930309593,833.0119760479045) translate(19.444444444444457 17.77777777777778)"/><use xlink:href="#e" transform="matrix(1,0,0,1,382.3002930309593,833.0119760479045) translate(90.92592592592592 17.77777777777778)"/><use xlink:href="#f" transform="matrix(1,0,0,1,382.3002930309593,833.0119760479045) translate(22.56172839506172 44.44444444444444)"/><path d="M129.5 529.33l.48 2.93 1.28 2.46 1.94 1.95 2.47 1.27 2.92.47h15.63v2h-15.8l-3.4-.54-3.02-1.56-2.38-2.38-1.56-3.03-.55-3.4v-19.96h2m56.17 30.87h-15.72v-2h15.72m-56.16-48.73h-2v-39.75h2m0-19.87h-2v-26.5h2m0-33.1h-2v-39.76h2m0-19.88h-2v-39.74h2m0-19.87h-2v-39.74h2m0-19.87h-2V171.7h2" fill="#5e5e5e"/><path d="M129.5 171.74h-2v-1.02h2M200.94 539.4l-14.27 4.65v-9.27z" fill="#5e5e5e"/><path d="M204.18 539.4l-18.5 6.02V533.4m2 9.27l10.02-3.26-10.03-3.25" fill="#5e5e5e"/><use xlink:href="#c" transform="matrix(1,0,0,1,100.8810086682427,382.2309993219755) translate(0 14.222222222222223)"/><path d="M129.5 774.32l.48 2.92 1.28 2.47 1.94 1.95 2.47 1.28 2.92.47h21.36v2h-21.53l-3.4-.55-3.02-1.57-2.38-2.38-1.56-3.02-.55-3.4V754.3h2m94.8 31.1h-42.9v-2h42.9m64.35 2h-42.9v-2h42.9m64.34 2h-42.9v-2H353m42.9 2h-21.46v-2h21.45m-266.4-49.18h-2v-40.18h2m0-20.1h-2v-40.17h2m0-20.1h-2V573.5h2m0-20.08h-2v-40.18h2m0-20.1h-2v-40.17h2m0-20.1h-2v-29.3h2m0-30.96h-2v-40.17h2m0-20.1h-2v-40.16h2m0-20.1h-2V211.9h2m0-20.1h-2v-20.08h2" fill="#5e5e5e"/><path d="M129.5 171.74h-2v-1.02h2M411.15 784.4l-14.26 4.63v-9.27z" fill="#5e5e5e"/><path d="M414.4 784.4l-18.5 6v-12m2 9.26l10.02-3.26-10.03-3.26M129.5 971.12l.48 2.92 1.28 2.46 1.94 1.95 2.47 1.27 2.92.48h18.7v2h-18.87l-3.4-.55-3.02-1.57-2.38-2.38-1.56-3.03-.55-3.4V950.7h2m84.22 31.5h-37.6v-2h37.6m56.4 2h-37.6v-2h37.6m56.4 2h-37.6v-2h37.6m56.4 2h-37.6v-2h37.6m56.42 2h-37.6v-2h37.6m56.4 2h-37.6v-2h37.6m56.4 2h-37.6v-2h37.6m37.6 2h-18.8v-2h18.8m-460.23-50h-2v-41h2m0-20.5h-2v-41h2m0-20.5h-2v-41h2m0-20.5h-2v-41h2m0-20.5h-2v-41h2m0-20.5h-2v-41h2m0-20.5h-2v-41h2m0-20.5h-2v-41h2m0-20.5h-2v-34.64h2m0-26.85h-2v-41h2m0-20.5h-2v-40.98h2m0-20.5h-2v-41h2m0-20.5h-2v-20.5h2" fill="#5e5e5e"/><path d="M129.5 171.74h-2v-1.02h2M605 981.2l-14.25 4.63v-9.27z" fill="#5e5e5e"/><path d="M608.25 981.2l-18.5 6V975.2m2 9.27l10.03-3.25-10.03-3.26" fill="#5e5e5e"/><path d="M792.5 529.5l-.56 3.4-1.56 3.02-2.4 2.38-3 1.56-3.4.55H297.72v-2H781.4l2.93-.46 2.47-1.27 1.94-1.95 1.28-2.46.47-2.93v-165.4h2m0-21.35h-2V171.72h2M296.73 544.05l-14.26-4.64 14.26-4.62z" fill="#c92d39"/><path d="M297.73 545.42l-18.5-6 18.5-6.02m-12.03 6l10.03 3.27v-6.52M792.5 171.74h-2v-1.02h2" fill="#c92d39"/><path d="M792.5 774.48l-.56 3.4-1.56 3.02-2.4 2.38-3 1.57-3.4.55H507.93v-2H781.4l2.93-.47 2.47-1.28 1.94-1.94 1.28-2.46.47-2.92v-410.4h2m0-21.34h-2V171.72h2M506.94 789.03l-14.26-4.63 14.26-4.64z" fill="#c92d39"/><path d="M507.94 790.4l-18.5-6 18.5-6m-12.03 6l10.04 3.26v-6.52M792.5 171.74h-2v-1.02h2" fill="#c92d39"/><use xlink:href="#i" transform="matrix(1,0,0,1,768.3288678749672,342.58318033919886) translate(0 14.222222222222223)"/><path d="M241.48 191.57c-.75.08-1.35.23-1.96.53l-26.04 12.83c-1.42.68-2.4 1.88-2.7 3.46l-6.46 28.88c-.3 1.35-.07 2.7.68 3.9.08.15.15.23.3.38l18 23.1c1 1.3 2.34 1.96 3.92 1.96h28.97c1.56 0 2.9-.67 3.9-1.95l18-23.1c.98-1.3 1.35-2.8.98-4.36l-6.46-28.8c-.3-1.6-1.27-2.8-2.7-3.47l-26.04-12.83c-.83-.38-1.58-.6-2.4-.53z" stroke="#000" stroke-opacity="0" stroke-width="3.83" fill="#326ce5"/><path d="M241.46 189.48c-.8.08-1.42.24-2.06.56l-27.5 13.55c-1.5.7-2.52 1.97-2.84 3.63l-6.8 30.5c-.33 1.43-.1 2.86.7 4.12.08.16.16.24.32.4l19 24.4c1.04 1.35 2.47 2.06 4.13 2.06H257c1.66 0 3.08-.7 4.1-2.05l19.03-24.4c1.03-1.35 1.42-2.93 1.03-4.52l-6.82-30.5c-.3-1.66-1.34-2.93-2.85-3.64L244 190.03c-.87-.4-1.66-.64-2.54-.56zm0 2.14c.88-.08 1.6.08 2.38.48L270 204.93c1.33.72 2.28 1.9 2.68 3.5l6.42 28.83c.32 1.58 0 3-.95 4.28l-18.07 23.13c-.95 1.27-2.3 1.98-3.88 1.98h-29c-1.58 0-2.93-.7-3.88-1.98l-18.06-23.13c-.08-.08-.16-.24-.24-.4-.8-1.2-1.03-2.46-.7-3.88l6.4-28.84c.4-1.6 1.27-2.77 2.7-3.5l26.14-12.82c.64-.32 1.2-.48 1.9-.56z" stroke="#000" stroke-opacity="0" stroke-width="3.83" fill="#fff"/><path d="M237.76 256.87c0 2.35-.8 3.54-2.4 3.54-1.02 0-1.7-.38-2.05-1.18v3.7h-1.08v-8.03c0-.7 0-1.15-.04-1.38h1.06v.18c.02.1.03.26.04.48l.02.43h.02c.2-.4.45-.7.77-.9.3-.2.72-.3 1.25-.3.8 0 1.4.28 1.8.85.4.55.6 1.42.6 2.62zm-1.15.02c0-.94-.1-1.62-.35-2.02-.25-.4-.64-.6-1.18-.6-.43 0-.77.1-1 .28-.26.18-.44.48-.57.88-.13.4-.2.9-.2 1.54 0 .9.15 1.54.42 1.96.27.42.72.63 1.34.63.54 0 .93-.2 1.18-.6.25-.42.37-1.1.37-2.08zM244.66 256.9c0 1.18-.25 2.06-.76 2.64-.5.58-1.24.86-2.2.86-.95 0-1.67-.3-2.16-.9-.5-.6-.74-1.47-.74-2.6 0-2.33.98-3.5 2.94-3.5 1 0 1.73.3 2.2.86.48.57.72 1.45.72 2.64zm-1.14 0c0-.93-.14-1.6-.4-2.03-.28-.42-.73-.63-1.36-.63-.64 0-1.1.2-1.4.64-.27.43-.4 1.1-.4 2.02 0 .9.13 1.56.4 2 .3.45.73.67 1.33.67.65 0 1.1-.2 1.4-.64.27-.44.42-1.12.42-2.03zM250.15 259.2c-.2.42-.47.73-.8.92-.34.2-.75.28-1.24.28-.8 0-1.43-.3-1.82-.86-.38-.57-.58-1.44-.58-2.6 0-2.36.8-3.54 2.4-3.54.5 0 .92.1 1.25.3.33.17.6.47.8.88v-3.55h1.1v7.85c0 .7 0 1.18.03 1.4h-1.05l-.03-.47-.03-.6zm-3.3-2.3c0 .94.12 1.62.36 2.02.25.4.64.62 1.2.62.6 0 1.05-.23 1.33-.67.28-.44.42-1.12.42-2.05 0-.9-.14-1.55-.42-1.96-.28-.4-.72-.63-1.33-.63-.55 0-.94.22-1.2.64-.23.4-.35 1.1-.35 2.02z" stroke="#000" stroke-opacity="0" fill="#fff"/><path d="M225.8 216.02l15.9-4.75 15.9 4.75-15.9 4.76zM225.8 217.84v17.44l14.82 8.47.07-21.35zM257.6 217.84v17.44l-14.8 8.47-.1-21.35z" stroke="#000" stroke-opacity="0" stroke-width="3.77" fill="#fff"/><use xlink:href="#d" transform="matrix(1,0,0,1,172.08752707351255,277.71257485029946) translate(28.055555555555557 17.77777777777778)"/><use xlink:href="#j" transform="matrix(1,0,0,1,172.08752707351255,277.71257485029946) translate(62.56172839506173 17.77777777777778)"/><path d="M242.7 481.3h-2v-1.94h2m0-7.84h-2v-3.92h2m0-7.84h-2v-3.92h2m0-7.83h-2v-3.9h2m0-7.85h-2v-3.92h2m0-7.83h-2v-3.92h2m0-7.84h-2v-3.92h2m0-7.84h-2v-3.9h2m0-23.48h-2v-.05h2m0-7.83h-2v-3.92h2m0-7.84h-2v-3.92h2m0-7.83h-2v-3.9h2m0-7.85h-2v-3.92h2m0-7.84h-2v-3.92h2m0-7.84h-2v-3.92h2m0-7.84h-2v-3.92h2m0-7.83h-2v-3.92h2m0-7.83h-2v-1.96h2" fill="#5e5e5e"/><path d="M242.7 269.74h-2v-1.03h2M241.7 496.58l-4.63-14.27h9.27z" fill="#5e5e5e"/><path d="M241.7 499.82l-6-18.5h12m-9.26 2l3.26 10.02 3.26-10.03" fill="#5e5e5e"/><use xlink:href="#k" transform="matrix(1,0,0,1,204.7391646966115,373.5977778599219) translate(0 14.222222222222223)"/><path d="M492.08 191.02h.38l-1.42.56-27.44 10.27-20.47 6.66-18.9 5.3-18.92 4.43-19.8 3.78-21.54 3.18-24.08 2.52-27.73 1.73-31.9.65-.03-2 31.84-.65 27.66-1.72 24-2.5 21.43-3.16 19.74-3.77 18.82-4.4 18.83-5.27 20.4-6.64 27.37-10.24 1.76-.7m49.24-17.33v-.72h1.8m192.36-38.5l-14.35.3-27.65 1.72-24 2.5-21.44 3.17-19.74 3.76-18.83 4.4-18.83 5.27-3.2 1.04v-2.1l2.62-.85 18.9-5.3 18.92-4.43 19.83-3.78 21.53-3.18 24.08-2.52 27.75-1.73 14.4-.3" fill="#c92d39"/><path d="M280.28 230.08h-.83l-.44-1.98 1.24-.02M750.73 131.17l-14.17 4.92-.2-9.28z" fill="#c92d39"/><path d="M753.96 131.1l-18.37 6.4-.26-12.03m2.2 9.23l9.95-3.46-10.1-3.06" fill="#c92d39"/><use xlink:href="#l" transform="matrix(1,0,0,1,492.0808088478271,169.69034699918188) translate(0 14.222222222222223)"/><path d="M503.28 195.12l-5.08 4.38-4.66 4.38-4.3 4.38-3.97 4.4-3.66 4.44-3.38 4.46-3.14 4.52-2.9 4.57-2.7 4.65-2.47 4.74-2.26 4.84-2.1 4.96-1.9 5.1-1.7 5.26-1.5 5.44-1.34 5.65-1.12 5.88-.9 6.15-.7 6.47-.42 6.8-.12 6.25-2-.05.13-6.27.43-6.9.7-6.55.9-6.24 1.14-5.97 1.35-5.73 1.53-5.52 1.73-5.34 1.93-5.18 2.1-5.03 2.32-4.92 2.52-4.8 2.72-4.73 2.95-4.65 3.2-4.58 3.44-4.55 3.72-4.5 4.02-4.46 4.36-4.45 4.72-4.44 5.14-4.43 3.22-2.55h3.23m227.05-58.7l-31.53 1.3L675.6 136l-24.7 3.1-21.5 3.63-18.7 3.97-16.36 4.2-6.9 2.06v-2.08l6.36-1.92 16.45-4.2 18.8-4 21.55-3.63 24.78-3.12 28.46-2.37 31.58-1.3" fill="#c92d39"/><path d="M452.94 302.82l-.03 1.1-1.22-.1-.77.12.04-1.16M750.73 131.14l-14.2 4.8-.12-9.26z" fill="#c92d39"/><path d="M753.96 131.1l-18.43 6.23-.14-12.02m2.1 9.26l10-3.38-10.08-3.14" fill="#c92d39"/><use xlink:href="#l" transform="matrix(1,0,0,1,538.2185718704455,149.6490391346779) translate(0 14.222222222222223)"/><path d="M648.82 273l-1.6 25.9-.26 118.25h-2l.27-118.32 1.6-26 1.64-15.7h2m85.23-123.66l-3.43.58-4 .84-3.75.96-3.57 1.08-3.4 1.18-3.25 1.3-3.12 1.38-3 1.5-2.9 1.6-2.83 1.7-2.75 1.82-2.67 1.94-2.62 2.08-2.57 2.22-2.53 2.38-2.5 2.56-2.48 2.75-2.46 2.97-2.44 3.22-2.43 3.5-2.44 3.82-2.43 4.2-2.42 4.65-2.42 5.18-2.43 5.78-2.43 6.54-2.42 7.46-2.4 8.6-2.36 10.1-1.6 8.43h-2.04l1.7-8.86 2.37-10.17 2.42-8.7 2.43-7.53 2.46-6.6 2.45-5.88 2.47-5.24 2.46-4.7 2.47-4.3 2.47-3.9 2.48-3.56 2.5-3.28 2.5-3.04 2.54-2.8 2.56-2.63 2.6-2.43 2.63-2.27 2.7-2.13 2.73-2 2.82-1.87 2.9-1.75 2.97-1.63 3.08-1.53 3.2-1.44 3.32-1.3 3.48-1.23 3.65-1.1 3.85-.98 4.06-.87 3.46-.58" fill="#c92d39"/><path d="M646.96 417.13v1.1l-1.24-.1-.76.14v-1.15M750.74 131.35l-13.9 5.68-.68-9.24z" fill="#c92d39"/><path d="M753.96 131.1l-18 7.38-.9-12m2.7 9.1l9.75-4-10.24-2.5" fill="#c92d39"/><use xlink:href="#l" transform="matrix(1,0,0,1,626.288797087885,235.79127213092474) translate(0 14.222222222222223)"/><path d="M451.7 305.9c-.76.08-1.36.23-1.96.53l-26.05 12.83c-1.43.68-2.4 1.88-2.7 3.45l-6.46 28.9c-.3 1.36-.08 2.7.67 3.9.1.16.16.23.3.38L433.54 379c.97 1.28 2.32 1.95 3.9 1.95h28.97c1.58 0 2.93-.67 3.9-1.95l18.02-23.12c.97-1.27 1.35-2.77.97-4.35l-6.46-28.82c-.3-1.56-1.28-2.76-2.7-3.44l-26.05-12.83c-.83-.38-1.6-.6-2.4-.53z" stroke="#000" stroke-opacity="0" stroke-width="3.83" fill="#326ce5"/><path d="M451.68 303.8c-.8.1-1.43.25-2.06.56l-27.5 13.55c-1.5.73-2.53 2-2.85 3.66l-6.8 30.5c-.33 1.43-.1 2.85.7 4.12.08.16.16.24.32.4l19 24.4c1.03 1.35 2.46 2.06 4.12 2.06h30.6c1.65 0 3.08-.7 4.1-2.06l19.02-24.4c1.03-1.35 1.43-2.94 1.03-4.52l-6.8-30.5c-.33-1.67-1.36-2.93-2.86-3.65l-27.5-13.54c-.86-.4-1.65-.63-2.52-.55zm0 2.15c.87-.08 1.58.08 2.37.47l26.15 12.84c1.35.7 2.3 1.9 2.7 3.5l6.4 28.82c.33 1.6 0 3.02-.94 4.28L470.3 379c-.95 1.27-2.3 1.98-3.9 1.98h-28.98c-1.6 0-2.94-.7-3.9-1.98l-18.05-23.14c-.08-.08-.16-.23-.24-.4-.8-1.18-1.03-2.45-.7-3.88l6.4-28.83c.4-1.6 1.27-2.78 2.7-3.5l26.15-12.83c.63-.3 1.18-.47 1.9-.55z" stroke="#000" stroke-opacity="0" stroke-width="3.83" fill="#fff"/><path d="M447.97 371.2c0 2.35-.8 3.53-2.4 3.53-1.02 0-1.7-.4-2.04-1.18h-.03c.02.04.02.4.02 1.07v2.63h-1.1v-8.02c0-.7 0-1.15-.02-1.38h1.05l.02.18c0 .1 0 .26.02.48v.43h.03c.2-.4.45-.7.77-.9.32-.2.74-.3 1.26-.3.8 0 1.4.28 1.8.84.4.55.6 1.43.6 2.63zm-1.14.02c0-.93-.13-1.6-.37-2-.25-.42-.64-.62-1.18-.62-.43 0-.77.1-1 .3-.26.17-.44.46-.57.86-.12.4-.18.92-.18 1.54 0 .9.14 1.55.4 1.97.3.4.73.62 1.35.62.54 0 .93-.2 1.18-.62.25-.4.38-1.1.38-2.06zM454.87 371.22c0 1.2-.25 2.07-.76 2.64-.5.58-1.23.87-2.2.87-.94 0-1.66-.3-2.15-.9-.5-.6-.73-1.47-.73-2.6 0-2.34.97-3.5 2.94-3.5 1 0 1.73.3 2.2.85.48.57.7 1.45.7 2.64zm-1.14 0c0-.93-.14-1.6-.4-2.03-.27-.43-.72-.64-1.36-.64-.63 0-1.1.2-1.38.65-.3.43-.44 1.1-.44 2.02 0 .9.14 1.56.42 2 .28.46.73.68 1.32.68.66 0 1.13-.2 1.4-.65.28-.43.43-1.1.43-2.03zM460.36 373.52c-.2.43-.46.74-.8.93-.33.2-.75.28-1.24.28-.82 0-1.43-.3-1.82-.86-.4-.58-.58-1.45-.58-2.6 0-2.37.8-3.54 2.4-3.54.5 0 .9.1 1.25.28.33.2.6.5.8.9v-3.55h1.08v7.86c0 .7.02 1.18.04 1.4h-1.05l-.04-.46v-.62zm-3.3-2.3c0 .95.12 1.62.36 2.03.25.4.64.62 1.18.62.62 0 1.07-.23 1.35-.67.27-.44.4-1.13.4-2.05 0-.9-.13-1.55-.4-1.97-.28-.4-.72-.62-1.34-.62-.53 0-.93.2-1.18.63-.24.4-.36 1.08-.36 2.02z" stroke="#000" stroke-opacity="0" fill="#fff"/><path d="M436 330.35l15.92-4.75 15.9 4.75-15.9 4.75zM436 332.17v17.43l14.83 8.47.07-21.34zM467.82 332.17v17.43L453 358.07l-.07-21.34z" stroke="#000" stroke-opacity="0" stroke-width="3.77" fill="#fff"/><use xlink:href="#m" transform="matrix(1,0,0,1,382.3002930309593,392.0389221556887) translate(41.60493827160494 17.77777777777778)"/><use xlink:href="#n" transform="matrix(1,0,0,1,382.3002930309593,392.0389221556887) translate(37.345679012345684 44.44444444444444)"/><path d="M452.9 726.3h-2v-1.97h2m0-7.87h-2v-3.93h2m0-7.87h-2v-3.93h2m0-7.87h-2v-3.93h2m0-7.87h-2v-3.94h2m0-7.86h-2v-3.94h2m0-7.87h-2v-3.93h2m0-7.87h-2v-3.93h2m0-7.87h-2v-3.93h2m0-7.87h-2v-3.94h2m0-7.85h-2v-3.94h2m0-7.86h-2v-3.93h2m0-22.5h-2v-1.1h2m0-7.86h-2v-3.94h2m0-7.86h-2v-3.94h2m0-7.87h-2v-3.93h2m0-7.87h-2v-3.93h2m0-7.87h-2v-3.94h2m0-7.87h-2v-3.94h2m0-7.88h-2v-3.93h2m0-7.88h-2v-3.93h2m0-7.88h-2v-3.93h2m0-7.88h-2v-3.94h2m0-7.86h-2v-3.94h2m0-7.87h-2v-3.92h2m0-7.87h-2v-3.92h2m0-7.87h-2v-3.92h2m0-7.87h-2v-3.93h2m0-7.86h-2v-1.96h2M452.9 384.06h-2v-1.02h2M451.9 741.57l-4.62-14.27h9.27z" fill="#5e5e5e"/><path d="M451.9 744.8l-6-18.5h12.03m-9.27 2l3.25 10.03 3.27-10.03" fill="#5e5e5e"/><use xlink:href="#k" transform="matrix(1,0,0,1,414.9519306540583,571.9999999999999) translate(0 14.222222222222223)"/><path d="M645.73 420.23c-.75.07-1.35.22-1.95.52l-26.04 12.84c-1.43.66-2.4 1.86-2.7 3.44l-6.46 28.9c-.3 1.34-.08 2.7.68 3.9.07.15.15.22.3.37l18 23.13c.98 1.27 2.34 1.95 3.9 1.95h28.98c1.58 0 2.93-.68 3.9-1.95l18.02-23.12c.97-1.27 1.35-2.77.97-4.34l-6.45-28.82c-.3-1.58-1.28-2.78-2.7-3.45l-26.05-12.85c-.82-.37-1.57-.6-2.4-.52z" stroke="#000" stroke-opacity="0" stroke-width="3.83" fill="#326ce5"/><path d="M645.72 418.14c-.8.08-1.43.23-2.06.55l-27.5 13.54c-1.5.7-2.53 1.98-2.84 3.64l-6.82 30.5c-.32 1.43-.08 2.86.7 4.13.1.17.17.24.33.4l19.02 24.4c1.03 1.35 2.45 2.07 4.12 2.07h30.58c1.66 0 3.1-.72 4.12-2.06l19-24.4c1.04-1.34 1.44-2.93 1.04-4.5l-6.8-30.52c-.32-1.66-1.35-2.93-2.85-3.64l-27.5-13.55c-.87-.4-1.66-.64-2.53-.56zm0 2.14c.87-.08 1.58.07 2.38.47l26.14 12.84c1.35.7 2.3 1.9 2.7 3.47l6.4 28.84c.33 1.6 0 3.02-.94 4.3l-18.06 23.12c-.95 1.27-2.3 2-3.88 2h-29c-1.6 0-2.93-.73-3.88-2L609.5 470.2c-.07-.1-.15-.25-.23-.4-.8-1.2-1.03-2.46-.7-3.9l6.4-28.83c.4-1.58 1.28-2.77 2.7-3.48l26.15-12.85c.63-.32 1.2-.47 1.9-.55z" stroke="#000" stroke-opacity="0" stroke-width="3.83" fill="#fff"/><path d="M642 485.53c0 2.35-.8 3.53-2.4 3.53-1 0-1.68-.4-2.03-1.18h-.03c.02.04.02.4.02 1.06v2.64h-1.08v-8.02c0-.7-.02-1.16-.04-1.4h1.05v.2c.02.1.03.25.04.47v.43h.04c.2-.4.45-.7.76-.9.32-.2.74-.3 1.26-.3.8 0 1.4.28 1.8.84.4.55.6 1.43.6 2.63zm-1.13.02c0-.94-.12-1.6-.37-2-.25-.42-.64-.62-1.17-.62-.44 0-.77.1-1.02.28-.23.2-.42.5-.55.9-.12.38-.2.9-.2 1.53 0 .9.15 1.54.43 1.96.27.4.72.62 1.33.62.56 0 .95-.2 1.2-.6.24-.42.37-1.1.37-2.07zM648.9 485.55c0 1.18-.24 2.06-.74 2.64-.5.57-1.24.86-2.2.86-.96 0-1.68-.3-2.17-.9-.5-.6-.74-1.48-.74-2.6 0-2.34.98-3.5 2.94-3.5 1 0 1.73.28 2.2.85.48.58.7 1.46.7 2.65zm-1.13 0c0-.93-.14-1.6-.4-2.03-.27-.42-.72-.63-1.35-.63-.64 0-1.1.2-1.4.63-.27.43-.42 1.1-.42 2.02 0 .9.14 1.56.42 2 .28.46.73.67 1.33.67.65 0 1.12-.2 1.4-.64.27-.43.42-1.1.42-2.03zM654.4 487.85c-.2.43-.46.74-.8.92-.33.2-.74.3-1.23.3-.83 0-1.44-.3-1.83-.88-.4-.58-.58-1.45-.58-2.62 0-2.35.8-3.52 2.4-3.52.5 0 .9.1 1.25.28.34.2.6.5.8.9h.02V479.67h1.07v7.86c0 .7 0 1.17.03 1.4h-1.04c-.02-.07-.03-.23-.05-.48l-.02-.6zm-3.3-2.3c0 .94.12 1.62.36 2.02.25.42.64.62 1.18.62.62 0 1.07-.23 1.35-.67.27-.44.4-1.13.4-2.06 0-.9-.13-1.55-.4-1.96-.3-.4-.73-.62-1.34-.62-.55 0-.95.22-1.2.64-.24.4-.36 1.1-.36 2.03z" stroke="#000" stroke-opacity="0" fill="#fff"/><path d="M630.06 444.68l15.9-4.76 15.9 4.76-15.9 4.75zM630.06 446.5v17.43l14.8 8.47.1-21.35zM661.86 446.5v17.43l-14.82 8.47-.07-21.35z" stroke="#000" stroke-opacity="0" stroke-width="3.77" fill="#fff"/><use xlink:href="#o" transform="matrix(1,0,0,1,576.3428462224488,506.36526946107796) translate(53.95061728395062 17.77777777777778)"/><path d="M646.96 922.3h-2v-2.03h2m0-8.08h-2v-4.04h2m0-8.08h-2v-4.04h2m0-8.07h-2v-4.04h2m0-8.07h-2v-4.04h2m0-8.07h-2v-4.04h2m0-8.07h-2v-4.03h2m0-8.08h-2v-4.04h2m0-8.07h-2v-4.03h2m0-8.07h-2v-4.04h2m0-8.07h-2v-4.05h2m0-8.08h-2v-4.03h2m0-8.08h-2v-4.04h2m0-8.07h-2v-4.04h2m0-8.06h-2v-4.04h2m0-8.07h-2v-4.04h2m0-8.1h-2v-.76h2m0-23.45h-2v-4.05h2m0-8.07h-2v-4.04h2m0-8.08h-2v-4.03h2m0-8.08h-2v-4.03h2m0-8.08h-2v-4.04h2m0-8.07h-2v-4.04h2m0-8.08h-2v-4.04h2m0-8.08h-2v-4.03h2m0-8.08h-2v-4.04h2m0-8.08h-2v-4.04h2m0-8.07h-2v-4.04h2m0-8.07h-2v-4.04h2m0-8.08h-2v-4.03h2m0-8.07h-2v-4.04h2m0-8.08h-2v-4.04h2m0-8.07h-2v-4.03h2m0-8.07h-2v-4.04h2m0-8.08h-2v-2h2" fill="#5e5e5e"/><path d="M646.96 498.4h-2v-1.03h2M645.96 937.55l-4.64-14.26h9.27z" fill="#5e5e5e"/><path d="M645.96 940.8l-6-18.5h12m-9.26 2l3.26 10.02 3.26-10.03" fill="#5e5e5e"/><use xlink:href="#k" transform="matrix(1,0,0,1,608.9944838455477,708.4106521114192) translate(0 14.222222222222223)"/><path d="M791.26 93.58c-.75.08-1.35.23-1.95.53l-26.03 12.84c-1.43.67-2.4 1.88-2.7 3.45l-6.46 28.9c-.3 1.34-.06 2.7.7 3.9.06.14.14.2.3.36l18 23.12c.98 1.28 2.33 1.95 3.9 1.95h28.97c1.58 0 2.93-.67 3.9-1.95l18.02-23.12c.97-1.27 1.34-2.77.97-4.35l-6.46-28.8c-.3-1.58-1.27-2.8-2.7-3.46L793.68 94.1c-.83-.37-1.58-.6-2.4-.52z" stroke="#000" stroke-opacity="0" stroke-width="3.83" fill="#326ce5"/><path d="M791.25 91.5c-.8.07-1.42.23-2.06.54l-27.5 13.55c-1.5.7-2.54 1.97-2.85 3.64l-6.82 30.5c-.3 1.43-.08 2.85.72 4.12.08.16.15.24.3.4l19.03 24.4c1.03 1.35 2.45 2.06 4.12 2.06h30.58c1.66 0 3.1-.7 4.12-2.06l19.02-24.4c1.03-1.35 1.42-2.94 1.03-4.52l-6.82-30.5c-.32-1.67-1.35-2.93-2.85-3.65l-27.5-13.56c-.86-.4-1.66-.63-2.53-.55zm0 2.13c.87-.08 1.6.08 2.38.47l26.14 12.84c1.35.7 2.3 1.9 2.7 3.5l6.42 28.82c.3 1.6 0 3.02-.97 4.28l-18.06 23.14c-.95 1.27-2.3 1.98-3.88 1.98h-29c-1.6 0-2.94-.7-3.9-1.98l-18.06-23.14c-.08-.08-.15-.23-.23-.4-.8-1.18-1.02-2.45-.7-3.88l6.4-28.83c.4-1.6 1.28-2.78 2.7-3.5l26.15-12.83c.63-.3 1.2-.47 1.9-.55z" stroke="#000" stroke-opacity="0" stroke-width="3.83" fill="#fff"/><path d="M792.9 122.17v3.6h16.9v-3.6zM784.22 112.58v3.6h25.58v-3.6zM773.18 112.58v3.6h6.4v-3.6zM793.5 131.74v3.6h16.3v-3.6zM784.22 141.33v3.6h25.58v-3.6zM773.18 141.33v3.6h6.4v-3.6z" stroke="#000" stroke-opacity="0" stroke-width="3.77" fill="#fff"/><path d="M794 135.85c0 1.4-1.1 2.5-2.43 2.5-1.35 0-2.44-1.1-2.44-2.5s1.1-2.5 2.44-2.5c1.34 0 2.43 1.1 2.43 2.5z" stroke="#000" stroke-opacity="0" stroke-width="3.77" fill="#326ce5"/><path d="M781.96 125l4.4.07c1.64-7 9.55-5.7 10.45.2l4.33-.26c-1.38-11.45-17.3-13.12-18.96-1.2z" stroke="#000" stroke-opacity="0" stroke-width="3.77" fill="#fff"/><path d="M791.47 115.2c-5.77 0-10.5 4.54-10.5 10.17 1.66-.02 5.23.08 5.8 0 0-2.28 2.06-4.2 4.7-4.2 2.65 0 4.7 1.92 4.7 4.2 1 .04 5.23-.2 5.8 0 0-5.63-4.72-10.16-10.5-10.16zm0 1.2c4.94 0 8.72 3.76 9.1 8.38h-3.5c-.37-2.7-2.66-4.8-5.6-4.8-2.94 0-5.23 2.1-5.58 4.8h-3.5c.36-4.62 4.14-8.38 9.07-8.38z" stroke="#000" stroke-opacity="0" stroke-width="3.77" fill="#326ce5"/><path d="M778.87 125.47h24.95v16h-24.95v-16z" stroke="#000" stroke-opacity="0" stroke-width="3.77" fill="#fff"/><path d="M778.66 124.62v17.76h25.84v-17.76zm1.16 1.2h23.5v15.35h-23.5z" stroke="#000" stroke-opacity="0" stroke-width="3.77" fill="#326ce5"/><path d="M780.14 159.87c0 .63-.24 1.12-.7 1.47-.47.34-1.12.52-1.96.52-.8 0-1.45-.14-1.9-.4-.43-.3-.7-.73-.85-1.3l.96-.2c.1.36.28.62.57.8.3.16.7.25 1.2.25.56 0 .96-.08 1.22-.26.25-.17.38-.44.38-.8 0-.25-.1-.47-.27-.64-.17-.16-.45-.3-.85-.4l-.78-.22c-.62-.17-1.07-.33-1.34-.5-.26-.15-.47-.34-.6-.57-.16-.22-.24-.5-.24-.83 0-.62.2-1.08.63-1.4.43-.33 1.05-.5 1.86-.5.7 0 1.28.14 1.7.4.44.26.7.68.82 1.26l-.98.13c-.06-.3-.22-.53-.5-.7-.25-.15-.6-.23-1.05-.23-.5 0-.87.08-1.1.23-.23.15-.35.38-.35.7 0 .2.05.35.15.47.1.12.23.23.42.32.2.1.6.2 1.2.36.58.16 1 .3 1.25.43.26.12.46.26.6.42.15.15.27.33.35.53.08.2.12.43.12.7zM782.25 158.6c0 .77.16 1.37.47 1.8.3.4.76.62 1.36.62.47 0 .85-.1 1.13-.3.3-.2.5-.44.6-.74l.95.28c-.4 1.07-1.28 1.6-2.67 1.6-.97 0-1.7-.3-2.22-.9-.5-.6-.75-1.47-.75-2.64 0-1.12.26-1.98.76-2.57.5-.6 1.24-.9 2.18-.9 1.93 0 2.88 1.2 2.88 3.6v.15zm3.55-.86c-.06-.72-.24-1.24-.53-1.56-.3-.33-.7-.5-1.25-.5-.53 0-.95.2-1.26.56-.3.36-.47.86-.5 1.5zM789.15 158.33c0 .9.14 1.56.4 2 .28.43.7.64 1.25.64.4 0 .7-.1.97-.32.26-.22.42-.55.48-1l1.1.08c-.08.65-.35 1.16-.8 1.55-.45.38-1.02.58-1.72.58-.92 0-1.62-.3-2.1-.9-.48-.6-.72-1.46-.72-2.6 0-1.14.25-2 .74-2.6.48-.6 1.17-.9 2.08-.9.67 0 1.22.18 1.66.54.45.36.72.85.84 1.48l-1.12.08c-.06-.37-.2-.67-.43-.9-.23-.2-.56-.32-.98-.32-.6 0-1 .2-1.27.6-.25.4-.38 1.05-.38 2zM794.54 161.73v-5.17c0-.48 0-1-.04-1.58h1.03l.05 1.38h.02c.18-.57.38-.97.6-1.2.23-.2.55-.3.96-.3.15 0 .3.02.44.06v1.03c-.14-.04-.33-.06-.58-.06-.45 0-.8.2-1.03.6-.25.4-.37.96-.37 1.7v3.53zM799.5 158.6c0 .77.14 1.37.46 1.8.3.4.76.62 1.36.62.47 0 .85-.1 1.13-.3.3-.2.48-.44.58-.74l.96.28c-.4 1.07-1.3 1.6-2.68 1.6-.97 0-1.7-.3-2.22-.9-.5-.6-.75-1.47-.75-2.64 0-1.12.25-1.98.75-2.57.5-.6 1.24-.9 2.18-.9 1.92 0 2.88 1.2 2.88 3.6v.15zm3.53-.86c-.05-.72-.23-1.24-.52-1.56-.28-.33-.7-.5-1.24-.5-.53 0-.95.2-1.26.56-.3.36-.47.86-.5 1.5zM808.07 161.68c-.36.1-.72.15-1.1.15-.87 0-1.3-.5-1.3-1.53v-4.5h-.76v-.8h.8l.33-1.53h.72V155h1.2v.8h-1.2v4.26c0 .33.05.55.15.7.1.12.3.18.54.18.15 0 .36-.03.63-.08z" stroke="#000" stroke-opacity="0" fill="#fff"/><path d="M794 133.5c0 1.4-1.08 2.5-2.42 2.5-1.35 0-2.44-1.1-2.44-2.5s1.1-2.5 2.44-2.5c1.34 0 2.43 1.1 2.43 2.5z" stroke="#000" stroke-opacity="0" stroke-width="3.77" fill="#326ce5"/><g><use xlink:href="#p" transform="matrix(1,0,0,1,721.8747611160658,179.71856287425152) translate(18.858024691358025 17.77777777777778)"/><use xlink:href="#q" transform="matrix(1,0,0,1,721.8747611160658,179.71856287425152) translate(90.3395061728395 17.77777777777778)"/><use xlink:href="#f" transform="matrix(1,0,0,1,721.8747611160658,179.71856287425152) translate(22.56172839506172 44.44444444444444)"/></g><defs><path fill="#333" d="M212-179c-10-28-35-45-73-45-59 0-87 40-87 99 0 60 29 101 89 101 43 0 62-24 78-52l27 14C228-24 195 4 139 4 59 4 22-46 18-125c-6-104 99-153 187-111 19 9 31 26 39 46" id="r"/><path fill="#333" d="M24 0v-261h32V0H24" id="s"/><path fill="#333" d="M84 4C-5 8 30-112 23-190h32v120c0 31 7 50 39 49 72-2 45-101 50-169h31l1 190h-30c-1-10 1-25-2-33-11 22-28 36-60 37" id="t"/><path fill="#333" d="M135-143c-3-34-86-38-87 0 15 53 115 12 119 90S17 21 10-45l28-5c4 36 97 45 98 0-10-56-113-15-118-90-4-57 82-63 122-42 12 7 21 19 24 35" id="u"/><path fill="#333" d="M59-47c-2 24 18 29 38 22v24C64 9 27 4 27-40v-127H5v-23h24l9-43h21v43h35v23H59v120" id="v"/><path fill="#333" d="M100-194c63 0 86 42 84 106H49c0 40 14 67 53 68 26 1 43-12 49-29l28 8c-11 28-37 45-77 45C44 4 14-33 15-96c1-61 26-98 85-98zm52 81c6-60-76-77-97-28-3 7-6 17-6 28h103" id="w"/><path fill="#333" d="M114-163C36-179 61-72 57 0H25l-1-190h30c1 12-1 29 2 39 6-27 23-49 58-41v29" id="x"/><g id="a"><use transform="matrix(0.06172839506172839,0,0,0.06172839506172839,0,0)" xlink:href="#r"/><use transform="matrix(0.06172839506172839,0,0,0.06172839506172839,15.987654320987653,0)" xlink:href="#s"/><use transform="matrix(0.06172839506172839,0,0,0.06172839506172839,20.864197530864196,0)" xlink:href="#t"/><use transform="matrix(0.06172839506172839,0,0,0.06172839506172839,33.20987654320987,0)" xlink:href="#u"/><use transform="matrix(0.06172839506172839,0,0,0.06172839506172839,44.32098765432099,0)" xlink:href="#v"/><use transform="matrix(0.06172839506172839,0,0,0.06172839506172839,50.49382716049383,0)" xlink:href="#w"/><use transform="matrix(0.06172839506172839,0,0,0.06172839506172839,62.839506172839506,0)" xlink:href="#x"/></g><path fill="#333" d="M140-251c81 0 123 46 123 126C263-46 219 4 140 4 59 4 17-45 17-125s42-126 123-126zm0 227c63 0 89-41 89-101s-29-99-89-99c-61 0-89 39-89 99S79-25 140-24" id="y"/><path fill="#333" d="M115-194c55 1 70 41 70 98S169 2 115 4C84 4 66-9 55-30l1 105H24l-1-265h31l2 30c10-21 28-34 59-34zm-8 174c40 0 45-34 45-75s-6-73-45-74c-42 0-51 32-51 76 0 43 10 73 51 73" id="z"/><path fill="#333" d="M141-36C126-15 110 5 73 4 37 3 15-17 15-53c-1-64 63-63 125-63 3-35-9-54-41-54-24 1-41 7-42 31l-33-3c5-37 33-52 76-52 45 0 72 20 72 64v82c-1 20 7 32 28 27v20c-31 9-61-2-59-35zM48-53c0 20 12 33 32 33 41-3 63-29 60-74-43 2-92-5-92 41" id="A"/><path fill="#333" d="M100-194c62-1 85 37 85 99 1 63-27 99-86 99S16-35 15-95c0-66 28-99 85-99zM99-20c44 1 53-31 53-75 0-43-8-75-51-75s-53 32-53 75 10 74 51 75" id="B"/><g id="b"><use transform="matrix(0.06172839506172839,0,0,0.06172839506172839,0,0)" xlink:href="#y"/><use transform="matrix(0.06172839506172839,0,0,0.06172839506172839,17.28395061728395,0)" xlink:href="#z"/><use transform="matrix(0.06172839506172839,0,0,0.06172839506172839,29.629629629629626,0)" xlink:href="#w"/><use transform="matrix(0.06172839506172839,0,0,0.06172839506172839,41.9753086419753,0)" xlink:href="#x"/><use transform="matrix(0.06172839506172839,0,0,0.06172839506172839,49.32098765432098,0)" xlink:href="#A"/><use transform="matrix(0.06172839506172839,0,0,0.06172839506172839,61.66666666666666,0)" xlink:href="#v"/><use transform="matrix(0.06172839506172839,0,0,0.06172839506172839,67.83950617283949,0)" xlink:href="#B"/><use transform="matrix(0.06172839506172839,0,0,0.06172839506172839,80.18518518518518,0)" xlink:href="#x"/></g><path fill="#333" d="M25-224v-37h50v37H25zM25 0v-190h50V0H25" id="C"/><path fill="#333" d="M137-138c1-29-70-34-71-4 15 46 118 7 119 86 1 83-164 76-172 9l43-7c4 19 20 25 44 25 33 8 57-30 24-41C81-84 22-81 20-136c-2-80 154-74 161-7" id="D"/><path fill="#333" d="M85 4C-2 5 27-109 22-190h50c7 57-23 150 33 157 60-5 35-97 40-157h50l1 190h-47c-2-12 1-28-3-38-12 25-28 42-61 42" id="E"/><path fill="#333" d="M185-48c-13 30-37 53-82 52C43 2 14-33 14-96s30-98 90-98c62 0 83 45 84 108H66c0 31 8 55 39 56 18 0 30-7 34-22zm-45-69c5-46-57-63-70-21-2 6-4 13-4 21h74" id="F"/><g id="c"><use transform="matrix(0.04938271604938272,0,0,0.04938271604938272,0,0)" xlink:href="#C"/><use transform="matrix(0.04938271604938272,0,0,0.04938271604938272,4.938271604938272,0)" xlink:href="#D"/><use transform="matrix(0.04938271604938272,0,0,0.04938271604938272,14.814814814814817,0)" xlink:href="#D"/><use transform="matrix(0.04938271604938272,0,0,0.04938271604938272,24.69135802469136,0)" xlink:href="#E"/><use transform="matrix(0.04938271604938272,0,0,0.04938271604938272,35.50617283950618,0)" xlink:href="#F"/><use transform="matrix(0.04938271604938272,0,0,0.04938271604938272,45.38271604938272,0)" xlink:href="#D"/></g><path fill="#333" d="M209 0H11v-25l151-195H24v-28h176v25L50-27h159V0" id="G"/><path fill="#333" d="M194 0L95-120 63-95V0H30v-248h33v124l119-124h40L117-140 236 0h-42" id="H"/><g id="d"><use transform="matrix(0.06172839506172839,0,0,0.06172839506172839,0,0)" xlink:href="#G"/><use transform="matrix(0.06172839506172839,0,0,0.06172839506172839,13.518518518518517,0)" xlink:href="#H"/></g><path fill="#333" d="M30 0v-248h187v28H63v79h144v27H63v87h162V0H30" id="I"/><g id="e"><use transform="matrix(0.06172839506172839,0,0,0.06172839506172839,0,0)" xlink:href="#I"/><use transform="matrix(0.06172839506172839,0,0,0.06172839506172839,14.814814814814813,0)" xlink:href="#I"/></g><path fill="#333" d="M96-169c-40 0-48 33-48 73s9 75 48 75c24 0 41-14 43-38l32 2c-6 37-31 61-74 61-59 0-76-41-82-99-10-93 101-131 147-64 4 7 5 14 7 22l-32 3c-4-21-16-35-41-35" id="J"/><path fill="#333" d="M24-231v-30h32v30H24zM24 0v-190h32V0H24" id="K"/><path fill="#333" d="M101-234c-31-9-42 10-38 44h38v23H63V0H32v-167H5v-23h27c-7-52 17-82 69-68v24" id="L"/><g id="f"><use transform="matrix(0.06172839506172839,0,0,0.06172839506172839,0,0)" xlink:href="#J"/><use transform="matrix(0.06172839506172839,0,0,0.06172839506172839,11.11111111111111,0)" xlink:href="#w"/><use transform="matrix(0.06172839506172839,0,0,0.06172839506172839,23.45679012345679,0)" xlink:href="#x"/><use transform="matrix(0.06172839506172839,0,0,0.06172839506172839,30.80246913580247,0)" xlink:href="#v"/><use transform="matrix(0.06172839506172839,0,0,0.06172839506172839,36.97530864197531,0)" xlink:href="#K"/><use transform="matrix(0.06172839506172839,0,0,0.06172839506172839,41.851851851851855,0)" xlink:href="#L"/><use transform="matrix(0.06172839506172839,0,0,0.06172839506172839,48.0246913580247,0)" xlink:href="#K"/><use transform="matrix(0.06172839506172839,0,0,0.06172839506172839,52.90123456790124,0)" xlink:href="#J"/><use transform="matrix(0.06172839506172839,0,0,0.06172839506172839,64.01234567901236,0)" xlink:href="#A"/><use transform="matrix(0.06172839506172839,0,0,0.06172839506172839,76.35802469135804,0)" xlink:href="#v"/><use transform="matrix(0.06172839506172839,0,0,0.06172839506172839,82.53086419753087,0)" xlink:href="#w"/></g><g id="g"><use transform="matrix(0.06172839506172839,0,0,0.06172839506172839,0,0)" xlink:href="#I"/><use transform="matrix(0.06172839506172839,0,0,0.06172839506172839,14.814814814814813,0)" xlink:href="#y"/></g><path fill="#333" d="M160-131c35 5 61 23 61 61C221 17 115-2 30 0v-248c76 3 177-17 177 60 0 33-19 50-47 57zm-97-11c50-1 110 9 110-42 0-47-63-36-110-37v79zm0 115c55-2 124 14 124-45 0-56-70-42-124-44v89" id="M"/><path fill="#333" d="M143 0L79-87 56-68V0H24v-261h32v163l83-92h37l-77 82L181 0h-38" id="N"/><g id="h"><use transform="matrix(0.06172839506172839,0,0,0.06172839506172839,0,0)" xlink:href="#M"/><use transform="matrix(0.06172839506172839,0,0,0.06172839506172839,14.814814814814813,0)" xlink:href="#x"/><use transform="matrix(0.06172839506172839,0,0,0.06172839506172839,22.160493827160494,0)" xlink:href="#B"/><use transform="matrix(0.06172839506172839,0,0,0.06172839506172839,34.50617283950617,0)" xlink:href="#N"/><use transform="matrix(0.06172839506172839,0,0,0.06172839506172839,45.61728395061728,0)" xlink:href="#w"/><use transform="matrix(0.06172839506172839,0,0,0.06172839506172839,57.962962962962955,0)" xlink:href="#x"/></g><path fill="#333" d="M195-6C206 82 75 100 31 46c-4-6-6-13-8-21l49-6c3 16 16 24 34 25 40 0 42-37 40-79-11 22-30 35-61 35-53 0-70-43-70-97 0-56 18-96 73-97 30 0 46 14 59 34l2-30h47zm-90-29c32 0 41-27 41-63 0-35-9-62-40-62-32 0-39 29-40 63 0 36 9 62 39 62" id="O"/><path fill="#333" d="M135-194c87-1 58 113 63 194h-50c-7-57 23-157-34-157-59 0-34 97-39 157H25l-1-190h47c2 12-1 28 3 38 12-26 28-41 61-42" id="P"/><g id="i"><use transform="matrix(0.04938271604938272,0,0,0.04938271604938272,0,0)" xlink:href="#D"/><use transform="matrix(0.04938271604938272,0,0,0.04938271604938272,9.876543209876544,0)" xlink:href="#C"/><use transform="matrix(0.04938271604938272,0,0,0.04938271604938272,14.814814814814817,0)" xlink:href="#O"/><use transform="matrix(0.04938271604938272,0,0,0.04938271604938272,25.629629629629633,0)" xlink:href="#P"/><use transform="matrix(0.04938271604938272,0,0,0.04938271604938272,36.44444444444445,0)" xlink:href="#D"/></g><path fill="#333" d="M117-194c89-4 53 116 60 194h-32v-121c0-31-8-49-39-48C34-167 62-67 57 0H25l-1-190h30c1 10-1 24 2 32 11-22 29-35 61-36" id="Q"/><path fill="#333" d="M85-194c31 0 48 13 60 33l-1-100h32l1 261h-30c-2-10 0-23-3-31C134-8 116 4 85 4 32 4 16-35 15-94c0-66 23-100 70-100zm9 24c-40 0-46 34-46 75 0 40 6 74 45 74 42 0 51-32 51-76 0-42-9-74-50-73" id="R"/><g id="j"><use transform="matrix(0.06172839506172839,0,0,0.06172839506172839,0,0)" xlink:href="#Q"/><use transform="matrix(0.06172839506172839,0,0,0.06172839506172839,12.345679012345679,0)" xlink:href="#B"/><use transform="matrix(0.06172839506172839,0,0,0.06172839506172839,24.691358024691358,0)" xlink:href="#R"/><use transform="matrix(0.06172839506172839,0,0,0.06172839506172839,37.03703703703704,0)" xlink:href="#w"/></g><path fill="#333" d="M135-194c53 0 70 44 70 98 0 56-19 98-73 100-31 1-45-17-59-34 3 33 2 69 2 105H25l-1-265h48c2 10 0 23 3 31 11-24 29-35 60-35zM114-30c33 0 39-31 40-66 0-38-9-64-40-64-56 0-55 130 0 130" id="S"/><path fill="#333" d="M135-150c-39-12-60 13-60 57V0H25l-1-190h47c2 13-1 29 3 40 6-28 27-53 61-41v41" id="T"/><path fill="#333" d="M115-3C79 11 28 4 28-45v-112H4v-33h27l15-45h31v45h36v33H77v99c-1 23 16 31 38 25v30" id="U"/><g id="k"><use transform="matrix(0.04938271604938272,0,0,0.04938271604938272,0,0)" xlink:href="#S"/><use transform="matrix(0.04938271604938272,0,0,0.04938271604938272,10.814814814814815,0)" xlink:href="#T"/><use transform="matrix(0.04938271604938272,0,0,0.04938271604938272,17.728395061728396,0)" xlink:href="#F"/><use transform="matrix(0.04938271604938272,0,0,0.04938271604938272,27.60493827160494,0)" xlink:href="#D"/><use transform="matrix(0.04938271604938272,0,0,0.04938271604938272,37.48148148148148,0)" xlink:href="#F"/><use transform="matrix(0.04938271604938272,0,0,0.04938271604938272,47.358024691358025,0)" xlink:href="#P"/><use transform="matrix(0.04938271604938272,0,0,0.04938271604938272,58.17283950617284,0)" xlink:href="#U"/><use transform="matrix(0.04938271604938272,0,0,0.04938271604938272,64.04938271604938,0)" xlink:href="#D"/></g><g id="l"><use transform="matrix(0.04938271604938272,0,0,0.04938271604938272,0,0)" xlink:href="#U"/><use transform="matrix(0.04938271604938272,0,0,0.04938271604938272,5.8765432098765435,0)" xlink:href="#T"/><use transform="matrix(0.04938271604938272,0,0,0.04938271604938272,12.790123456790125,0)" xlink:href="#E"/><use transform="matrix(0.04938271604938272,0,0,0.04938271604938272,23.604938271604937,0)" xlink:href="#D"/><use transform="matrix(0.04938271604938272,0,0,0.04938271604938272,33.48148148148148,0)" xlink:href="#U"/><use transform="matrix(0.04938271604938272,0,0,0.04938271604938272,39.358024691358025,0)" xlink:href="#D"/></g><g id="m"><use transform="matrix(0.06172839506172839,0,0,0.06172839506172839,0,0)" xlink:href="#H"/><use transform="matrix(0.06172839506172839,0,0,0.06172839506172839,14.814814814814813,0)" xlink:href="#A"/><use transform="matrix(0.06172839506172839,0,0,0.06172839506172839,27.160493827160494,0)" xlink:href="#L"/><use transform="matrix(0.06172839506172839,0,0,0.06172839506172839,33.333333333333336,0)" xlink:href="#N"/><use transform="matrix(0.06172839506172839,0,0,0.06172839506172839,44.44444444444444,0)" xlink:href="#A"/></g><g id="n"><use transform="matrix(0.06172839506172839,0,0,0.06172839506172839,0,0)" xlink:href="#M"/><use transform="matrix(0.06172839506172839,0,0,0.06172839506172839,14.814814814814813,0)" xlink:href="#x"/><use transform="matrix(0.06172839506172839,0,0,0.06172839506172839,22.160493827160494,0)" xlink:href="#B"/><use transform="matrix(0.06172839506172839,0,0,0.06172839506172839,34.50617283950617,0)" xlink:href="#N"/><use transform="matrix(0.06172839506172839,0,0,0.06172839506172839,45.61728395061728,0)" xlink:href="#w"/><use transform="matrix(0.06172839506172839,0,0,0.06172839506172839,57.962962962962955,0)" xlink:href="#x"/></g><g id="o"><use transform="matrix(0.06172839506172839,0,0,0.06172839506172839,0,0)" xlink:href="#I"/><use transform="matrix(0.06172839506172839,0,0,0.06172839506172839,14.814814814814813,0)" xlink:href="#y"/></g><g id="p"><use transform="matrix(0.06172839506172839,0,0,0.06172839506172839,0,0)" xlink:href="#J"/><use transform="matrix(0.06172839506172839,0,0,0.06172839506172839,11.11111111111111,0)" xlink:href="#s"/><use transform="matrix(0.06172839506172839,0,0,0.06172839506172839,15.987654320987653,0)" xlink:href="#t"/><use transform="matrix(0.06172839506172839,0,0,0.06172839506172839,28.333333333333332,0)" xlink:href="#u"/><use transform="matrix(0.06172839506172839,0,0,0.06172839506172839,39.44444444444444,0)" xlink:href="#v"/><use transform="matrix(0.06172839506172839,0,0,0.06172839506172839,45.617283950617285,0)" xlink:href="#w"/><use transform="matrix(0.06172839506172839,0,0,0.06172839506172839,57.96296296296296,0)" xlink:href="#x"/></g><path fill="#333" d="M205 0l-28-72H64L36 0H1l101-248h38L239 0h-34zm-38-99l-47-123c-12 45-31 82-46 123h93" id="V"/><g id="q"><use transform="matrix(0.06172839506172839,0,0,0.06172839506172839,0,0)" xlink:href="#r"/><use transform="matrix(0.06172839506172839,0,0,0.06172839506172839,15.987654320987653,0)" xlink:href="#V"/></g></defs></g></svg>