<svg xmlns="http://www.w3.org/2000/svg" xmlns:xlink="http://www.w3.org/1999/xlink" xmlns:lucid="lucid" width="980" height="1255.67"><g transform="translate(-60 -60)" lucid:page-tab-id="0_0"><path d="M0 0h1870.87v1322.83H0z" fill="#fff"/><path d="M959.66 83.17c-1.14.1-2.05.34-2.96.8l-39.44 19.43c-2.16 1.02-3.64 2.84-4.1 5.23l-9.77 43.76c-.47 2.04-.13 4.08 1 5.9.13.23.24.34.47.57l27.28 35c1.48 1.94 3.52 2.97 5.9 2.97h43.9c2.38 0 4.42-1.03 5.9-2.96l27.28-35c1.48-1.94 2.05-4.2 1.48-6.6l-9.77-43.65c-.45-2.4-1.93-4.2-4.1-5.23L963.3 83.96c-1.25-.57-2.4-.9-3.64-.8z" stroke="#000" stroke-opacity="0" stroke-width="3.83" fill="#326ce5"/><path d="M959.64 80c-1.2.12-2.16.36-3.12.84l-41.64 20.52c-2.28 1.08-3.84 3-4.32 5.52l-10.32 46.2c-.48 2.16-.12 4.32 1.08 6.24.12.24.24.36.48.6l28.8 36.96c1.56 2.04 3.72 3.12 6.24 3.12h46.32c2.52 0 4.68-1.08 6.24-3.12l28.8-36.96c1.56-2.04 2.16-4.44 1.56-6.84l-10.32-46.2c-.48-2.52-2.04-4.44-4.32-5.52l-41.64-20.52c-1.32-.6-2.52-.96-3.84-.84zm0 3.24c1.32-.12 2.4.12 3.6.72l39.6 19.44c2.04 1.08 3.48 2.88 4.08 5.28l9.72 43.68c.48 2.4 0 4.56-1.44 6.48l-27.36 35.04c-1.44 1.92-3.48 3-5.88 3h-43.92c-2.4 0-4.44-1.08-5.88-3l-27.36-35.04c-.12-.12-.24-.36-.36-.6-1.2-1.8-1.56-3.72-1.08-5.88l9.72-43.68c.6-2.4 1.92-4.2 4.08-5.28l39.6-19.44c.96-.48 1.8-.72 2.88-.84z" stroke="#000" stroke-opacity="0" stroke-width="3.83" fill="#fff"/><path d="M962.13 126.47v5.43h25.6v-5.43zM948.98 111.95v5.44h38.76v-5.45zM932.26 111.95v5.44h9.7v-5.45zM963.07 140.97v5.45h24.67v-5.45zM948.98 155.5v5.42h38.76v-5.43zM932.26 155.5v5.42h9.7v-5.43z" stroke="#000" stroke-opacity="0" stroke-width="3.77" fill="#fff"/><path d="M963.8 147.2c0 2.1-1.65 3.8-3.68 3.8-2.04 0-3.7-1.7-3.7-3.8 0-2.1 1.66-3.82 3.7-3.82 2.03 0 3.7 1.7 3.7 3.8z" stroke="#000" stroke-opacity="0" stroke-width="3.77" fill="#326ce5"/><path d="M945.56 130.78l6.65.08c2.5-10.6 14.5-8.62 15.87.3l6.53-.38c-2.1-17.37-26.2-19.9-28.72-1.85z" stroke="#000" stroke-opacity="0" stroke-width="3.77" fill="#fff"/><path d="M959.97 115.92c-8.74 0-15.9 6.87-15.9 15.4 2.5-.04 7.92.1 8.78 0 0-3.45 3.12-6.35 7.12-6.35s7.13 2.9 7.13 6.34c1.52.07 7.92-.28 8.77 0 0-8.5-7.15-15.38-15.9-15.38zm0 1.8c7.48 0 13.2 5.7 13.77 12.7h-5.3c-.55-4.06-4.02-7.26-8.47-7.26-4.45 0-7.92 3.2-8.46 7.25h-5.27c.54-6.98 6.27-12.67 13.74-12.67z" stroke="#000" stroke-opacity="0" stroke-width="3.77" fill="#326ce5"/><path d="M940.88 131.46h37.8v24.26h-37.8v-24.26z" stroke="#000" stroke-opacity="0" stroke-width="3.77" fill="#fff"/><path d="M940.57 130.18v26.9h39.13v-26.9zm1.76 1.83h35.6v23.25h-35.6z" stroke="#000" stroke-opacity="0" stroke-width="3.77" fill="#326ce5"/><path d="M942.8 183.57c0 .96-.35 1.7-1.06 2.23-.7.52-1.7.78-2.96.78-1.23 0-2.2-.2-2.86-.62-.66-.43-1.1-1.08-1.3-1.97l1.46-.3c.13.54.43.95.86 1.2.45.26 1.06.4 1.84.4.84 0 1.45-.15 1.83-.4.4-.28.6-.68.6-1.2 0-.4-.13-.74-.4-1-.27-.23-.7-.44-1.3-.6l-1.2-.33c-.93-.25-1.6-.5-2-.74-.4-.24-.72-.54-.94-.9-.23-.33-.35-.76-.35-1.26 0-.93.33-1.64.98-2.12.64-.5 1.6-.74 2.82-.74 1.1 0 1.96.2 2.6.6.65.4 1.06 1.04 1.23 1.9l-1.5.2c-.08-.45-.32-.8-.72-1.04-.4-.25-.93-.36-1.6-.36-.74 0-1.3.1-1.65.35-.35.23-.53.58-.53 1.05 0 .3.07.53.22.72.14.18.36.35.64.48.3.14.9.32 1.82.55.88.22 1.5.43 1.9.63.38.2.68.4.9.64.22.23.4.5.52.8.13.3.18.66.18 1.05zM946 181.64c0 1.17.24 2.08.72 2.7.46.65 1.15.97 2.06.97.7 0 1.3-.14 1.72-.44.43-.3.72-.66.87-1.12l1.45.42c-.6 1.62-1.94 2.42-4.04 2.42-1.47 0-2.6-.44-3.36-1.35-.76-.9-1.14-2.24-1.14-4 0-1.7.38-3 1.14-3.9.77-.9 1.87-1.35 3.3-1.35 2.9 0 4.37 1.8 4.37 5.43v.24zm5.38-1.3c-.1-1.08-.35-1.87-.8-2.36-.44-.5-1.07-.74-1.9-.74-.8 0-1.43.28-1.9.83-.47.55-.7 1.3-.75 2.27zM956.45 181.24c0 1.36.2 2.36.63 3.02.4.66 1.04.98 1.87.98.6 0 1.08-.16 1.47-.5.4-.32.65-.82.74-1.5l1.66.1c-.13 1-.53 1.78-1.22 2.36-.68.6-1.54.88-2.6.88-1.4 0-2.45-.44-3.18-1.34-.73-.92-1.1-2.23-1.1-3.97 0-1.72.37-3.03 1.1-3.93.74-.9 1.8-1.36 3.16-1.36 1.02 0 1.86.28 2.52.82.68.54 1.1 1.28 1.27 2.23l-1.7.13c-.08-.56-.3-1.02-.65-1.34-.35-.34-.84-.5-1.48-.5-.88 0-1.5.3-1.9.9-.4.6-.6 1.6-.6 3.02zM964.62 186.4v-7.85c0-.72-.02-1.5-.05-2.38h1.55l.08 2.1h.03c.27-.9.57-1.5.9-1.8.36-.34.84-.5 1.46-.5.2 0 .43.04.66.1v1.56c-.22-.06-.5-.1-.88-.1-.68 0-1.2.3-1.57.93-.35.6-.53 1.46-.53 2.6v5.33zM972.12 181.64c0 1.17.23 2.08.7 2.7.47.65 1.16.97 2.07.97.7 0 1.27-.14 1.7-.44.44-.3.73-.66.88-1.12l1.45.42c-.6 1.62-1.94 2.42-4.04 2.42-1.48 0-2.6-.44-3.37-1.35-.77-.9-1.14-2.24-1.14-4 0-1.7.36-3 1.13-3.9.77-.9 1.87-1.35 3.3-1.35 2.9 0 4.36 1.8 4.36 5.43v.24zm5.37-1.3c-.1-1.08-.37-1.87-.8-2.36-.45-.5-1.08-.74-1.9-.74-.8 0-1.44.28-1.9.83-.48.55-.73 1.3-.76 2.27zM985.12 186.3c-.55.17-1.1.24-1.67.24-1.32 0-1.98-.77-1.98-2.3v-6.84h-1.15v-1.23h1.2l.5-2.3h1.1v2.3h1.83v1.23h-1.83v6.46c0 .5.07.83.23 1.04.15.2.43.3.8.3.23 0 .55-.05.97-.14z" stroke="#000" stroke-opacity="0" fill="#fff"/><path d="M963.82 143.63c0 2.1-1.65 3.8-3.7 3.8-2.03 0-3.68-1.7-3.68-3.8 0-2.1 1.65-3.8 3.7-3.8 2.03 0 3.68 1.7 3.68 3.8z" stroke="#000" stroke-opacity="0" stroke-width="3.77" fill="#326ce5"/><use xlink:href="#a" transform="matrix(1,0,0,1,870,209) translate(38.858024691358025 17.77777777777778)"/><use xlink:href="#b" transform="matrix(1,0,0,1,870,209) translate(110.3395061728395 17.77777777777778)"/><use xlink:href="#c" transform="matrix(1,0,0,1,870,209) translate(42.56172839506172 44.44444444444444)"/><path d="M139.66 83.17c-1.14.1-2.05.34-2.96.8L97.26 103.4c-2.16 1.02-3.64 2.84-4.1 5.23L83.4 152.4c-.47 2.04-.13 4.08 1 5.9.13.23.24.34.47.57l27.28 35c1.48 1.94 3.52 2.97 5.9 2.97h43.9c2.38 0 4.42-1.03 5.9-2.96l27.28-35c1.48-1.94 2.05-4.2 1.48-6.6l-9.77-43.65c-.45-2.4-1.93-4.2-4.1-5.23L143.3 83.96c-1.25-.57-2.4-.9-3.64-.8z" stroke="#000" stroke-opacity="0" stroke-width="3.83" fill="#326ce5"/><path d="M139.64 80c-1.2.12-2.16.36-3.12.84l-41.64 20.52c-2.28 1.08-3.84 3-4.32 5.52l-10.32 46.2c-.48 2.16-.12 4.32 1.08 6.24.12.24.24.36.48.6l28.8 36.96c1.56 2.04 3.72 3.12 6.24 3.12h46.32c2.52 0 4.68-1.08 6.24-3.12l28.8-36.96c1.56-2.04 2.16-4.44 1.56-6.84l-10.32-46.2c-.48-2.52-2.04-4.44-4.32-5.52l-41.64-20.52c-1.32-.6-2.52-.96-3.84-.84zm0 3.24c1.32-.12 2.4.12 3.6.72l39.6 19.44c2.04 1.08 3.48 2.88 4.08 5.28l9.72 43.68c.48 2.4 0 4.56-1.44 6.48l-27.36 35.04c-1.44 1.92-3.48 3-5.88 3h-43.92c-2.4 0-4.44-1.08-5.88-3L84.8 158.84c-.12-.12-.24-.36-.36-.6-1.2-1.8-1.56-3.72-1.08-5.88l9.72-43.68c.6-2.4 1.92-4.2 4.08-5.28l39.6-19.44c.96-.48 1.8-.72 2.88-.84z" stroke="#000" stroke-opacity="0" stroke-width="3.83" fill="#fff"/><path d="M134.02 182.07c0 3.56-1.2 5.35-3.64 5.35-1.53 0-2.56-.6-3.08-1.8h-.05c.03.07.04.6.04 1.63v4h-1.66v-12.17c0-1.05-.02-1.74-.06-2.1h1.6l.02.3.05.7.02.66h.03c.3-.62.7-1.08 1.17-1.37.48-.3 1.1-.45 1.9-.45 1.23 0 2.14.42 2.74 1.27.62.83.92 2.15.92 3.97zm-1.73.03c0-1.42-.2-2.44-.56-3.05-.38-.62-.97-.92-1.78-.92-.66 0-1.17.15-1.54.43-.37.28-.65.73-.85 1.33-.2.58-.28 1.38-.28 2.33 0 1.35.2 2.33.6 2.97.43.63 1.1.95 2.04.95.82 0 1.4-.3 1.78-.92.38-.62.57-1.66.57-3.13zM144.48 182.1c0 1.8-.4 3.13-1.15 4-.76.88-1.88 1.32-3.33 1.32-1.45 0-2.54-.46-3.28-1.36-.74-.92-1.1-2.24-1.1-3.96 0-3.53 1.47-5.3 4.44-5.3 1.52 0 2.63.45 3.34 1.3.72.87 1.08 2.2 1.08 4zm-1.73 0c0-1.4-.22-2.43-.62-3.07-.4-.64-1.08-.95-2.04-.95-.98 0-1.68.3-2.1.97-.44.65-.66 1.67-.66 3.05 0 1.35.2 2.37.64 3.05.42.68 1.1 1 2 1 1 0 1.7-.3 2.12-.97.43-.66.65-1.7.65-3.08zM152.8 185.58c-.3.66-.7 1.12-1.22 1.4-.5.3-1.13.43-1.87.43-1.24 0-2.17-.43-2.76-1.3-.58-.86-.88-2.18-.88-3.94 0-3.57 1.22-5.35 3.65-5.35.76 0 1.38.16 1.9.44.5.28.9.74 1.2 1.35v-5.4h1.64v11.9c0 1.08.03 1.8.06 2.13h-1.58l-.06-.7c0-.37-.03-.68-.03-.95zm-5-3.48c0 1.44.18 2.46.54 3.07.37.62.96.94 1.8.94.93 0 1.6-.33 2.02-1 .43-.67.64-1.7.64-3.1 0-1.36-.2-2.36-.64-2.98-.42-.63-1.1-.96-2-.96-.84 0-1.44.33-1.82.97-.36.63-.55 1.65-.55 3.07z" stroke="#000" stroke-opacity="0" fill="#fff"/><path d="M115.92 120.2L140 113l24.1 7.2-24.1 7.2zM115.92 122.95v26.4l22.43 12.83.12-32.32zM164.08 122.95v26.4l-22.44 12.83-.1-32.32z" stroke="#000" stroke-opacity="0" stroke-width="3.77" fill="#fff"/><use xlink:href="#d" transform="matrix(1,0,0,1,50,209) translate(54.907407407407405 17.77777777777778)"/><use xlink:href="#e" transform="matrix(1,0,0,1,50,209) translate(46.23456790123457 44.44444444444444)"/><path d="M218.65 141h-20.8v-2h20.8m62.44 2h-41.64v-2h41.63m62.43 2H301.9v-2h41.63m62.44 2h-41.63v-2h41.63m62.43 2h-41.62v-2h41.62m53.97 2h-33.15v-2h33.15m133.35 2H614.1v-2h41.62m62.44 2h-41.63v-2h41.63m62.44 2h-41.63v-2h41.63m62.43 2H801.4v-2h41.63m41.63 2h-20.8v-2h20.8m-291.38 2h-15.65v-2h15.65" fill="#5e5e5e"/><path d="M197.86 141h-.8l-.45-2h1.26M899.93 140l-14.27 4.64v-9.28z" fill="#5e5e5e"/><path d="M903.16 140l-18.5 6v-12m2 9.26L896.7 140l-10.04-3.26" fill="#5e5e5e"/><use xlink:href="#f" transform="matrix(1,0,0,1,522.3703703703703,129.33333333333334) translate(0 14.222222222222223)"/><path d="M279.66 583.17c-1.14.1-2.05.34-2.96.8l-39.44 19.43c-2.16 1.02-3.64 2.84-4.1 5.23l-9.77 43.76c-.47 2.04-.13 4.08 1 5.9.13.23.24.34.47.57l27.28 35c1.48 1.94 3.52 2.97 5.9 2.97h43.9c2.38 0 4.42-1.03 5.9-2.96l27.28-35c1.48-1.94 2.05-4.2 1.48-6.6l-9.77-43.65c-.45-2.4-1.93-4.2-4.1-5.23l-39.43-19.44c-1.25-.57-2.4-.9-3.64-.8z" stroke="#000" stroke-opacity="0" stroke-width="3.83" fill="#326ce5"/><path d="M279.64 580c-1.2.12-2.16.36-3.12.84l-41.64 20.52c-2.28 1.08-3.84 3-4.32 5.52l-10.32 46.2c-.48 2.16-.12 4.32 1.08 6.24.12.24.24.36.48.6l28.8 36.96c1.56 2.04 3.72 3.12 6.24 3.12h46.32c2.52 0 4.68-1.08 6.24-3.12l28.8-36.96c1.56-2.04 2.16-4.44 1.56-6.84l-10.32-46.2c-.48-2.52-2.04-4.44-4.32-5.52l-41.64-20.52c-1.32-.6-2.52-.96-3.84-.84zm0 3.24c1.32-.12 2.4.12 3.6.72l39.6 19.44c2.04 1.08 3.48 2.88 4.08 5.28l9.72 43.68c.48 2.4 0 4.56-1.44 6.48l-27.36 35.04c-1.44 1.92-3.48 3-5.88 3h-43.92c-2.4 0-4.44-1.08-5.88-3l-27.36-35.04c-.12-.12-.24-.36-.36-.6-1.2-1.8-1.56-3.72-1.08-5.88l9.72-43.68c.6-2.4 1.92-4.2 4.08-5.28l39.6-19.44c.96-.48 1.8-.72 2.88-.84z" stroke="#000" stroke-opacity="0" stroke-width="3.83" fill="#fff"/><path d="M282.13 626.47v5.43h25.6v-5.43zM268.98 611.95v5.44h38.76v-5.45zM252.26 611.95v5.44h9.7v-5.45zM283.07 640.97v5.45h24.67v-5.45zM268.98 655.5v5.42h38.76v-5.43zM252.26 655.5v5.42h9.7v-5.43z" stroke="#000" stroke-opacity="0" stroke-width="3.77" fill="#fff"/><path d="M283.8 647.2c0 2.1-1.65 3.8-3.68 3.8-2.04 0-3.7-1.7-3.7-3.8 0-2.1 1.66-3.82 3.7-3.82 2.03 0 3.7 1.7 3.7 3.8z" stroke="#000" stroke-opacity="0" stroke-width="3.77" fill="#326ce5"/><path d="M265.56 630.78l6.65.08c2.5-10.6 14.5-8.62 15.87.3l6.53-.38c-2.1-17.37-26.2-19.9-28.72-1.85z" stroke="#000" stroke-opacity="0" stroke-width="3.77" fill="#fff"/><path d="M279.97 615.92c-8.74 0-15.9 6.87-15.9 15.4 2.5-.04 7.92.1 8.78 0 0-3.45 3.12-6.35 7.12-6.35s7.13 2.9 7.13 6.34c1.52.07 7.92-.28 8.77 0 0-8.5-7.15-15.38-15.9-15.38zm0 1.8c7.48 0 13.2 5.7 13.77 12.7h-5.3c-.55-4.06-4.02-7.26-8.47-7.26-4.45 0-7.92 3.2-8.46 7.25h-5.27c.54-6.98 6.27-12.67 13.74-12.67z" stroke="#000" stroke-opacity="0" stroke-width="3.77" fill="#326ce5"/><path d="M260.88 631.46h37.8v24.26h-37.8v-24.26z" stroke="#000" stroke-opacity="0" stroke-width="3.77" fill="#fff"/><path d="M260.57 630.18v26.9h39.13v-26.9zm1.76 1.83h35.6v23.25h-35.6z" stroke="#000" stroke-opacity="0" stroke-width="3.77" fill="#326ce5"/><path d="M262.8 683.57c0 .96-.35 1.7-1.06 2.23-.7.52-1.7.78-2.96.78-1.23 0-2.2-.2-2.86-.62-.66-.43-1.1-1.08-1.3-1.97l1.46-.3c.13.54.43.95.86 1.2.45.26 1.06.4 1.84.4.84 0 1.45-.15 1.83-.4.4-.28.6-.68.6-1.2 0-.4-.13-.74-.4-1-.27-.23-.7-.44-1.3-.6l-1.2-.33c-.93-.25-1.6-.5-2-.74-.4-.24-.72-.54-.94-.9-.23-.33-.35-.76-.35-1.26 0-.93.33-1.64.98-2.12.64-.5 1.6-.74 2.82-.74 1.1 0 1.96.2 2.6.6.65.4 1.06 1.04 1.23 1.9l-1.5.2c-.08-.45-.32-.8-.72-1.04-.4-.25-.93-.36-1.6-.36-.74 0-1.3.1-1.65.35-.35.23-.53.58-.53 1.05 0 .3.07.53.22.72.14.18.36.35.64.48.3.14.9.32 1.82.55.88.22 1.5.43 1.9.63.38.2.68.4.9.64.22.23.4.5.52.8.13.3.18.66.18 1.05zM266 681.64c0 1.17.24 2.08.72 2.7.46.65 1.15.97 2.06.97.7 0 1.3-.14 1.72-.44.43-.3.72-.66.87-1.12l1.45.42c-.6 1.62-1.94 2.42-4.04 2.42-1.47 0-2.6-.44-3.36-1.35-.76-.9-1.14-2.24-1.14-4 0-1.7.38-3 1.14-3.9.77-.9 1.87-1.35 3.3-1.35 2.9 0 4.37 1.8 4.37 5.43v.24zm5.38-1.3c-.1-1.08-.35-1.87-.8-2.36-.44-.5-1.07-.74-1.9-.74-.8 0-1.43.28-1.9.83-.47.55-.7 1.3-.75 2.27zM276.45 681.24c0 1.36.2 2.36.63 3.02.4.66 1.04.98 1.87.98.6 0 1.08-.16 1.47-.5.4-.32.65-.82.74-1.5l1.66.1c-.13 1-.53 1.78-1.22 2.36-.68.6-1.54.88-2.6.88-1.4 0-2.45-.44-3.18-1.34-.73-.92-1.1-2.23-1.1-3.97 0-1.72.37-3.03 1.1-3.93.74-.9 1.8-1.36 3.16-1.36 1.02 0 1.86.28 2.52.82.68.54 1.1 1.28 1.27 2.23l-1.7.13c-.08-.56-.3-1.02-.65-1.34-.35-.34-.84-.5-1.48-.5-.88 0-1.5.3-1.9.9-.4.6-.6 1.6-.6 3.02zM284.62 686.4v-7.85c0-.72-.02-1.5-.05-2.38h1.55l.08 2.1h.03c.27-.9.57-1.5.9-1.8.36-.34.84-.5 1.46-.5.2 0 .43.04.66.1v1.56c-.22-.06-.5-.1-.88-.1-.68 0-1.2.3-1.57.93-.35.6-.53 1.46-.53 2.6v5.33zM292.12 681.64c0 1.17.23 2.08.7 2.7.47.65 1.16.97 2.07.97.7 0 1.27-.14 1.7-.44.44-.3.73-.66.88-1.12l1.45.42c-.6 1.62-1.94 2.42-4.04 2.42-1.48 0-2.6-.44-3.37-1.35-.77-.9-1.14-2.24-1.14-4 0-1.7.36-3 1.13-3.9.77-.9 1.87-1.35 3.3-1.35 2.9 0 4.36 1.8 4.36 5.43v.24zm5.37-1.3c-.1-1.08-.37-1.87-.8-2.36-.45-.5-1.08-.74-1.9-.74-.8 0-1.44.28-1.9.83-.48.55-.73 1.3-.76 2.27zM305.12 686.3c-.55.17-1.1.24-1.67.24-1.32 0-1.98-.77-1.98-2.3v-6.84h-1.15v-1.23h1.2l.5-2.3h1.1v2.3h1.83v1.23h-1.83v6.46c0 .5.07.83.23 1.04.15.2.43.3.8.3.23 0 .55-.05.97-.14z" stroke="#000" stroke-opacity="0" fill="#fff"/><path d="M283.82 643.63c0 2.1-1.65 3.8-3.7 3.8-2.03 0-3.68-1.7-3.68-3.8 0-2.1 1.65-3.8 3.7-3.8 2.03 0 3.68 1.7 3.68 3.8z" stroke="#000" stroke-opacity="0" stroke-width="3.77" fill="#326ce5"/><use xlink:href="#g" transform="matrix(1,0,0,1,190,709) translate(57.9320987654321 17.77777777777778)"/><use xlink:href="#h" transform="matrix(1,0,0,1,190,709) translate(92.43827160493828 17.77777777777778)"/><use xlink:href="#c" transform="matrix(1,0,0,1,190,709) translate(42.56172839506172 44.44444444444444)"/><path d="M779.66 1123.17c-1.14.1-2.05.34-2.96.8l-39.44 19.43c-2.16 1.02-3.64 2.84-4.1 5.23l-9.77 43.76c-.47 2.04-.13 4.08 1 5.9.13.23.24.34.47.57l27.28 35c1.48 1.94 3.52 2.97 5.9 2.97h43.9c2.38 0 4.42-1.03 5.9-2.96l27.28-35c1.48-1.94 2.05-4.2 1.48-6.6l-9.77-43.65c-.45-2.4-1.93-4.2-4.1-5.23l-39.43-19.44c-1.25-.57-2.4-.9-3.64-.8z" stroke="#000" stroke-opacity="0" stroke-width="3.83" fill="#326ce5"/><path d="M779.64 1120c-1.2.12-2.16.36-3.12.84l-41.64 20.52c-2.28 1.08-3.84 3-4.32 5.52l-10.32 46.2c-.48 2.16-.12 4.32 1.08 6.24.12.24.24.36.48.6l28.8 36.96c1.56 2.04 3.72 3.12 6.24 3.12h46.32c2.52 0 4.68-1.08 6.24-3.12l28.8-36.96c1.56-2.04 2.16-4.44 1.56-6.84l-10.32-46.2c-.48-2.52-2.04-4.44-4.32-5.52l-41.64-20.52c-1.32-.6-2.52-.96-3.84-.84zm0 3.24c1.32-.12 2.4.12 3.6.72l39.6 19.44c2.04 1.08 3.48 2.88 4.08 5.28l9.72 43.68c.48 2.4 0 4.56-1.44 6.48l-27.36 35.04c-1.44 1.92-3.48 3-5.88 3h-43.92c-2.4 0-4.44-1.08-5.88-3l-27.36-35.04c-.12-.12-.24-.36-.36-.6-1.2-1.8-1.56-3.72-1.08-5.88l9.72-43.68c.6-2.4 1.92-4.2 4.08-5.28l39.6-19.44c.96-.48 1.8-.72 2.88-.84z" stroke="#000" stroke-opacity="0" stroke-width="3.83" fill="#fff"/><path d="M782.13 1166.47v5.43h25.6v-5.43zM768.98 1151.95v5.44h38.76v-5.45zM752.26 1151.95v5.44h9.7v-5.45zM783.07 1180.97v5.45h24.67v-5.45zM768.98 1195.5v5.42h38.76v-5.43zM752.26 1195.5v5.42h9.7v-5.43z" stroke="#000" stroke-opacity="0" stroke-width="3.77" fill="#fff"/><path d="M783.8 1187.2c0 2.1-1.65 3.8-3.68 3.8-2.04 0-3.7-1.7-3.7-3.8 0-2.1 1.66-3.82 3.7-3.82 2.03 0 3.7 1.7 3.7 3.8z" stroke="#000" stroke-opacity="0" stroke-width="3.77" fill="#326ce5"/><path d="M765.56 1170.78l6.65.08c2.5-10.6 14.5-8.62 15.87.3l6.53-.38c-2.1-17.37-26.2-19.9-28.72-1.85z" stroke="#000" stroke-opacity="0" stroke-width="3.77" fill="#fff"/><path d="M779.97 1155.92c-8.74 0-15.9 6.87-15.9 15.4 2.5-.04 7.92.1 8.78 0 0-3.45 3.12-6.35 7.12-6.35s7.13 2.9 7.13 6.34c1.52.07 7.92-.28 8.77 0 0-8.5-7.15-15.38-15.9-15.38zm0 1.8c7.48 0 13.2 5.7 13.77 12.7h-5.3c-.55-4.06-4.02-7.26-8.47-7.26-4.45 0-7.92 3.2-8.46 7.25h-5.27c.54-6.98 6.27-12.67 13.74-12.67z" stroke="#000" stroke-opacity="0" stroke-width="3.77" fill="#326ce5"/><path d="M760.88 1171.46h37.8v24.26h-37.8v-24.26z" stroke="#000" stroke-opacity="0" stroke-width="3.77" fill="#fff"/><path d="M760.57 1170.18v26.9h39.13v-26.9zm1.76 1.83h35.6v23.25h-35.6z" stroke="#000" stroke-opacity="0" stroke-width="3.77" fill="#326ce5"/><path d="M762.8 1223.57c0 .96-.35 1.7-1.06 2.23-.7.52-1.7.78-2.96.78-1.23 0-2.2-.2-2.86-.62-.66-.43-1.1-1.08-1.3-1.97l1.46-.3c.13.54.43.95.86 1.2.45.26 1.06.4 1.84.4.84 0 1.45-.15 1.83-.4.4-.28.6-.68.6-1.2 0-.4-.13-.74-.4-1-.27-.23-.7-.44-1.3-.6l-1.2-.33c-.93-.25-1.6-.5-2-.74-.4-.24-.72-.54-.94-.9-.23-.33-.35-.76-.35-1.26 0-.93.33-1.64.98-2.12.64-.5 1.6-.74 2.82-.74 1.1 0 1.96.2 2.6.6.65.4 1.06 1.04 1.23 1.9l-1.5.2c-.08-.45-.32-.8-.72-1.04-.4-.25-.93-.36-1.6-.36-.74 0-1.3.1-1.65.35-.35.23-.53.58-.53 1.05 0 .3.07.53.22.72.14.18.36.35.64.48.3.14.9.32 1.82.55.88.22 1.5.43 1.9.63.38.2.68.4.9.64.22.23.4.5.52.8.13.3.18.66.18 1.05zM766 1221.64c0 1.17.24 2.08.72 2.7.46.65 1.15.97 2.06.97.7 0 1.3-.14 1.72-.44.43-.3.72-.66.87-1.12l1.45.42c-.6 1.62-1.94 2.42-4.04 2.42-1.47 0-2.6-.44-3.36-1.35-.76-.9-1.14-2.24-1.14-4 0-1.7.38-3 1.14-3.9.77-.9 1.87-1.35 3.3-1.35 2.9 0 4.37 1.8 4.37 5.43v.24zm5.38-1.3c-.1-1.08-.35-1.87-.8-2.36-.44-.5-1.07-.74-1.9-.74-.8 0-1.43.28-1.9.83-.47.55-.7 1.3-.75 2.27zM776.45 1221.24c0 1.36.2 2.36.63 3.02.4.66 1.04.98 1.87.98.6 0 1.08-.16 1.47-.5.4-.32.65-.82.74-1.5l1.66.1c-.13 1-.53 1.78-1.22 2.36-.68.6-1.54.88-2.6.88-1.4 0-2.45-.44-3.18-1.34-.73-.92-1.1-2.23-1.1-3.97 0-1.72.37-3.03 1.1-3.93.74-.9 1.8-1.36 3.16-1.36 1.02 0 1.86.28 2.52.82.68.54 1.1 1.28 1.27 2.23l-1.7.13c-.08-.56-.3-1.02-.65-1.34-.35-.34-.84-.5-1.48-.5-.88 0-1.5.3-1.9.9-.4.6-.6 1.6-.6 3.02zM784.62 1226.4v-7.85c0-.72-.02-1.5-.05-2.38h1.55l.08 2.1h.03c.27-.9.57-1.5.9-1.8.36-.34.84-.5 1.46-.5.2 0 .43.04.66.1v1.56c-.22-.06-.5-.1-.88-.1-.68 0-1.2.3-1.57.93-.35.6-.53 1.46-.53 2.6v5.33zM792.12 1221.64c0 1.17.23 2.08.7 2.7.47.65 1.16.97 2.07.97.7 0 1.27-.14 1.7-.44.44-.3.73-.66.88-1.12l1.45.42c-.6 1.62-1.94 2.42-4.04 2.42-1.48 0-2.6-.44-3.37-1.35-.77-.9-1.14-2.24-1.14-4 0-1.7.36-3 1.13-3.9.77-.9 1.87-1.35 3.3-1.35 2.9 0 4.36 1.8 4.36 5.43v.24zm5.37-1.3c-.1-1.08-.37-1.87-.8-2.36-.45-.5-1.08-.74-1.9-.74-.8 0-1.44.28-1.9.83-.48.55-.73 1.3-.76 2.27zM805.12 1226.3c-.55.17-1.1.24-1.67.24-1.32 0-1.98-.77-1.98-2.3v-6.84h-1.15v-1.23h1.2l.5-2.3h1.1v2.3h1.83v1.23h-1.83v6.46c0 .5.07.83.23 1.04.15.2.43.3.8.3.23 0 .55-.05.97-.14z" stroke="#000" stroke-opacity="0" fill="#fff"/><path d="M783.82 1183.63c0 2.1-1.65 3.8-3.7 3.8-2.03 0-3.68-1.7-3.68-3.8 0-2.1 1.65-3.8 3.7-3.8 2.03 0 3.68 1.7 3.68 3.8z" stroke="#000" stroke-opacity="0" stroke-width="3.77" fill="#326ce5"/><use xlink:href="#i" transform="matrix(1,0,0,1,690,1249) translate(56.04938271604939 17.77777777777778)"/><use xlink:href="#h" transform="matrix(1,0,0,1,690,1249) translate(94.32098765432099 17.77777777777778)"/><use xlink:href="#c" transform="matrix(1,0,0,1,690,1249) translate(42.56172839506172 44.44444444444444)"/><path d="M539.66 883.17c-1.14.1-2.05.34-2.96.8l-39.44 19.43c-2.16 1.02-3.64 2.84-4.1 5.23l-9.77 43.76c-.47 2.04-.13 4.08 1 5.9.13.23.24.34.47.57l27.28 35c1.48 1.94 3.52 2.97 5.9 2.97h43.9c2.38 0 4.42-1.03 5.9-2.96l27.28-35c1.48-1.94 2.05-4.2 1.48-6.6l-9.77-43.65c-.45-2.4-1.93-4.2-4.1-5.23l-39.43-19.44c-1.25-.57-2.4-.9-3.64-.8z" stroke="#000" stroke-opacity="0" stroke-width="3.83" fill="#326ce5"/><path d="M539.64 880c-1.2.12-2.16.36-3.12.84l-41.64 20.52c-2.28 1.08-3.84 3-4.32 5.52l-10.32 46.2c-.48 2.16-.12 4.32 1.08 6.24.12.24.24.36.48.6l28.8 36.96c1.56 2.04 3.72 3.12 6.24 3.12h46.32c2.52 0 4.68-1.08 6.24-3.12l28.8-36.96c1.56-2.04 2.16-4.44 1.56-6.84l-10.32-46.2c-.48-2.52-2.04-4.44-4.32-5.52l-41.64-20.52c-1.32-.6-2.52-.96-3.84-.84zm0 3.24c1.32-.12 2.4.12 3.6.72l39.6 19.44c2.04 1.08 3.48 2.88 4.08 5.28l9.72 43.68c.48 2.4 0 4.56-1.44 6.48l-27.36 35.04c-1.44 1.92-3.48 3-5.88 3h-43.92c-2.4 0-4.44-1.08-5.88-3l-27.36-35.04c-.12-.12-.24-.36-.36-.6-1.2-1.8-1.56-3.72-1.08-5.88l9.72-43.68c.6-2.4 1.92-4.2 4.08-5.28l39.6-19.44c.96-.48 1.8-.72 2.88-.84z" stroke="#000" stroke-opacity="0" stroke-width="3.83" fill="#fff"/><path d="M542.13 926.47v5.43h25.6v-5.43zM528.98 911.95v5.44h38.76v-5.45zM512.26 911.95v5.44h9.7v-5.45zM543.07 940.97v5.45h24.67v-5.45zM528.98 955.5v5.42h38.76v-5.43zM512.26 955.5v5.42h9.7v-5.43z" stroke="#000" stroke-opacity="0" stroke-width="3.77" fill="#fff"/><path d="M543.8 947.2c0 2.1-1.65 3.8-3.68 3.8-2.04 0-3.7-1.7-3.7-3.8 0-2.1 1.66-3.82 3.7-3.82 2.03 0 3.7 1.7 3.7 3.8z" stroke="#000" stroke-opacity="0" stroke-width="3.77" fill="#326ce5"/><path d="M525.56 930.78l6.65.08c2.5-10.6 14.5-8.62 15.87.3l6.53-.38c-2.1-17.37-26.2-19.9-28.72-1.85z" stroke="#000" stroke-opacity="0" stroke-width="3.77" fill="#fff"/><path d="M539.97 915.92c-8.74 0-15.9 6.87-15.9 15.4 2.5-.04 7.92.1 8.78 0 0-3.45 3.12-6.35 7.12-6.35s7.13 2.9 7.13 6.34c1.52.07 7.92-.28 8.77 0 0-8.5-7.15-15.38-15.9-15.38zm0 1.8c7.48 0 13.2 5.7 13.77 12.7h-5.3c-.55-4.06-4.02-7.26-8.47-7.26-4.45 0-7.92 3.2-8.46 7.25h-5.27c.54-6.98 6.27-12.67 13.74-12.67z" stroke="#000" stroke-opacity="0" stroke-width="3.77" fill="#326ce5"/><path d="M520.88 931.46h37.8v24.26h-37.8v-24.26z" stroke="#000" stroke-opacity="0" stroke-width="3.77" fill="#fff"/><path d="M520.57 930.18v26.9h39.13v-26.9zm1.76 1.83h35.6v23.25h-35.6z" stroke="#000" stroke-opacity="0" stroke-width="3.77" fill="#326ce5"/><path d="M522.8 983.57c0 .96-.35 1.7-1.06 2.23-.7.52-1.7.78-2.96.78-1.23 0-2.2-.2-2.86-.62-.66-.43-1.1-1.08-1.3-1.97l1.46-.3c.13.54.43.95.86 1.2.45.26 1.06.4 1.84.4.84 0 1.45-.15 1.83-.4.4-.28.6-.68.6-1.2 0-.4-.13-.74-.4-1-.27-.23-.7-.44-1.3-.6l-1.2-.33c-.93-.25-1.6-.5-2-.74-.4-.24-.72-.54-.94-.9-.23-.33-.35-.76-.35-1.26 0-.93.33-1.64.98-2.12.64-.5 1.6-.74 2.82-.74 1.1 0 1.96.2 2.6.6.65.4 1.06 1.04 1.23 1.9l-1.5.2c-.08-.45-.32-.8-.72-1.04-.4-.25-.93-.36-1.6-.36-.74 0-1.3.1-1.65.35-.35.23-.53.58-.53 1.05 0 .3.07.53.22.72.14.18.36.35.64.48.3.14.9.32 1.82.55.88.22 1.5.43 1.9.63.38.2.68.4.9.64.22.23.4.5.52.8.13.3.18.66.18 1.05zM526 981.64c0 1.17.24 2.08.72 2.7.46.65 1.15.97 2.06.97.7 0 1.3-.14 1.72-.44.43-.3.72-.66.87-1.12l1.45.42c-.6 1.62-1.94 2.42-4.04 2.42-1.47 0-2.6-.44-3.36-1.35-.76-.9-1.14-2.24-1.14-4 0-1.7.38-3 1.14-3.9.77-.9 1.87-1.35 3.3-1.35 2.9 0 4.37 1.8 4.37 5.43v.24zm5.38-1.3c-.1-1.08-.35-1.87-.8-2.36-.44-.5-1.07-.74-1.9-.74-.8 0-1.43.28-1.9.83-.47.55-.7 1.3-.75 2.27zM536.45 981.24c0 1.36.2 2.36.63 3.02.4.66 1.04.98 1.87.98.6 0 1.08-.16 1.47-.5.4-.32.65-.82.74-1.5l1.66.1c-.13 1-.53 1.78-1.22 2.36-.68.6-1.54.88-2.6.88-1.4 0-2.45-.44-3.18-1.34-.73-.92-1.1-2.23-1.1-3.97 0-1.72.37-3.03 1.1-3.93.74-.9 1.8-1.36 3.16-1.36 1.02 0 1.86.28 2.52.82.68.54 1.1 1.28 1.27 2.23l-1.7.13c-.08-.56-.3-1.02-.65-1.34-.35-.34-.84-.5-1.48-.5-.88 0-1.5.3-1.9.9-.4.6-.6 1.6-.6 3.02zM544.62 986.4v-7.85c0-.72-.02-1.5-.05-2.38h1.55l.08 2.1h.03c.27-.9.57-1.5.9-1.8.36-.34.84-.5 1.46-.5.2 0 .43.04.66.1v1.56c-.22-.06-.5-.1-.88-.1-.68 0-1.2.3-1.57.93-.35.6-.53 1.46-.53 2.6v5.33zM552.12 981.64c0 1.17.23 2.08.7 2.7.47.65 1.16.97 2.07.97.7 0 1.27-.14 1.7-.44.44-.3.73-.66.88-1.12l1.45.42c-.6 1.62-1.94 2.42-4.04 2.42-1.48 0-2.6-.44-3.37-1.35-.77-.9-1.14-2.24-1.14-4 0-1.7.36-3 1.13-3.9.77-.9 1.87-1.35 3.3-1.35 2.9 0 4.36 1.8 4.36 5.43v.24zm5.37-1.3c-.1-1.08-.37-1.87-.8-2.36-.45-.5-1.08-.74-1.9-.74-.8 0-1.44.28-1.9.83-.48.55-.73 1.3-.76 2.27zM565.12 986.3c-.55.17-1.1.24-1.67.24-1.32 0-1.98-.77-1.98-2.3v-6.84h-1.15v-1.23h1.2l.5-2.3h1.1v2.3h1.83v1.23h-1.83v6.46c0 .5.07.83.23 1.04.15.2.43.3.8.3.23 0 .55-.05.97-.14z" stroke="#000" stroke-opacity="0" fill="#fff"/><path d="M543.82 943.63c0 2.1-1.65 3.8-3.7 3.8-2.03 0-3.68-1.7-3.68-3.8 0-2.1 1.65-3.8 3.7-3.8 2.03 0 3.68 1.7 3.68 3.8z" stroke="#000" stroke-opacity="0" stroke-width="3.77" fill="#326ce5"/><use xlink:href="#j" transform="matrix(1,0,0,1,450,1009) translate(39.44444444444446 17.77777777777778)"/><use xlink:href="#h" transform="matrix(1,0,0,1,450,1009) translate(110.92592592592592 17.77777777777778)"/><use xlink:href="#c" transform="matrix(1,0,0,1,450,1009) translate(42.56172839506172 44.44444444444444)"/><path d="M141 629.92l.47 2.92 1.28 2.47 1.94 1.95 2.46 1.28 2.92.47h18.14v2h-18.3l-3.4-.55-3.02-1.56-2.4-2.4-1.55-3.02-.55-3.4v-20.5h2M204.66 641h-18.22v-2h18.22M141 589.14h-2V548.3h2m0-20.44h-2V487h2m0-36.1h-2v-25.2h2m0-20.4h-2v-40.87h2m0-20.43h-2v-40.86h2m0-20.43h-2v-40.84h2m0-20.43h-2V201h2" fill="#5e5e5e"/><path d="M141 201.03h-2V200h2M219.93 640l-14.27 4.64v-9.28z" fill="#5e5e5e"/><path d="M223.16 640l-18.5 6v-12m2 9.26L216.7 640l-10.04-3.26" fill="#5e5e5e"/><use xlink:href="#f" transform="matrix(1,0,0,1,112.37037037037037,450.91421645021643) translate(0 14.222222222222223)"/><path d="M141 929.92l.47 2.92 1.28 2.47 1.94 1.95 2.46 1.28 2.92.47h20.9v2h-21.06l-3.4-.55-3.02-1.56-2.4-2.4-1.55-3.02-.55-3.4v-20.33h2M233.9 941h-41.95v-2h41.96m62.94 2H254.9v-2h41.94m62.93 2h-41.95v-2h41.95m62.94 2h-41.95v-2h41.96m41.96 2h-20.98v-2h20.98M141 889.5h-2V849h2m0-20.25h-2v-40.5h2m0-20.25h-2v-40.5h2m0-20.25h-2v-40.5h2m0-20.25h-2V606h2m0-20.25h-2v-40.5h2m0-20.25h-2v-40.5h2m0-33.6h-2v-27.15h2m0-20.25h-2V363h2m0-20.25h-2v-40.5h2m0-20.25h-2v-40.5h2m0-20.25h-2V201h2" fill="#5e5e5e"/><path d="M141 201.03h-2V200h2M479.93 940l-14.27 4.64v-9.28z" fill="#5e5e5e"/><path d="M483.16 940l-18.5 6v-12m2 9.26L476.7 940l-10.04-3.26M141 1171.15l.47 2.92 1.28 2.47 1.94 1.94 2.46 1.28 2.92.47h20.45v2h-20.6l-3.4-.55-3.03-1.57-2.4-2.37-1.55-3.03-.55-3.4V1151h2m91.13 31.23h-41.06v-2h41.06m61.6 2h-41.07v-2h41.07m61.6 2h-41.07v-2h41.07m61.6 2h-41.07v-2h41.07m61.6 2h-41.07v-2h41.06m61.6 2h-41.06v-2h41.06m61.6 2h-41.06v-2h41.06m61.6 2h-41.07v-2h41.07m41.07 2h-20.55v-2h20.54M141 1130.8h-2v-40.43h2m0-20.2h-2v-40.43h2m0-20.22h-2V969.1h2m0-20.22h-2v-40.42h2m0-20.22h-2v-40.42h2m0-20.22h-2v-40.42h2m0-20.2h-2v-40.44h2m0-20.2h-2V665.9h2m0-20.2h-2v-40.44h2m0-20.2h-2V544.6h2m0-20.2h-2v-40.44h2m0-33.07h-2v-27.56h2m0-20.2h-2V362.7h2m0-20.2h-2v-40.43h2m0-20.22h-2v-40.42h2m0-20.22h-2V201h2" fill="#5e5e5e"/><path d="M141 201.03h-2V200h2M719.65 1181.23l-14.26 4.63v-9.27z" fill="#5e5e5e"/><path d="M722.9 1181.23l-18.5 6v-12m2 9.26l10.02-3.27-10.03-3.26" fill="#5e5e5e"/><path d="M961 630.08l-.55 3.4-1.56 3.02-2.4 2.4-3.02 1.55-3.4.55H355.34v-2h594.58l2.92-.47 2.47-1.28 1.95-1.94 1.28-2.46.47-2.92V430.56h2m0-21.33h-2V201h2M354.34 644.64L340.07 640l14.27-4.64z" fill="#c92d39"/><path d="M355.34 646l-18.5-6 18.5-6m-12.03 6l10.04 3.26v-6.52M961 201.03h-2V200h2" fill="#c92d39"/><path d="M961 930.08l-.55 3.4-1.56 3.02-2.4 2.4-3.02 1.55-3.4.55H615.34v-2h334.58l2.92-.47 2.47-1.28 1.95-1.94 1.28-2.46.47-2.92V430.56h2m0-21.33h-2V201h2M614.34 944.64L600.07 940l14.27-4.64z" fill="#c92d39"/><path d="M615.34 946l-18.5-6 18.5-6m-12.03 6l10.04 3.26v-6.52M961 201.03h-2V200h2" fill="#c92d39"/><use xlink:href="#k" transform="matrix(1,0,0,1,936.8395061728395,409.2260595621704) translate(0 14.222222222222223)"/><path d="M961 1170.08l-.55 3.4-1.56 3.02-2.4 2.4-3.02 1.55-3.4.55h-94.74v-2h94.58l2.92-.47 2.47-1.28 1.95-1.94 1.28-2.46.47-2.92V430.56h2m0-21.33h-2V201h2M854.34 1184.64l-14.27-4.64 14.27-4.64z" fill="#c92d39"/><path d="M855.34 1186l-18.5-6 18.5-6m-12.03 6l10.04 3.26v-6.52M961 201.03h-2V200h2" fill="#c92d39"/><path d="M279.66 203.17c-1.14.1-2.05.34-2.96.8l-39.44 19.43c-2.16 1.02-3.64 2.84-4.1 5.23l-9.77 43.76c-.47 2.04-.13 4.08 1 5.9.13.23.24.34.47.57l27.28 35c1.48 1.94 3.52 2.97 5.9 2.97h43.9c2.38 0 4.42-1.03 5.9-2.96l27.28-35c1.48-1.94 2.05-4.2 1.48-6.6l-9.77-43.65c-.45-2.4-1.93-4.2-4.1-5.23l-39.43-19.44c-1.25-.57-2.4-.9-3.64-.8z" stroke="#000" stroke-opacity="0" stroke-width="3.83" fill="#326ce5"/><path d="M279.64 200c-1.2.12-2.16.36-3.12.84l-41.64 20.52c-2.28 1.08-3.84 3-4.32 5.52l-10.32 46.2c-.48 2.16-.12 4.32 1.08 6.24.12.24.24.36.48.6l28.8 36.96c1.56 2.04 3.72 3.12 6.24 3.12h46.32c2.52 0 4.68-1.08 6.24-3.12l28.8-36.96c1.56-2.04 2.16-4.44 1.56-6.84l-10.32-46.2c-.48-2.52-2.04-4.44-4.32-5.52l-41.64-20.52c-1.32-.6-2.52-.96-3.84-.84zm0 3.24c1.32-.12 2.4.12 3.6.72l39.6 19.44c2.04 1.08 3.48 2.88 4.08 5.28l9.72 43.68c.48 2.4 0 4.56-1.44 6.48l-27.36 35.04c-1.44 1.92-3.48 3-5.88 3h-43.92c-2.4 0-4.44-1.08-5.88-3l-27.36-35.04c-.12-.12-.24-.36-.36-.6-1.2-1.8-1.56-3.72-1.08-5.88l9.72-43.68c.6-2.4 1.92-4.2 4.08-5.28l39.6-19.44c.96-.48 1.8-.72 2.88-.84z" stroke="#000" stroke-opacity="0" stroke-width="3.83" fill="#fff"/><path d="M274.02 302.07c0 3.56-1.2 5.35-3.64 5.35-1.53 0-2.56-.6-3.08-1.8h-.05c.03.07.04.6.04 1.63v4h-1.66v-12.17c0-1.05-.02-1.74-.06-2.1h1.6l.02.3.05.7.02.66h.03c.3-.62.7-1.08 1.17-1.37.48-.3 1.1-.45 1.9-.45 1.23 0 2.14.42 2.74 1.27.62.83.92 2.15.92 3.97zm-1.73.03c0-1.42-.2-2.44-.56-3.05-.38-.62-.97-.92-1.78-.92-.66 0-1.17.15-1.54.43-.37.28-.65.73-.85 1.33-.2.58-.28 1.38-.28 2.33 0 1.35.2 2.33.6 2.97.43.63 1.1.95 2.04.95.82 0 1.4-.3 1.78-.92.38-.62.57-1.66.57-3.13zM284.48 302.1c0 1.8-.4 3.13-1.15 4-.76.88-1.88 1.32-3.33 1.32-1.45 0-2.54-.46-3.28-1.36-.74-.92-1.1-2.24-1.1-3.96 0-3.53 1.47-5.3 4.44-5.3 1.52 0 2.63.45 3.34 1.3.72.87 1.08 2.2 1.08 4zm-1.73 0c0-1.4-.22-2.43-.62-3.07-.4-.64-1.08-.95-2.04-.95-.98 0-1.68.3-2.1.97-.44.65-.66 1.67-.66 3.05 0 1.35.2 2.37.64 3.05.42.68 1.1 1 2 1 1 0 1.7-.3 2.12-.97.43-.66.65-1.7.65-3.08zM292.8 305.58c-.3.66-.7 1.12-1.22 1.4-.5.3-1.13.43-1.87.43-1.24 0-2.17-.43-2.76-1.3-.58-.86-.88-2.18-.88-3.94 0-3.57 1.22-5.35 3.65-5.35.76 0 1.38.16 1.9.44.5.28.9.74 1.2 1.35v-5.4h1.64v11.9c0 1.08.03 1.8.06 2.13h-1.58l-.06-.7c0-.37-.03-.68-.03-.95zm-5-3.48c0 1.44.18 2.46.54 3.07.37.62.96.94 1.8.94.93 0 1.6-.33 2.02-1 .43-.67.64-1.7.64-3.1 0-1.36-.2-2.36-.64-2.98-.42-.63-1.1-.96-2-.96-.84 0-1.44.33-1.82.97-.36.63-.55 1.65-.55 3.07z" stroke="#000" stroke-opacity="0" fill="#fff"/><path d="M255.92 240.2L280 233l24.1 7.2-24.1 7.2zM255.92 242.95v26.4l22.43 12.83.12-32.32zM304.08 242.95v26.4l-22.44 12.83-.1-32.32z" stroke="#000" stroke-opacity="0" stroke-width="3.77" fill="#fff"/><use xlink:href="#g" transform="matrix(1,0,0,1,190,329) translate(48.05555555555556 17.77777777777778)"/><use xlink:href="#l" transform="matrix(1,0,0,1,190,329) translate(82.56172839506172 17.77777777777778)"/><path d="M281 561.53h-2v-2h2m0-8.03h-2v-4h2m0-8.02h-2v-4h2m0-8.03h-2v-4h2m0-8.02h-2v-4h2m0-8.03h-2v-4h2m0-8.03h-2v-4h2m0-8.02h-2v-4h2m0-8.03h-2v-4h2m0-23.97h-2v-.1h2m0-8h-2v-4.02h2m0-8.02h-2v-4h2m0-8h-2v-4.02h2m0-8.02h-2v-4h2m0-8.02h-2v-4h2m0-8.03h-2v-4h2m0-8.02h-2v-4h2m0-8.02h-2v-4h2m0-8.03h-2v-4h2m0-8.03h-2v-2h2" fill="#5e5e5e"/><path d="M281 321.03h-2V320h2M280 576.8l-4.64-14.27h9.28z" fill="#5e5e5e"/><path d="M280 580.03l-6-18.5h12m-9.26 2l3.26 10.03 3.26-10.03" fill="#5e5e5e"/><use xlink:href="#m" transform="matrix(1,0,0,1,243.03703703703704,439.34739583333334) translate(0 14.222222222222223)"/><path d="M595.53 211.04h.85l-15.6 6.3-29.05 10.84-23.34 7.6-21.97 6.13-22.1 5.2-23.26 4.42-25.25 3.72-28.22 2.96-32.43 2.02-37.3.76-.04-2 37.26-.76 32.33-2.02 28.14-2.94 25.17-3.7 23.16-4.42 22.04-5.17 21.88-6.1 23.25-7.58 28.98-10.83 15.48-6.25m49.24-17.7v-1.8h-.85l17.7-7.16H667m217.7-41.18l-19.77.4-32.33 2.02-28.14 2.94-25.17 3.7-23.16 4.42-22.04 5.17-21.88 6.1-12.8 4.18v-2.1l12.23-3.97 21.97-6.14 22.1-5.2 23.26-4.42 25.25-3.72 28.22-2.96 32.43-2.02 19.8-.4" fill="#c92d39"/><path d="M337.9 260.98l-.84.02-.44-2 1.23-.02M899.93 140.07L885.76 145l-.2-9.28z" fill="#c92d39"/><path d="M903.16 140l-18.37 6.4-.26-12.03m2.2 9.22l9.95-3.47-10.1-3.05" fill="#c92d39"/><use xlink:href="#n" transform="matrix(1,0,0,1,595.532275903364,189.70675473515973) translate(0 14.222222222222223)"/><path d="M598.83 214.5l-5.8 5-5.33 5-4.9 5-4.54 5.04-4.2 5.07-3.88 5.13-3.6 5.17-3.33 5.25-3.1 5.34-2.83 5.44-2.63 5.58-2.4 5.7-2.2 5.9-1.98 6.08-1.75 6.3-1.54 6.56-1.3 6.84-1.06 7.17-.8 7.54-.5 7.97-.15 7.47-2-.04.16-7.5.5-8.06.8-7.62 1.07-7.25 1.32-6.93 1.56-6.63 1.78-6.37 2-6.17 2.23-5.96 2.44-5.8 2.65-5.65 2.9-5.52 3.12-5.4 3.37-5.33 3.66-5.25 3.93-5.18 4.24-5.13 4.6-5.1 4.96-5.08 5.4-5.06 5.85-5.05 2.4-1.9h3.23m46.97-28.5h1l-3.52 1.58-10.32 5.12-.82.46h-4.15l4.06-2.22 10.38-5.16 3.37-1.5m234.52-39.63l-5.66.05-42.45 1.75-35.72 2.98-30.23 3.8-25.77 4.35-22.14 4.7-19.17 4.9-4.14 1.25v-2.1l3.6-1.08 19.23-4.93 22.22-4.7 25.86-4.37 30.32-3.8 35.8-3 42.54-1.75 5.7-.06" fill="#c92d39"/><path d="M541.02 339.02l-.02 1.1-1.36-.12-.64.1.02-1.12M899.93 140.03l-14.22 4.8-.1-9.28z" fill="#c92d39"/><path d="M903.16 140l-18.44 6.2-.12-12.02m2.1 9.25l10-3.36-10.07-3.16" fill="#c92d39"/><use xlink:href="#n" transform="matrix(1,0,0,1,650.15333508582,161.23050870203897) translate(0 14.222222222222223)"/><path d="M782.5 300.16l-1.76 28.45.26 150.42h-2l-.26-150.47L780.5 300l1.24-11.92h2m101.1-145.9l-2.06.25-4.93.83-4.63 1-4.37 1.1-4.14 1.26-3.92 1.37-3.76 1.47-3.6 1.6-3.47 1.73-3.35 1.84-3.24 1.96-3.15 2.1-3.07 2.23-3 2.4-2.95 2.53-2.9 2.72-2.86 2.93-2.83 3.15-2.8 3.38-2.8 3.67-2.76 3.98-2.76 4.35-2.75 4.77-2.75 5.27-2.75 5.85-2.75 6.54-2.74 7.37-2.73 8.4-2.7 9.7-2.64 11.32-2.56 13.5-.6 4h-2l.63-4.34 2.58-13.57 2.68-11.4 2.72-9.77 2.75-8.48 2.77-7.46 2.78-6.62 2.78-5.92 2.8-5.34 2.8-4.84 2.8-4.42 2.8-4.06 2.84-3.73 2.86-3.46 2.88-3.2 2.92-2.98 2.96-2.8 3-2.6 3.08-2.42 3.14-2.28 3.23-2.15 3.3-2 3.42-1.87 3.55-1.76 3.67-1.64 3.84-1.52 4.02-1.4 4.2-1.26 4.46-1.14 4.7-1 5.03-.85 2.1-.26" fill="#c92d39"/><path d="M781 480.1l-1.36-.1-.64.1V479h2M899.93 140.2L886 145.75l-.6-9.25z" fill="#c92d39"/><path d="M903.16 140l-18.08 7.18-.77-12m2.6 9.13l9.8-3.9-10.2-2.6" fill="#c92d39"/><use xlink:href="#n" transform="matrix(1,0,0,1,759.3150932500637,266.75073398949473) translate(0 14.222222222222223)"/><path d="M539.66 343.17c-1.14.1-2.05.34-2.96.8l-39.44 19.43c-2.16 1.02-3.64 2.84-4.1 5.23l-9.77 43.76c-.47 2.04-.13 4.08 1 5.9.13.23.24.34.47.57l27.28 35c1.48 1.94 3.52 2.97 5.9 2.97h43.9c2.38 0 4.42-1.03 5.9-2.96l27.28-35c1.48-1.94 2.05-4.2 1.48-6.6l-9.77-43.65c-.45-2.4-1.93-4.2-4.1-5.23l-39.43-19.44c-1.25-.57-2.4-.9-3.64-.8z" stroke="#000" stroke-opacity="0" stroke-width="3.83" fill="#326ce5"/><path d="M539.64 340c-1.2.12-2.16.36-3.12.84l-41.64 20.52c-2.28 1.08-3.84 3-4.32 5.52l-10.32 46.2c-.48 2.16-.12 4.32 1.08 6.24.12.24.24.36.48.6l28.8 36.96c1.56 2.04 3.72 3.12 6.24 3.12h46.32c2.52 0 4.68-1.08 6.24-3.12l28.8-36.96c1.56-2.04 2.16-4.44 1.56-6.84l-10.32-46.2c-.48-2.52-2.04-4.44-4.32-5.52l-41.64-20.52c-1.32-.6-2.52-.96-3.84-.84zm0 3.24c1.32-.12 2.4.12 3.6.72l39.6 19.44c2.04 1.08 3.48 2.88 4.08 5.28l9.72 43.68c.48 2.4 0 4.56-1.44 6.48l-27.36 35.04c-1.44 1.92-3.48 3-5.88 3h-43.92c-2.4 0-4.44-1.08-5.88-3l-27.36-35.04c-.12-.12-.24-.36-.36-.6-1.2-1.8-1.56-3.72-1.08-5.88l9.72-43.68c.6-2.4 1.92-4.2 4.08-5.28l39.6-19.44c.96-.48 1.8-.72 2.88-.84z" stroke="#000" stroke-opacity="0" stroke-width="3.83" fill="#fff"/><path d="M534.02 442.07c0 3.56-1.2 5.35-3.64 5.35-1.53 0-2.56-.6-3.08-1.8h-.05c.03.07.04.6.04 1.63v4h-1.66v-12.17c0-1.05-.02-1.74-.06-2.1h1.6l.02.3.05.7.02.66h.03c.3-.62.7-1.08 1.17-1.37.48-.3 1.1-.45 1.9-.45 1.23 0 2.14.42 2.74 1.27.62.83.92 2.15.92 3.97zm-1.73.03c0-1.42-.2-2.44-.56-3.05-.38-.62-.97-.92-1.78-.92-.66 0-1.17.15-1.54.43-.37.28-.65.73-.85 1.33-.2.58-.28 1.38-.28 2.33 0 1.35.2 2.33.6 2.97.43.63 1.1.95 2.04.95.82 0 1.4-.3 1.78-.92.38-.62.57-1.66.57-3.13zM544.48 442.1c0 1.8-.4 3.13-1.15 4-.76.88-1.88 1.32-3.33 1.32-1.45 0-2.54-.46-3.28-1.36-.74-.92-1.1-2.24-1.1-3.96 0-3.53 1.47-5.3 4.44-5.3 1.52 0 2.63.45 3.34 1.3.72.87 1.08 2.2 1.08 4zm-1.73 0c0-1.4-.22-2.43-.62-3.07-.4-.64-1.08-.95-2.04-.95-.98 0-1.68.3-2.1.97-.44.65-.66 1.67-.66 3.05 0 1.35.2 2.37.64 3.05.42.68 1.1 1 2 1 1 0 1.7-.3 2.12-.97.43-.66.65-1.7.65-3.08zM552.8 445.58c-.3.66-.7 1.12-1.22 1.4-.5.3-1.13.43-1.87.43-1.24 0-2.17-.43-2.76-1.3-.58-.86-.88-2.18-.88-3.94 0-3.57 1.22-5.35 3.65-5.35.76 0 1.38.16 1.9.44.5.28.9.74 1.2 1.35v-5.4h1.64v11.9c0 1.08.03 1.8.06 2.13h-1.58l-.06-.7c0-.37-.03-.68-.03-.95zm-5-3.48c0 1.44.18 2.46.54 3.07.37.62.96.94 1.8.94.93 0 1.6-.33 2.02-1 .43-.67.64-1.7.64-3.1 0-1.36-.2-2.36-.64-2.98-.42-.63-1.1-.96-2-.96-.84 0-1.44.33-1.82.97-.36.63-.55 1.65-.55 3.07z" stroke="#000" stroke-opacity="0" fill="#fff"/><path d="M515.92 380.2L540 373l24.1 7.2-24.1 7.2zM515.92 382.95v26.4l22.43 12.83.12-32.32zM564.08 382.95v26.4l-22.44 12.83-.1-32.32z" stroke="#000" stroke-opacity="0" stroke-width="3.77" fill="#fff"/><use xlink:href="#o" transform="matrix(1,0,0,1,450,469) translate(61.60493827160494 17.77777777777778)"/><use xlink:href="#p" transform="matrix(1,0,0,1,450,469) translate(57.345679012345684 44.44444444444444)"/><path d="M541 861.53h-2v-2.03h2m0-8.1h-2v-4.03h2m0-8.1h-2v-4.04h2m0-8.1h-2v-4.04h2m0-8.1h-2v-4.05h2m0-8.1h-2v-4.03h2m0-8.1h-2v-4.04h2m0-8.1h-2v-4.04h2m0-8.1h-2v-4.03h2m0-8.1h-2v-4.03h2m0-8.1h-2v-4.04h2m0-8.1h-2V726h2m0-8.1h-2v-4.04h2m0-8.1h-2v-4.04h2m0-8.1h-2v-4.04h2m0-8.1h-2v-4.03h2m0-8.1h-2v-4.04h2m0-8.08h-2v-4.05h2m0-8.1h-2v-4.04h2m0-8.1h-2v-4.03h2m0-8.1h-2v-4.04h2m0-8.1h-2v-4.04h2m0-8.1h-2v-4.03h2m0-8.1h-2v-4.05h2m0-8.1h-2v-4.04h2m0-23.67h-2v-.6h2m0-8.08h-2v-4.05h2m0-8.1h-2v-4.04h2m0-8.1h-2v-4.03h2m0-8.1h-2v-4.04h2m0-8.1h-2v-4.05h2m0-8.1h-2v-4.04h2m0-8.08h-2V461h2" fill="#5e5e5e"/><path d="M541 461.03h-2V460h2M540 876.8l-4.64-14.27h9.28z" fill="#5e5e5e"/><path d="M540 880.03l-6-18.5h12m-9.26 2l3.26 10.03 3.26-10.03" fill="#5e5e5e"/><use xlink:href="#m" transform="matrix(1,0,0,1,503.03703703703707,544.5330146057439) translate(0 14.222222222222223)"/><path d="M779.66 483.17c-1.14.1-2.05.34-2.96.8l-39.44 19.43c-2.16 1.02-3.64 2.84-4.1 5.23l-9.77 43.76c-.47 2.04-.13 4.08 1 5.9.13.23.24.34.47.57l27.28 35c1.48 1.94 3.52 2.97 5.9 2.97h43.9c2.38 0 4.42-1.03 5.9-2.96l27.28-35c1.48-1.94 2.05-4.2 1.48-6.6l-9.77-43.65c-.45-2.4-1.93-4.2-4.1-5.23l-39.43-19.44c-1.25-.57-2.4-.9-3.64-.8z" stroke="#000" stroke-opacity="0" stroke-width="3.83" fill="#326ce5"/><path d="M779.64 480c-1.2.12-2.16.36-3.12.84l-41.64 20.52c-2.28 1.08-3.84 3-4.32 5.52l-10.32 46.2c-.48 2.16-.12 4.32 1.08 6.24.12.24.24.36.48.6l28.8 36.96c1.56 2.04 3.72 3.12 6.24 3.12h46.32c2.52 0 4.68-1.08 6.24-3.12l28.8-36.96c1.56-2.04 2.16-4.44 1.56-6.84l-10.32-46.2c-.48-2.52-2.04-4.44-4.32-5.52l-41.64-20.52c-1.32-.6-2.52-.96-3.84-.84zm0 3.24c1.32-.12 2.4.12 3.6.72l39.6 19.44c2.04 1.08 3.48 2.88 4.08 5.28l9.72 43.68c.48 2.4 0 4.56-1.44 6.48l-27.36 35.04c-1.44 1.92-3.48 3-5.88 3h-43.92c-2.4 0-4.44-1.08-5.88-3l-27.36-35.04c-.12-.12-.24-.36-.36-.6-1.2-1.8-1.56-3.72-1.08-5.88l9.72-43.68c.6-2.4 1.92-4.2 4.08-5.28l39.6-19.44c.96-.48 1.8-.72 2.88-.84z" stroke="#000" stroke-opacity="0" stroke-width="3.83" fill="#fff"/><path d="M774.02 582.07c0 3.56-1.2 5.35-3.64 5.35-1.53 0-2.56-.6-3.08-1.8h-.05c.03.07.04.6.04 1.63v4h-1.66v-12.17c0-1.05-.02-1.74-.06-2.1h1.6l.02.3.05.7.02.66h.03c.3-.62.7-1.08 1.17-1.37.48-.3 1.1-.45 1.9-.45 1.23 0 2.14.42 2.74 1.27.62.83.92 2.15.92 3.97zm-1.73.03c0-1.42-.2-2.44-.56-3.05-.38-.62-.97-.92-1.78-.92-.66 0-1.17.15-1.54.43-.37.28-.65.73-.85 1.33-.2.58-.28 1.38-.28 2.33 0 1.35.2 2.33.6 2.97.43.63 1.1.95 2.04.95.82 0 1.4-.3 1.78-.92.38-.62.57-1.66.57-3.13zM784.48 582.1c0 1.8-.4 3.13-1.15 4-.76.88-1.88 1.32-3.33 1.32-1.45 0-2.54-.46-3.28-1.36-.74-.92-1.1-2.24-1.1-3.96 0-3.53 1.47-5.3 4.44-5.3 1.52 0 2.63.45 3.34 1.3.72.87 1.08 2.2 1.08 4zm-1.73 0c0-1.4-.22-2.43-.62-3.07-.4-.64-1.08-.95-2.04-.95-.98 0-1.68.3-2.1.97-.44.65-.66 1.67-.66 3.05 0 1.35.2 2.37.64 3.05.42.68 1.1 1 2 1 1 0 1.7-.3 2.12-.97.43-.66.65-1.7.65-3.08zM792.8 585.58c-.3.66-.7 1.12-1.22 1.4-.5.3-1.13.43-1.87.43-1.24 0-2.17-.43-2.76-1.3-.58-.86-.88-2.18-.88-3.94 0-3.57 1.22-5.35 3.65-5.35.76 0 1.38.16 1.9.44.5.28.9.74 1.2 1.35v-5.4h1.64v11.9c0 1.08.03 1.8.06 2.13h-1.58l-.06-.7c0-.37-.03-.68-.03-.95zm-5-3.48c0 1.44.18 2.46.54 3.07.37.62.96.94 1.8.94.93 0 1.6-.33 2.02-1 .43-.67.64-1.7.64-3.1 0-1.36-.2-2.36-.64-2.98-.42-.63-1.1-.96-2-.96-.84 0-1.44.33-1.82.97-.36.63-.55 1.65-.55 3.07z" stroke="#000" stroke-opacity="0" fill="#fff"/><path d="M755.92 520.2L780 513l24.1 7.2-24.1 7.2zM755.92 522.95v26.4l22.43 12.83.12-32.32zM804.08 522.95v26.4l-22.44 12.83-.1-32.32z" stroke="#000" stroke-opacity="0" stroke-width="3.77" fill="#fff"/><g><use xlink:href="#q" transform="matrix(1,0,0,1,690,609) translate(73.95061728395062 17.77777777777778)"/></g><path d="M781 1101.53h-2v-2h2m0-7.93h-2v-3.98h2m0-7.94h-2v-3.97h2m0-7.94h-2v-3.97h2m0-7.96h-2v-3.97h2m0-7.94h-2v-3.98h2m0-7.94h-2v-3.96h2m0-7.95h-2v-3.98h2m0-7.95h-2v-3.97h2m0-7.94h-2v-3.98h2m0-7.94h-2v-3.97h2m0-7.95h-2v-3.97h2m0-7.95h-2v-3.97h2m0-7.94h-2v-3.98h2m0-7.95h-2v-3.97h2m0-7.95h-2v-3.97h2m0-7.94h-2v-3.98h2m0-7.94h-2v-3.97h2m0-7.95h-2v-3.97h2m0-7.95h-2v-3.97h2m0-23.75h-2v-.07h2m0-7.95h-2v-3.97h2m0-7.95h-2v-3.96h2m0-7.94h-2v-3.97h2m0-7.95h-2v-3.97h2m0-7.94h-2v-3.97h2m0-7.95h-2v-3.98h2m0-7.94h-2v-3.97h2m0-7.95h-2v-3.96h2m0-7.95h-2V742h2m0-7.94h-2v-3.98h2m0-7.94h-2v-3.97h2m0-7.96h-2v-3.97h2m0-7.95h-2v-3.97h2m0-7.94h-2v-3.97h2m0-7.94h-2v-3.98h2m0-7.95h-2v-3.97h2m0-7.94h-2v-3.98h2m0-7.94h-2v-3.97h2m0-7.95h-2v-3.97h2m0-7.95h-2v-3.97h2m0-7.94h-2v-2h2" fill="#5e5e5e"/><path d="M781 601.03h-2V600h2M780 1116.8l-4.64-14.27h9.28z" fill="#5e5e5e"/><path d="M780 1120.03l-6-18.5h12m-9.26 2l3.26 10.03 3.26-10.03" fill="#5e5e5e"/><g><use xlink:href="#m" transform="matrix(1,0,0,1,743.0370370370371,849.3473958333334) translate(0 14.222222222222223)"/></g><defs><path fill="#333" d="M96-169c-40 0-48 33-48 73s9 75 48 75c24 0 41-14 43-38l32 2c-6 37-31 61-74 61-59 0-76-41-82-99-10-93 101-131 147-64 4 7 5 14 7 22l-32 3c-4-21-16-35-41-35" id="r"/><path fill="#333" d="M24 0v-261h32V0H24" id="s"/><path fill="#333" d="M84 4C-5 8 30-112 23-190h32v120c0 31 7 50 39 49 72-2 45-101 50-169h31l1 190h-30c-1-10 1-25-2-33-11 22-28 36-60 37" id="t"/><path fill="#333" d="M135-143c-3-34-86-38-87 0 15 53 115 12 119 90S17 21 10-45l28-5c4 36 97 45 98 0-10-56-113-15-118-90-4-57 82-63 122-42 12 7 21 19 24 35" id="u"/><path fill="#333" d="M59-47c-2 24 18 29 38 22v24C64 9 27 4 27-40v-127H5v-23h24l9-43h21v43h35v23H59v120" id="v"/><path fill="#333" d="M100-194c63 0 86 42 84 106H49c0 40 14 67 53 68 26 1 43-12 49-29l28 8c-11 28-37 45-77 45C44 4 14-33 15-96c1-61 26-98 85-98zm52 81c6-60-76-77-97-28-3 7-6 17-6 28h103" id="w"/><path fill="#333" d="M114-163C36-179 61-72 57 0H25l-1-190h30c1 12-1 29 2 39 6-27 23-49 58-41v29" id="x"/><g id="a"><use transform="matrix(0.06172839506172839,0,0,0.06172839506172839,0,0)" xlink:href="#r"/><use transform="matrix(0.06172839506172839,0,0,0.06172839506172839,11.11111111111111,0)" xlink:href="#s"/><use transform="matrix(0.06172839506172839,0,0,0.06172839506172839,15.987654320987653,0)" xlink:href="#t"/><use transform="matrix(0.06172839506172839,0,0,0.06172839506172839,28.333333333333332,0)" xlink:href="#u"/><use transform="matrix(0.06172839506172839,0,0,0.06172839506172839,39.44444444444444,0)" xlink:href="#v"/><use transform="matrix(0.06172839506172839,0,0,0.06172839506172839,45.617283950617285,0)" xlink:href="#w"/><use transform="matrix(0.06172839506172839,0,0,0.06172839506172839,57.96296296296296,0)" xlink:href="#x"/></g><path fill="#333" d="M212-179c-10-28-35-45-73-45-59 0-87 40-87 99 0 60 29 101 89 101 43 0 62-24 78-52l27 14C228-24 195 4 139 4 59 4 22-46 18-125c-6-104 99-153 187-111 19 9 31 26 39 46" id="y"/><path fill="#333" d="M205 0l-28-72H64L36 0H1l101-248h38L239 0h-34zm-38-99l-47-123c-12 45-31 82-46 123h93" id="z"/><g id="b"><use transform="matrix(0.06172839506172839,0,0,0.06172839506172839,0,0)" xlink:href="#y"/><use transform="matrix(0.06172839506172839,0,0,0.06172839506172839,15.987654320987653,0)" xlink:href="#z"/></g><path fill="#333" d="M24-231v-30h32v30H24zM24 0v-190h32V0H24" id="A"/><path fill="#333" d="M101-234c-31-9-42 10-38 44h38v23H63V0H32v-167H5v-23h27c-7-52 17-82 69-68v24" id="B"/><path fill="#333" d="M141-36C126-15 110 5 73 4 37 3 15-17 15-53c-1-64 63-63 125-63 3-35-9-54-41-54-24 1-41 7-42 31l-33-3c5-37 33-52 76-52 45 0 72 20 72 64v82c-1 20 7 32 28 27v20c-31 9-61-2-59-35zM48-53c0 20 12 33 32 33 41-3 63-29 60-74-43 2-92-5-92 41" id="C"/><g id="c"><use transform="matrix(0.06172839506172839,0,0,0.06172839506172839,0,0)" xlink:href="#r"/><use transform="matrix(0.06172839506172839,0,0,0.06172839506172839,11.11111111111111,0)" xlink:href="#w"/><use transform="matrix(0.06172839506172839,0,0,0.06172839506172839,23.45679012345679,0)" xlink:href="#x"/><use transform="matrix(0.06172839506172839,0,0,0.06172839506172839,30.80246913580247,0)" xlink:href="#v"/><use transform="matrix(0.06172839506172839,0,0,0.06172839506172839,36.97530864197531,0)" xlink:href="#A"/><use transform="matrix(0.06172839506172839,0,0,0.06172839506172839,41.851851851851855,0)" xlink:href="#B"/><use transform="matrix(0.06172839506172839,0,0,0.06172839506172839,48.0246913580247,0)" xlink:href="#A"/><use transform="matrix(0.06172839506172839,0,0,0.06172839506172839,52.90123456790124,0)" xlink:href="#r"/><use transform="matrix(0.06172839506172839,0,0,0.06172839506172839,64.01234567901236,0)" xlink:href="#C"/><use transform="matrix(0.06172839506172839,0,0,0.06172839506172839,76.35802469135804,0)" xlink:href="#v"/><use transform="matrix(0.06172839506172839,0,0,0.06172839506172839,82.53086419753087,0)" xlink:href="#w"/></g><g id="d"><use transform="matrix(0.06172839506172839,0,0,0.06172839506172839,0,0)" xlink:href="#y"/><use transform="matrix(0.06172839506172839,0,0,0.06172839506172839,15.987654320987653,0)" xlink:href="#s"/><use transform="matrix(0.06172839506172839,0,0,0.06172839506172839,20.864197530864196,0)" xlink:href="#t"/><use transform="matrix(0.06172839506172839,0,0,0.06172839506172839,33.20987654320987,0)" xlink:href="#u"/><use transform="matrix(0.06172839506172839,0,0,0.06172839506172839,44.32098765432099,0)" xlink:href="#v"/><use transform="matrix(0.06172839506172839,0,0,0.06172839506172839,50.49382716049383,0)" xlink:href="#w"/><use transform="matrix(0.06172839506172839,0,0,0.06172839506172839,62.839506172839506,0)" xlink:href="#x"/></g><path fill="#333" d="M140-251c81 0 123 46 123 126C263-46 219 4 140 4 59 4 17-45 17-125s42-126 123-126zm0 227c63 0 89-41 89-101s-29-99-89-99c-61 0-89 39-89 99S79-25 140-24" id="D"/><path fill="#333" d="M115-194c55 1 70 41 70 98S169 2 115 4C84 4 66-9 55-30l1 105H24l-1-265h31l2 30c10-21 28-34 59-34zm-8 174c40 0 45-34 45-75s-6-73-45-74c-42 0-51 32-51 76 0 43 10 73 51 73" id="E"/><path fill="#333" d="M100-194c62-1 85 37 85 99 1 63-27 99-86 99S16-35 15-95c0-66 28-99 85-99zM99-20c44 1 53-31 53-75 0-43-8-75-51-75s-53 32-53 75 10 74 51 75" id="F"/><g id="e"><use transform="matrix(0.06172839506172839,0,0,0.06172839506172839,0,0)" xlink:href="#D"/><use transform="matrix(0.06172839506172839,0,0,0.06172839506172839,17.28395061728395,0)" xlink:href="#E"/><use transform="matrix(0.06172839506172839,0,0,0.06172839506172839,29.629629629629626,0)" xlink:href="#w"/><use transform="matrix(0.06172839506172839,0,0,0.06172839506172839,41.9753086419753,0)" xlink:href="#x"/><use transform="matrix(0.06172839506172839,0,0,0.06172839506172839,49.32098765432098,0)" xlink:href="#C"/><use transform="matrix(0.06172839506172839,0,0,0.06172839506172839,61.66666666666666,0)" xlink:href="#v"/><use transform="matrix(0.06172839506172839,0,0,0.06172839506172839,67.83950617283949,0)" xlink:href="#F"/><use transform="matrix(0.06172839506172839,0,0,0.06172839506172839,80.18518518518518,0)" xlink:href="#x"/></g><path fill="#333" d="M25-224v-37h50v37H25zM25 0v-190h50V0H25" id="G"/><path fill="#333" d="M137-138c1-29-70-34-71-4 15 46 118 7 119 86 1 83-164 76-172 9l43-7c4 19 20 25 44 25 33 8 57-30 24-41C81-84 22-81 20-136c-2-80 154-74 161-7" id="H"/><path fill="#333" d="M85 4C-2 5 27-109 22-190h50c7 57-23 150 33 157 60-5 35-97 40-157h50l1 190h-47c-2-12 1-28-3-38-12 25-28 42-61 42" id="I"/><path fill="#333" d="M185-48c-13 30-37 53-82 52C43 2 14-33 14-96s30-98 90-98c62 0 83 45 84 108H66c0 31 8 55 39 56 18 0 30-7 34-22zm-45-69c5-46-57-63-70-21-2 6-4 13-4 21h74" id="J"/><g id="f"><use transform="matrix(0.04938271604938272,0,0,0.04938271604938272,0,0)" xlink:href="#G"/><use transform="matrix(0.04938271604938272,0,0,0.04938271604938272,4.938271604938272,0)" xlink:href="#H"/><use transform="matrix(0.04938271604938272,0,0,0.04938271604938272,14.814814814814817,0)" xlink:href="#H"/><use transform="matrix(0.04938271604938272,0,0,0.04938271604938272,24.69135802469136,0)" xlink:href="#I"/><use transform="matrix(0.04938271604938272,0,0,0.04938271604938272,35.50617283950618,0)" xlink:href="#J"/><use transform="matrix(0.04938271604938272,0,0,0.04938271604938272,45.38271604938272,0)" xlink:href="#H"/></g><path fill="#333" d="M209 0H11v-25l151-195H24v-28h176v25L50-27h159V0" id="K"/><path fill="#333" d="M194 0L95-120 63-95V0H30v-248h33v124l119-124h40L117-140 236 0h-42" id="L"/><g id="g"><use transform="matrix(0.06172839506172839,0,0,0.06172839506172839,0,0)" xlink:href="#K"/><use transform="matrix(0.06172839506172839,0,0,0.06172839506172839,13.518518518518517,0)" xlink:href="#L"/></g><path fill="#333" d="M30 0v-248h187v28H63v79h144v27H63v87h162V0H30" id="M"/><g id="h"><use transform="matrix(0.06172839506172839,0,0,0.06172839506172839,0,0)" xlink:href="#M"/><use transform="matrix(0.06172839506172839,0,0,0.06172839506172839,14.814814814814813,0)" xlink:href="#M"/></g><g id="i"><use transform="matrix(0.06172839506172839,0,0,0.06172839506172839,0,0)" xlink:href="#M"/><use transform="matrix(0.06172839506172839,0,0,0.06172839506172839,14.814814814814813,0)" xlink:href="#D"/></g><path fill="#333" d="M160-131c35 5 61 23 61 61C221 17 115-2 30 0v-248c76 3 177-17 177 60 0 33-19 50-47 57zm-97-11c50-1 110 9 110-42 0-47-63-36-110-37v79zm0 115c55-2 124 14 124-45 0-56-70-42-124-44v89" id="N"/><path fill="#333" d="M143 0L79-87 56-68V0H24v-261h32v163l83-92h37l-77 82L181 0h-38" id="O"/><g id="j"><use transform="matrix(0.06172839506172839,0,0,0.06172839506172839,0,0)" xlink:href="#N"/><use transform="matrix(0.06172839506172839,0,0,0.06172839506172839,14.814814814814813,0)" xlink:href="#x"/><use transform="matrix(0.06172839506172839,0,0,0.06172839506172839,22.160493827160494,0)" xlink:href="#F"/><use transform="matrix(0.06172839506172839,0,0,0.06172839506172839,34.50617283950617,0)" xlink:href="#O"/><use transform="matrix(0.06172839506172839,0,0,0.06172839506172839,45.61728395061728,0)" xlink:href="#w"/><use transform="matrix(0.06172839506172839,0,0,0.06172839506172839,57.962962962962955,0)" xlink:href="#x"/></g><path fill="#333" d="M195-6C206 82 75 100 31 46c-4-6-6-13-8-21l49-6c3 16 16 24 34 25 40 0 42-37 40-79-11 22-30 35-61 35-53 0-70-43-70-97 0-56 18-96 73-97 30 0 46 14 59 34l2-30h47zm-90-29c32 0 41-27 41-63 0-35-9-62-40-62-32 0-39 29-40 63 0 36 9 62 39 62" id="P"/><path fill="#333" d="M135-194c87-1 58 113 63 194h-50c-7-57 23-157-34-157-59 0-34 97-39 157H25l-1-190h47c2 12-1 28 3 38 12-26 28-41 61-42" id="Q"/><g id="k"><use transform="matrix(0.04938271604938272,0,0,0.04938271604938272,0,0)" xlink:href="#H"/><use transform="matrix(0.04938271604938272,0,0,0.04938271604938272,9.876543209876544,0)" xlink:href="#G"/><use transform="matrix(0.04938271604938272,0,0,0.04938271604938272,14.814814814814817,0)" xlink:href="#P"/><use transform="matrix(0.04938271604938272,0,0,0.04938271604938272,25.629629629629633,0)" xlink:href="#Q"/><use transform="matrix(0.04938271604938272,0,0,0.04938271604938272,36.44444444444445,0)" xlink:href="#H"/></g><path fill="#333" d="M117-194c89-4 53 116 60 194h-32v-121c0-31-8-49-39-48C34-167 62-67 57 0H25l-1-190h30c1 10-1 24 2 32 11-22 29-35 61-36" id="R"/><path fill="#333" d="M85-194c31 0 48 13 60 33l-1-100h32l1 261h-30c-2-10 0-23-3-31C134-8 116 4 85 4 32 4 16-35 15-94c0-66 23-100 70-100zm9 24c-40 0-46 34-46 75 0 40 6 74 45 74 42 0 51-32 51-76 0-42-9-74-50-73" id="S"/><g id="l"><use transform="matrix(0.06172839506172839,0,0,0.06172839506172839,0,0)" xlink:href="#R"/><use transform="matrix(0.06172839506172839,0,0,0.06172839506172839,12.345679012345679,0)" xlink:href="#F"/><use transform="matrix(0.06172839506172839,0,0,0.06172839506172839,24.691358024691358,0)" xlink:href="#S"/><use transform="matrix(0.06172839506172839,0,0,0.06172839506172839,37.03703703703704,0)" xlink:href="#w"/></g><path fill="#333" d="M135-194c53 0 70 44 70 98 0 56-19 98-73 100-31 1-45-17-59-34 3 33 2 69 2 105H25l-1-265h48c2 10 0 23 3 31 11-24 29-35 60-35zM114-30c33 0 39-31 40-66 0-38-9-64-40-64-56 0-55 130 0 130" id="T"/><path fill="#333" d="M135-150c-39-12-60 13-60 57V0H25l-1-190h47c2 13-1 29 3 40 6-28 27-53 61-41v41" id="U"/><path fill="#333" d="M115-3C79 11 28 4 28-45v-112H4v-33h27l15-45h31v45h36v33H77v99c-1 23 16 31 38 25v30" id="V"/><g id="m"><use transform="matrix(0.04938271604938272,0,0,0.04938271604938272,0,0)" xlink:href="#T"/><use transform="matrix(0.04938271604938272,0,0,0.04938271604938272,10.814814814814815,0)" xlink:href="#U"/><use transform="matrix(0.04938271604938272,0,0,0.04938271604938272,17.728395061728396,0)" xlink:href="#J"/><use transform="matrix(0.04938271604938272,0,0,0.04938271604938272,27.60493827160494,0)" xlink:href="#H"/><use transform="matrix(0.04938271604938272,0,0,0.04938271604938272,37.48148148148148,0)" xlink:href="#J"/><use transform="matrix(0.04938271604938272,0,0,0.04938271604938272,47.358024691358025,0)" xlink:href="#Q"/><use transform="matrix(0.04938271604938272,0,0,0.04938271604938272,58.17283950617284,0)" xlink:href="#V"/><use transform="matrix(0.04938271604938272,0,0,0.04938271604938272,64.04938271604938,0)" xlink:href="#H"/></g><g id="n"><use transform="matrix(0.04938271604938272,0,0,0.04938271604938272,0,0)" xlink:href="#V"/><use transform="matrix(0.04938271604938272,0,0,0.04938271604938272,5.8765432098765435,0)" xlink:href="#U"/><use transform="matrix(0.04938271604938272,0,0,0.04938271604938272,12.790123456790125,0)" xlink:href="#I"/><use transform="matrix(0.04938271604938272,0,0,0.04938271604938272,23.604938271604937,0)" xlink:href="#H"/><use transform="matrix(0.04938271604938272,0,0,0.04938271604938272,33.48148148148148,0)" xlink:href="#V"/><use transform="matrix(0.04938271604938272,0,0,0.04938271604938272,39.358024691358025,0)" xlink:href="#H"/></g><g id="o"><use transform="matrix(0.06172839506172839,0,0,0.06172839506172839,0,0)" xlink:href="#L"/><use transform="matrix(0.06172839506172839,0,0,0.06172839506172839,14.814814814814813,0)" xlink:href="#C"/><use transform="matrix(0.06172839506172839,0,0,0.06172839506172839,27.160493827160494,0)" xlink:href="#B"/><use transform="matrix(0.06172839506172839,0,0,0.06172839506172839,33.333333333333336,0)" xlink:href="#O"/><use transform="matrix(0.06172839506172839,0,0,0.06172839506172839,44.44444444444444,0)" xlink:href="#C"/></g><g id="p"><use transform="matrix(0.06172839506172839,0,0,0.06172839506172839,0,0)" xlink:href="#N"/><use transform="matrix(0.06172839506172839,0,0,0.06172839506172839,14.814814814814813,0)" xlink:href="#x"/><use transform="matrix(0.06172839506172839,0,0,0.06172839506172839,22.160493827160494,0)" xlink:href="#F"/><use transform="matrix(0.06172839506172839,0,0,0.06172839506172839,34.50617283950617,0)" xlink:href="#O"/><use transform="matrix(0.06172839506172839,0,0,0.06172839506172839,45.61728395061728,0)" xlink:href="#w"/><use transform="matrix(0.06172839506172839,0,0,0.06172839506172839,57.962962962962955,0)" xlink:href="#x"/></g><g id="q"><use transform="matrix(0.06172839506172839,0,0,0.06172839506172839,0,0)" xlink:href="#M"/><use transform="matrix(0.06172839506172839,0,0,0.06172839506172839,14.814814814814813,0)" xlink:href="#D"/></g></defs></g></svg>