<svg xmlns="http://www.w3.org/2000/svg" xmlns:xlink="http://www.w3.org/1999/xlink" xmlns:lucid="lucid" width="1020" height="820.67"><g transform="translate(-140 -520)" lucid:page-tab-id="0_0"><path d="M0 0h1870.87v1322.83H0z" fill="#fff"/><path d="M219.66 543.17c-1.14.1-2.05.34-2.96.8l-39.44 19.43c-2.16 1.02-3.64 2.84-4.1 5.23l-9.77 43.76c-.47 2.04-.13 4.08 1 5.9.13.23.24.34.47.57l27.28 35c1.48 1.94 3.52 2.97 5.9 2.97h43.9c2.38 0 4.42-1.03 5.9-2.96l27.28-35c1.48-1.94 2.05-4.2 1.48-6.6l-9.77-43.65c-.45-2.4-1.93-4.2-4.1-5.23l-39.43-19.44c-1.25-.57-2.4-.9-3.64-.8z" stroke="#000" stroke-opacity="0" stroke-width="3.83" fill="#326ce5"/><path d="M219.64 540c-1.2.12-2.16.36-3.12.84l-41.64 20.52c-2.28 1.08-3.84 3-4.32 5.52l-10.32 46.2c-.48 2.16-.12 4.32 1.08 6.24.12.24.24.36.48.6l28.8 36.96c1.56 2.04 3.72 3.12 6.24 3.12h46.32c2.52 0 4.68-1.08 6.24-3.12l28.8-36.96c1.56-2.04 2.16-4.44 1.56-6.84l-10.32-46.2c-.48-2.52-2.04-4.44-4.32-5.52l-41.64-20.52c-1.32-.6-2.52-.96-3.84-.84zm0 3.24c1.32-.12 2.4.12 3.6.72l39.6 19.44c2.04 1.08 3.48 2.88 4.08 5.28l9.72 43.68c.48 2.4 0 4.56-1.44 6.48l-27.36 35.04c-1.44 1.92-3.48 3-5.88 3h-43.92c-2.4 0-4.44-1.08-5.88-3l-27.36-35.04c-.12-.12-.24-.36-.36-.6-1.2-1.8-1.56-3.72-1.08-5.88l9.72-43.68c.6-2.4 1.92-4.2 4.08-5.28l39.6-19.44c.96-.48 1.8-.72 2.88-.84z" stroke="#000" stroke-opacity="0" stroke-width="3.83" fill="#fff"/><path d="M214.02 642.07c0 3.56-1.2 5.35-3.64 5.35-1.53 0-2.56-.6-3.08-1.8h-.05c.03.07.04.6.04 1.63v4h-1.66v-12.17c0-1.05-.02-1.74-.06-2.1h1.6l.02.3.05.7.02.66h.03c.3-.62.7-1.08 1.17-1.37.48-.3 1.1-.45 1.9-.45 1.23 0 2.14.42 2.74 1.27.62.83.92 2.15.92 3.97zm-1.73.03c0-1.42-.2-2.44-.56-3.05-.38-.62-.97-.92-1.78-.92-.66 0-1.17.15-1.54.43-.37.28-.65.73-.85 1.33-.2.58-.28 1.38-.28 2.33 0 1.35.2 2.33.6 2.97.43.63 1.1.95 2.04.95.82 0 1.4-.3 1.78-.92.38-.62.57-1.66.57-3.13zM224.48 642.1c0 1.8-.4 3.13-1.15 4-.76.88-1.88 1.32-3.33 1.32-1.45 0-2.54-.46-3.28-1.36-.74-.92-1.1-2.24-1.1-3.96 0-3.53 1.47-5.3 4.44-5.3 1.52 0 2.63.45 3.34 1.3.72.87 1.08 2.2 1.08 4zm-1.73 0c0-1.4-.22-2.43-.62-3.07-.4-.64-1.08-.95-2.04-.95-.98 0-1.68.3-2.1.97-.44.65-.66 1.67-.66 3.05 0 1.35.2 2.37.64 3.05.42.68 1.1 1 2 1 1 0 1.7-.3 2.12-.97.43-.66.65-1.7.65-3.08zM232.8 645.58c-.3.66-.7 1.12-1.22 1.4-.5.3-1.13.43-1.87.43-1.24 0-2.17-.43-2.76-1.3-.58-.86-.88-2.18-.88-3.94 0-3.57 1.22-5.35 3.65-5.35.76 0 1.38.16 1.9.44.5.28.9.74 1.2 1.35v-5.4h1.64v11.9c0 1.08.03 1.8.06 2.13h-1.58l-.06-.7c0-.37-.03-.68-.03-.95zm-5-3.48c0 1.44.18 2.46.54 3.07.37.62.96.94 1.8.94.93 0 1.6-.33 2.02-1 .43-.67.64-1.7.64-3.1 0-1.36-.2-2.36-.64-2.98-.42-.63-1.1-.96-2-.96-.84 0-1.44.33-1.82.97-.36.63-.55 1.65-.55 3.07z" stroke="#000" stroke-opacity="0" fill="#fff"/><path d="M195.92 580.2L220 573l24.1 7.2-24.1 7.2zM195.92 582.95v26.4l22.43 12.83.12-32.32zM244.08 582.95v26.4l-22.44 12.83-.1-32.32z" stroke="#000" stroke-opacity="0" stroke-width="3.77" fill="#fff"/><use xlink:href="#a" transform="matrix(1,0,0,1,130,669) translate(54.907407407407405 17.77777777777778)"/><use xlink:href="#b" transform="matrix(1,0,0,1,130,669) translate(46.23456790123457 44.44444444444444)"/><path d="M459.66 783.17c-1.14.1-2.05.34-2.96.8l-39.44 19.43c-2.16 1.02-3.64 2.84-4.1 5.23l-9.77 43.76c-.47 2.04-.13 4.08 1 5.9.13.23.24.34.47.57l27.28 35c1.48 1.94 3.52 2.97 5.9 2.97h43.9c2.38 0 4.42-1.03 5.9-2.96l27.28-35c1.48-1.94 2.05-4.2 1.48-6.6l-9.77-43.65c-.45-2.4-1.93-4.2-4.1-5.23l-39.43-19.44c-1.25-.57-2.4-.9-3.64-.8z" stroke="#000" stroke-opacity="0" stroke-width="3.83" fill="#326ce5"/><path d="M459.64 780c-1.2.12-2.16.36-3.12.84l-41.64 20.52c-2.28 1.08-3.84 3-4.32 5.52l-10.32 46.2c-.48 2.16-.12 4.32 1.08 6.24.12.24.24.36.48.6l28.8 36.96c1.56 2.04 3.72 3.12 6.24 3.12h46.32c2.52 0 4.68-1.08 6.24-3.12l28.8-36.96c1.56-2.04 2.16-4.44 1.56-6.84l-10.32-46.2c-.48-2.52-2.04-4.44-4.32-5.52l-41.64-20.52c-1.32-.6-2.52-.96-3.84-.84zm0 3.24c1.32-.12 2.4.12 3.6.72l39.6 19.44c2.04 1.08 3.48 2.88 4.08 5.28l9.72 43.68c.48 2.4 0 4.56-1.44 6.48l-27.36 35.04c-1.44 1.92-3.48 3-5.88 3h-43.92c-2.4 0-4.44-1.08-5.88-3l-27.36-35.04c-.12-.12-.24-.36-.36-.6-1.2-1.8-1.56-3.72-1.08-5.88l9.72-43.68c.6-2.4 1.92-4.2 4.08-5.28l39.6-19.44c.96-.48 1.8-.72 2.88-.84z" stroke="#000" stroke-opacity="0" stroke-width="3.83" fill="#fff"/><path d="M462.13 826.47v5.43h25.6v-5.43zM448.98 811.95v5.44h38.76v-5.45zM432.26 811.95v5.44h9.7v-5.45zM463.07 840.97v5.45h24.67v-5.45zM448.98 855.5v5.42h38.76v-5.43zM432.26 855.5v5.42h9.7v-5.43z" stroke="#000" stroke-opacity="0" stroke-width="3.77" fill="#fff"/><path d="M463.8 847.2c0 2.1-1.65 3.8-3.68 3.8-2.04 0-3.7-1.7-3.7-3.8 0-2.1 1.66-3.82 3.7-3.82 2.03 0 3.7 1.7 3.7 3.8z" stroke="#000" stroke-opacity="0" stroke-width="3.77" fill="#326ce5"/><path d="M445.56 830.78l6.65.08c2.5-10.6 14.5-8.62 15.87.3l6.53-.38c-2.1-17.37-26.2-19.9-28.72-1.85z" stroke="#000" stroke-opacity="0" stroke-width="3.77" fill="#fff"/><path d="M459.97 815.92c-8.74 0-15.9 6.87-15.9 15.4 2.5-.04 7.92.1 8.78 0 0-3.45 3.12-6.35 7.12-6.35s7.13 2.9 7.13 6.34c1.52.07 7.92-.28 8.77 0 0-8.5-7.15-15.38-15.9-15.38zm0 1.8c7.48 0 13.2 5.7 13.77 12.7h-5.3c-.55-4.06-4.02-7.26-8.47-7.26-4.45 0-7.92 3.2-8.46 7.25h-5.27c.54-6.98 6.27-12.67 13.74-12.67z" stroke="#000" stroke-opacity="0" stroke-width="3.77" fill="#326ce5"/><path d="M440.88 831.46h37.8v24.26h-37.8v-24.26z" stroke="#000" stroke-opacity="0" stroke-width="3.77" fill="#fff"/><path d="M440.57 830.18v26.9h39.13v-26.9zm1.76 1.83h35.6v23.25h-35.6z" stroke="#000" stroke-opacity="0" stroke-width="3.77" fill="#326ce5"/><path d="M442.8 883.57c0 .96-.35 1.7-1.06 2.23-.7.52-1.7.78-2.96.78-1.23 0-2.2-.2-2.86-.62-.66-.43-1.1-1.08-1.3-1.97l1.46-.3c.13.54.43.95.86 1.2.45.26 1.06.4 1.84.4.84 0 1.45-.15 1.83-.4.4-.28.6-.68.6-1.2 0-.4-.13-.74-.4-1-.27-.23-.7-.44-1.3-.6l-1.2-.33c-.93-.25-1.6-.5-2-.74-.4-.24-.72-.54-.94-.9-.23-.33-.35-.76-.35-1.26 0-.93.33-1.64.98-2.12.64-.5 1.6-.74 2.82-.74 1.1 0 1.96.2 2.6.6.65.4 1.06 1.04 1.23 1.9l-1.5.2c-.08-.45-.32-.8-.72-1.04-.4-.25-.93-.36-1.6-.36-.74 0-1.3.1-1.65.35-.35.23-.53.58-.53 1.05 0 .3.07.53.22.72.14.18.36.35.64.48.3.14.9.32 1.82.55.88.22 1.5.43 1.9.63.38.2.68.4.9.64.22.23.4.5.52.8.13.3.18.66.18 1.05zM446 881.64c0 1.17.24 2.08.72 2.7.46.65 1.15.97 2.06.97.7 0 1.3-.14 1.72-.44.43-.3.72-.66.87-1.12l1.45.42c-.6 1.62-1.94 2.42-4.04 2.42-1.47 0-2.6-.44-3.36-1.35-.76-.9-1.14-2.24-1.14-4 0-1.7.38-3 1.14-3.9.77-.9 1.87-1.35 3.3-1.35 2.9 0 4.37 1.8 4.37 5.43v.24zm5.38-1.3c-.1-1.08-.35-1.87-.8-2.36-.44-.5-1.07-.74-1.9-.74-.8 0-1.43.28-1.9.83-.47.55-.7 1.3-.75 2.27zM456.45 881.24c0 1.36.2 2.36.63 3.02.4.66 1.04.98 1.87.98.6 0 1.08-.16 1.47-.5.4-.32.65-.82.74-1.5l1.66.1c-.13 1-.53 1.78-1.22 2.36-.68.6-1.54.88-2.6.88-1.4 0-2.45-.44-3.18-1.34-.73-.92-1.1-2.23-1.1-3.97 0-1.72.37-3.03 1.1-3.93.74-.9 1.8-1.36 3.16-1.36 1.02 0 1.86.28 2.52.82.68.54 1.1 1.28 1.27 2.23l-1.7.13c-.08-.56-.3-1.02-.65-1.34-.35-.34-.84-.5-1.48-.5-.88 0-1.5.3-1.9.9-.4.6-.6 1.6-.6 3.02zM464.62 886.4v-7.85c0-.72-.02-1.5-.05-2.38h1.55l.08 2.1h.03c.27-.9.57-1.5.9-1.8.36-.34.84-.5 1.46-.5.2 0 .43.04.66.1v1.56c-.22-.06-.5-.1-.88-.1-.68 0-1.2.3-1.57.93-.35.6-.53 1.46-.53 2.6v5.33zM472.12 881.64c0 1.17.23 2.08.7 2.7.47.65 1.16.97 2.07.97.7 0 1.27-.14 1.7-.44.44-.3.73-.66.88-1.12l1.45.42c-.6 1.62-1.94 2.42-4.04 2.42-1.48 0-2.6-.44-3.37-1.35-.77-.9-1.14-2.24-1.14-4 0-1.7.36-3 1.13-3.9.77-.9 1.87-1.35 3.3-1.35 2.9 0 4.36 1.8 4.36 5.43v.24zm5.37-1.3c-.1-1.08-.37-1.87-.8-2.36-.45-.5-1.08-.74-1.9-.74-.8 0-1.44.28-1.9.83-.48.55-.73 1.3-.76 2.27zM485.12 886.3c-.55.17-1.1.24-1.67.24-1.32 0-1.98-.77-1.98-2.3v-6.84h-1.15v-1.23h1.2l.5-2.3h1.1v2.3h1.83v1.23h-1.83v6.46c0 .5.07.83.23 1.04.15.2.43.3.8.3.23 0 .55-.05.97-.14z" stroke="#000" stroke-opacity="0" fill="#fff"/><path d="M463.82 843.63c0 2.1-1.65 3.8-3.7 3.8-2.03 0-3.68-1.7-3.68-3.8 0-2.1 1.65-3.8 3.7-3.8 2.03 0 3.68 1.7 3.68 3.8z" stroke="#000" stroke-opacity="0" stroke-width="3.77" fill="#326ce5"/><use xlink:href="#c" transform="matrix(1,0,0,1,370,909) translate(37.65432098765432 17.77777777777778)"/><use xlink:href="#d" transform="matrix(1,0,0,1,370,909) translate(111.54320987654322 17.77777777777778)"/><use xlink:href="#e" transform="matrix(1,0,0,1,370,909) translate(42.56172839506172 44.44444444444444)"/><path d="M341 833.87l.7 2.64 1.8 1.8 2.63.7h12.76v2h-13.03l-3.42-.92-2.53-2.53-.92-3.42v-9.63h2m43.66 16.5h-12.9v-2h12.9M341 815h-2v-19h2m0-9.5h-2v-19h2m0-9.5h-2v-19h2m0-9.5h-2v-19h2m0-9.5h-2v-19h2m0-9.5h-2v-16.87h2m0-21.33h-2V625h2m-3.45-25.08l2.53 2.53.92 3.42v9.63h-2v-9.37l-.7-2.64-1.8-1.8-2.63-.7h-9.23v-2h9.5m-46.94 2h-9.36v-2h9.36m28.08 2h-18.72v-2h18.72" fill="#5e5e5e"/><path d="M277.86 601h-.8l-.45-2h1.26M399.93 840l-14.27 4.64v-9.28z" fill="#5e5e5e"/><path d="M403.16 840l-18.5 6v-12m2 9.26L396.7 840l-10.04-3.26" fill="#5e5e5e"/><use xlink:href="#f" transform="matrix(1,0,0,1,312.3703703703704,634.2993159738836) translate(0 14.222222222222223)"/><path d="M759.66 663.17c-1.14.1-2.05.34-2.96.8l-39.44 19.43c-2.16 1.02-3.64 2.84-4.1 5.23l-9.77 43.76c-.47 2.04-.13 4.08 1 5.9.13.23.24.34.47.57l27.28 35c1.48 1.94 3.52 2.97 5.9 2.97h43.9c2.38 0 4.42-1.03 5.9-2.96l27.28-35c1.48-1.94 2.05-4.2 1.48-6.6l-9.77-43.65c-.45-2.4-1.93-4.2-4.1-5.23l-39.43-19.44c-1.25-.57-2.4-.9-3.64-.8z" stroke="#000" stroke-opacity="0" stroke-width="3.83" fill="#326ce5"/><path d="M759.64 660c-1.2.12-2.16.36-3.12.84l-41.64 20.52c-2.28 1.08-3.84 3-4.32 5.52l-10.32 46.2c-.48 2.16-.12 4.32 1.08 6.24.12.24.24.36.48.6l28.8 36.96c1.56 2.04 3.72 3.12 6.24 3.12h46.32c2.52 0 4.68-1.08 6.24-3.12l28.8-36.96c1.56-2.04 2.16-4.44 1.56-6.84l-10.32-46.2c-.48-2.52-2.04-4.44-4.32-5.52l-41.64-20.52c-1.32-.6-2.52-.96-3.84-.84zm0 3.24c1.32-.12 2.4.12 3.6.72l39.6 19.44c2.04 1.08 3.48 2.88 4.08 5.28l9.72 43.68c.48 2.4 0 4.56-1.44 6.48l-27.36 35.04c-1.44 1.92-3.48 3-5.88 3h-43.92c-2.4 0-4.44-1.08-5.88-3l-27.36-35.04c-.12-.12-.24-.36-.36-.6-1.2-1.8-1.56-3.72-1.08-5.88l9.72-43.68c.6-2.4 1.92-4.2 4.08-5.28l39.6-19.44c.96-.48 1.8-.72 2.88-.84z" stroke="#000" stroke-opacity="0" stroke-width="3.83" fill="#fff"/><path d="M754.02 762.07c0 3.56-1.2 5.35-3.64 5.35-1.53 0-2.56-.6-3.08-1.8h-.05c.03.07.04.6.04 1.63v4h-1.66v-12.17c0-1.05-.02-1.74-.06-2.1h1.6l.02.3.05.7.02.66h.03c.3-.62.7-1.08 1.17-1.37.48-.3 1.1-.45 1.9-.45 1.23 0 2.14.42 2.74 1.27.62.83.92 2.15.92 3.97zm-1.73.03c0-1.42-.2-2.44-.56-3.05-.38-.62-.97-.92-1.78-.92-.66 0-1.17.15-1.54.43-.37.28-.65.73-.85 1.33-.2.58-.28 1.38-.28 2.33 0 1.35.2 2.33.6 2.97.43.63 1.1.95 2.04.95.82 0 1.4-.3 1.78-.92.38-.62.57-1.66.57-3.13zM764.48 762.1c0 1.8-.4 3.13-1.15 4-.76.88-1.88 1.32-3.33 1.32-1.45 0-2.54-.46-3.28-1.36-.74-.92-1.1-2.24-1.1-3.96 0-3.53 1.47-5.3 4.44-5.3 1.52 0 2.63.45 3.34 1.3.72.87 1.08 2.2 1.08 4zm-1.73 0c0-1.4-.22-2.43-.62-3.07-.4-.64-1.08-.95-2.04-.95-.98 0-1.68.3-2.1.97-.44.65-.66 1.67-.66 3.05 0 1.35.2 2.37.64 3.05.42.68 1.1 1 2 1 1 0 1.7-.3 2.12-.97.43-.66.65-1.7.65-3.08zM772.8 765.58c-.3.66-.7 1.12-1.22 1.4-.5.3-1.13.43-1.87.43-1.24 0-2.17-.43-2.76-1.3-.58-.86-.88-2.18-.88-3.94 0-3.57 1.22-5.35 3.65-5.35.76 0 1.38.16 1.9.44.5.28.9.74 1.2 1.35v-5.4h1.64v11.9c0 1.08.03 1.8.06 2.13h-1.58l-.06-.7c0-.37-.03-.68-.03-.95zm-5-3.48c0 1.44.18 2.46.54 3.07.37.62.96.94 1.8.94.93 0 1.6-.33 2.02-1 .43-.67.64-1.7.64-3.1 0-1.36-.2-2.36-.64-2.98-.42-.63-1.1-.96-2-.96-.84 0-1.44.33-1.82.97-.36.63-.55 1.65-.55 3.07z" stroke="#000" stroke-opacity="0" fill="#fff"/><path d="M735.92 700.2L760 693l24.1 7.2-24.1 7.2zM735.92 702.95v26.4l22.43 12.83.12-32.32zM784.08 702.95v26.4l-22.44 12.83-.1-32.32z" stroke="#000" stroke-opacity="0" stroke-width="3.77" fill="#fff"/><use xlink:href="#g" transform="matrix(1,0,0,1,670,789) translate(61.60493827160494 17.77777777777778)"/><use xlink:href="#h" transform="matrix(1,0,0,1,670,789) translate(57.345679012345684 44.44444444444444)"/><path d="M591.28 804.53l-5.23 5.6-4.47 4.36-4.02 3.62-3.74 3.1-3.55 2.7-3.4 2.36-3.33 2.1-3.27 1.9-3.24 1.7-3.24 1.52-3.27 1.37-3.3 1.22-3.34 1.08-3.44.96-3.53.83-1.5.3-.4-1.98 1.48-.3 3.46-.8 3.35-.93 3.28-1.07 3.22-1.2 3.17-1.33 3.17-1.5 3.16-1.64 3.2-1.85 3.25-2.06 3.35-2.33 3.48-2.65 3.67-3.04 3.96-3.56 4.42-4.32 5.15-5.5 10.2-12.66h2.58m99.63-69.54l-3.38.07-4.12.25-3.9.4-3.72.56-3.57.7-3.46.8-3.35.93-3.28 1.07-3.22 1.2-3.17 1.33-3.17 1.5-3.16 1.64-3.2 1.85-3.25 2.06-3.35 2.33-3.48 2.65-3.67 3.04-3.96 3.56-4.42 4.32-5.17 5.52-6.85 7.98-3.6 4.45h-2.56l4.6-5.73 6.93-8.04 5.22-5.58 4.47-4.37 4.02-3.62 3.74-3.1 3.55-2.7 3.4-2.36 3.33-2.1 3.27-1.9 3.24-1.7 3.24-1.52 3.27-1.37 3.3-1.22 3.34-1.08 3.44-.96 3.53-.83 3.66-.7 3.8-.56 4-.4 4.18-.28 3.44-.08" fill="#c92d39"/><path d="M702.94 721l-.8.02-.03-2 1.3-.02M534.7 842.98l-14.64-3.28 13.77-5.95z" fill="#c92d39"/><path d="M535.82 844.26L516.84 840l17.86-7.7m-11.42 7.1l10.3 2.3-.62-6.5" fill="#c92d39"/><use xlink:href="#i" transform="matrix(1,0,0,1,585.2527432287067,769.2268662982756) translate(0 14.222222222222223)"/><path d="M219.66 1143.17c-1.14.1-2.05.34-2.96.8l-39.44 19.43c-2.16 1.02-3.64 2.84-4.1 5.23l-9.77 43.76c-.47 2.04-.13 4.08 1 5.9.13.23.24.34.47.57l27.28 35c1.48 1.94 3.52 2.97 5.9 2.97h43.9c2.38 0 4.42-1.03 5.9-2.96l27.28-35c1.48-1.94 2.05-4.2 1.48-6.6l-9.77-43.65c-.45-2.4-1.93-4.2-4.1-5.23l-39.43-19.44c-1.25-.57-2.4-.9-3.64-.8z" stroke="#000" stroke-opacity="0" stroke-width="3.83" fill="#326ce5"/><path d="M219.64 1140c-1.2.12-2.16.36-3.12.84l-41.64 20.52c-2.28 1.08-3.84 3-4.32 5.52l-10.32 46.2c-.48 2.16-.12 4.32 1.08 6.24.12.24.24.36.48.6l28.8 36.96c1.56 2.04 3.72 3.12 6.24 3.12h46.32c2.52 0 4.68-1.08 6.24-3.12l28.8-36.96c1.56-2.04 2.16-4.44 1.56-6.84l-10.32-46.2c-.48-2.52-2.04-4.44-4.32-5.52l-41.64-20.52c-1.32-.6-2.52-.96-3.84-.84zm0 3.24c1.32-.12 2.4.12 3.6.72l39.6 19.44c2.04 1.08 3.48 2.88 4.08 5.28l9.72 43.68c.48 2.4 0 4.56-1.44 6.48l-27.36 35.04c-1.44 1.92-3.48 3-5.88 3h-43.92c-2.4 0-4.44-1.08-5.88-3l-27.36-35.04c-.12-.12-.24-.36-.36-.6-1.2-1.8-1.56-3.72-1.08-5.88l9.72-43.68c.6-2.4 1.92-4.2 4.08-5.28l39.6-19.44c.96-.48 1.8-.72 2.88-.84z" stroke="#000" stroke-opacity="0" stroke-width="3.83" fill="#fff"/><path d="M214.02 1242.07c0 3.56-1.2 5.35-3.64 5.35-1.53 0-2.56-.6-3.08-1.8h-.05c.03.07.04.6.04 1.63v4h-1.66v-12.17c0-1.05-.02-1.74-.06-2.1h1.6l.02.3.05.7.02.66h.03c.3-.62.7-1.08 1.17-1.37.48-.3 1.1-.45 1.9-.45 1.23 0 2.14.42 2.74 1.27.62.83.92 2.15.92 3.97zm-1.73.03c0-1.42-.2-2.44-.56-3.05-.38-.62-.97-.92-1.78-.92-.66 0-1.17.15-1.54.43-.37.28-.65.73-.85 1.33-.2.58-.28 1.38-.28 2.33 0 1.35.2 2.33.6 2.97.43.63 1.1.95 2.04.95.82 0 1.4-.3 1.78-.92.38-.62.57-1.66.57-3.13zM224.48 1242.1c0 1.8-.4 3.13-1.15 4-.76.88-1.88 1.32-3.33 1.32-1.45 0-2.54-.46-3.28-1.36-.74-.92-1.1-2.24-1.1-3.96 0-3.53 1.47-5.3 4.44-5.3 1.52 0 2.63.45 3.34 1.3.72.87 1.08 2.2 1.08 4zm-1.73 0c0-1.4-.22-2.43-.62-3.07-.4-.64-1.08-.95-2.04-.95-.98 0-1.68.3-2.1.97-.44.65-.66 1.67-.66 3.05 0 1.35.2 2.37.64 3.05.42.68 1.1 1 2 1 1 0 1.7-.3 2.12-.97.43-.66.65-1.7.65-3.08zM232.8 1245.58c-.3.66-.7 1.12-1.22 1.4-.5.3-1.13.43-1.87.43-1.24 0-2.17-.43-2.76-1.3-.58-.86-.88-2.18-.88-3.94 0-3.57 1.22-5.35 3.65-5.35.76 0 1.38.16 1.9.44.5.28.9.74 1.2 1.35v-5.4h1.64v11.9c0 1.08.03 1.8.06 2.13h-1.58l-.06-.7c0-.37-.03-.68-.03-.95zm-5-3.48c0 1.44.18 2.46.54 3.07.37.62.96.94 1.8.94.93 0 1.6-.33 2.02-1 .43-.67.64-1.7.64-3.1 0-1.36-.2-2.36-.64-2.98-.42-.63-1.1-.96-2-.96-.84 0-1.44.33-1.82.97-.36.63-.55 1.65-.55 3.07z" stroke="#000" stroke-opacity="0" fill="#fff"/><path d="M195.92 1180.2L220 1173l24.1 7.2-24.1 7.2zM195.92 1182.95v26.4l22.43 12.83.12-32.32zM244.08 1182.95v26.4l-22.44 12.83-.1-32.32z" stroke="#000" stroke-opacity="0" stroke-width="3.77" fill="#fff"/><use xlink:href="#j" transform="matrix(1,0,0,1,130,1269) translate(66.60493827160494 17.77777777777778)"/><use xlink:href="#b" transform="matrix(1,0,0,1,130,1269) translate(46.23456790123457 44.44444444444444)"/><path d="M459.66 1143.17c-1.14.1-2.05.34-2.96.8l-39.44 19.43c-2.16 1.02-3.64 2.84-4.1 5.23l-9.77 43.76c-.47 2.04-.13 4.08 1 5.9.13.23.24.34.47.57l27.28 35c1.48 1.94 3.52 2.97 5.9 2.97h43.9c2.38 0 4.42-1.03 5.9-2.96l27.28-35c1.48-1.94 2.05-4.2 1.48-6.6l-9.77-43.65c-.45-2.4-1.93-4.2-4.1-5.23l-39.43-19.44c-1.25-.57-2.4-.9-3.64-.8z" stroke="#000" stroke-opacity="0" stroke-width="3.83" fill="#326ce5"/><path d="M459.64 1140c-1.2.12-2.16.36-3.12.84l-41.64 20.52c-2.28 1.08-3.84 3-4.32 5.52l-10.32 46.2c-.48 2.16-.12 4.32 1.08 6.24.12.24.24.36.48.6l28.8 36.96c1.56 2.04 3.72 3.12 6.24 3.12h46.32c2.52 0 4.68-1.08 6.24-3.12l28.8-36.96c1.56-2.04 2.16-4.44 1.56-6.84l-10.32-46.2c-.48-2.52-2.04-4.44-4.32-5.52l-41.64-20.52c-1.32-.6-2.52-.96-3.84-.84zm0 3.24c1.32-.12 2.4.12 3.6.72l39.6 19.44c2.04 1.08 3.48 2.88 4.08 5.28l9.72 43.68c.48 2.4 0 4.56-1.44 6.48l-27.36 35.04c-1.44 1.92-3.48 3-5.88 3h-43.92c-2.4 0-4.44-1.08-5.88-3l-27.36-35.04c-.12-.12-.24-.36-.36-.6-1.2-1.8-1.56-3.72-1.08-5.88l9.72-43.68c.6-2.4 1.92-4.2 4.08-5.28l39.6-19.44c.96-.48 1.8-.72 2.88-.84z" stroke="#000" stroke-opacity="0" stroke-width="3.83" fill="#fff"/><path d="M462.13 1186.47v5.43h25.6v-5.43zM448.98 1171.95v5.44h38.76v-5.45zM432.26 1171.95v5.44h9.7v-5.45zM463.07 1200.97v5.45h24.67v-5.45zM448.98 1215.5v5.42h38.76v-5.43zM432.26 1215.5v5.42h9.7v-5.43z" stroke="#000" stroke-opacity="0" stroke-width="3.77" fill="#fff"/><path d="M463.8 1207.2c0 2.1-1.65 3.8-3.68 3.8-2.04 0-3.7-1.7-3.7-3.8 0-2.1 1.66-3.82 3.7-3.82 2.03 0 3.7 1.7 3.7 3.8z" stroke="#000" stroke-opacity="0" stroke-width="3.77" fill="#326ce5"/><path d="M445.56 1190.78l6.65.08c2.5-10.6 14.5-8.62 15.87.3l6.53-.38c-2.1-17.37-26.2-19.9-28.72-1.85z" stroke="#000" stroke-opacity="0" stroke-width="3.77" fill="#fff"/><path d="M459.97 1175.92c-8.74 0-15.9 6.87-15.9 15.4 2.5-.04 7.92.1 8.78 0 0-3.45 3.12-6.35 7.12-6.35s7.13 2.9 7.13 6.34c1.52.07 7.92-.28 8.77 0 0-8.5-7.15-15.38-15.9-15.38zm0 1.8c7.48 0 13.2 5.7 13.77 12.7h-5.3c-.55-4.06-4.02-7.26-8.47-7.26-4.45 0-7.92 3.2-8.46 7.25h-5.27c.54-6.98 6.27-12.67 13.74-12.67z" stroke="#000" stroke-opacity="0" stroke-width="3.77" fill="#326ce5"/><path d="M440.88 1191.46h37.8v24.26h-37.8v-24.26z" stroke="#000" stroke-opacity="0" stroke-width="3.77" fill="#fff"/><path d="M440.57 1190.18v26.9h39.13v-26.9zm1.76 1.83h35.6v23.25h-35.6z" stroke="#000" stroke-opacity="0" stroke-width="3.77" fill="#326ce5"/><path d="M442.8 1243.57c0 .96-.35 1.7-1.06 2.23-.7.52-1.7.78-2.96.78-1.23 0-2.2-.2-2.86-.62-.66-.43-1.1-1.08-1.3-1.97l1.46-.3c.13.54.43.95.86 1.2.45.26 1.06.4 1.84.4.84 0 1.45-.15 1.83-.4.4-.28.6-.68.6-1.2 0-.4-.13-.74-.4-1-.27-.23-.7-.44-1.3-.6l-1.2-.33c-.93-.25-1.6-.5-2-.74-.4-.24-.72-.54-.94-.9-.23-.33-.35-.76-.35-1.26 0-.93.33-1.64.98-2.12.64-.5 1.6-.74 2.82-.74 1.1 0 1.96.2 2.6.6.65.4 1.06 1.04 1.23 1.9l-1.5.2c-.08-.45-.32-.8-.72-1.04-.4-.25-.93-.36-1.6-.36-.74 0-1.3.1-1.65.35-.35.23-.53.58-.53 1.05 0 .3.07.53.22.72.14.18.36.35.64.48.3.14.9.32 1.82.55.88.22 1.5.43 1.9.63.38.2.68.4.9.64.22.23.4.5.52.8.13.3.18.66.18 1.05zM446 1241.64c0 1.17.24 2.08.72 2.7.46.65 1.15.97 2.06.97.7 0 1.3-.14 1.72-.44.43-.3.72-.66.87-1.12l1.45.42c-.6 1.62-1.94 2.42-4.04 2.42-1.47 0-2.6-.44-3.36-1.35-.76-.9-1.14-2.24-1.14-4 0-1.7.38-3 1.14-3.9.77-.9 1.87-1.35 3.3-1.35 2.9 0 4.37 1.8 4.37 5.43v.24zm5.38-1.3c-.1-1.08-.35-1.87-.8-2.36-.44-.5-1.07-.74-1.9-.74-.8 0-1.43.28-1.9.83-.47.55-.7 1.3-.75 2.27zM456.45 1241.24c0 1.36.2 2.36.63 3.02.4.66 1.04.98 1.87.98.6 0 1.08-.16 1.47-.5.4-.32.65-.82.74-1.5l1.66.1c-.13 1-.53 1.78-1.22 2.36-.68.6-1.54.88-2.6.88-1.4 0-2.45-.44-3.18-1.34-.73-.92-1.1-2.23-1.1-3.97 0-1.72.37-3.03 1.1-3.93.74-.9 1.8-1.36 3.16-1.36 1.02 0 1.86.28 2.52.82.68.54 1.1 1.28 1.27 2.23l-1.7.13c-.08-.56-.3-1.02-.65-1.34-.35-.34-.84-.5-1.48-.5-.88 0-1.5.3-1.9.9-.4.6-.6 1.6-.6 3.02zM464.62 1246.4v-7.85c0-.72-.02-1.5-.05-2.38h1.55l.08 2.1h.03c.27-.9.57-1.5.9-1.8.36-.34.84-.5 1.46-.5.2 0 .43.04.66.1v1.56c-.22-.06-.5-.1-.88-.1-.68 0-1.2.3-1.57.93-.35.6-.53 1.46-.53 2.6v5.33zM472.12 1241.64c0 1.17.23 2.08.7 2.7.47.65 1.16.97 2.07.97.7 0 1.27-.14 1.7-.44.44-.3.73-.66.88-1.12l1.45.42c-.6 1.62-1.94 2.42-4.04 2.42-1.48 0-2.6-.44-3.37-1.35-.77-.9-1.14-2.24-1.14-4 0-1.7.36-3 1.13-3.9.77-.9 1.87-1.35 3.3-1.35 2.9 0 4.36 1.8 4.36 5.43v.24zm5.37-1.3c-.1-1.08-.37-1.87-.8-2.36-.45-.5-1.08-.74-1.9-.74-.8 0-1.44.28-1.9.83-.48.55-.73 1.3-.76 2.27zM485.12 1246.3c-.55.17-1.1.24-1.67.24-1.32 0-1.98-.77-1.98-2.3v-6.84h-1.15v-1.23h1.2l.5-2.3h1.1v2.3h1.83v1.23h-1.83v6.46c0 .5.07.83.23 1.04.15.2.43.3.8.3.23 0 .55-.05.97-.14z" stroke="#000" stroke-opacity="0" fill="#fff"/><path d="M463.82 1203.63c0 2.1-1.65 3.8-3.7 3.8-2.03 0-3.68-1.7-3.68-3.8 0-2.1 1.65-3.8 3.7-3.8 2.03 0 3.68 1.7 3.68 3.8z" stroke="#000" stroke-opacity="0" stroke-width="3.77" fill="#326ce5"/><use xlink:href="#k" transform="matrix(1,0,0,1,370,1269) translate(50.5246913580247 17.77777777777778)"/><use xlink:href="#l" transform="matrix(1,0,0,1,370,1269) translate(99.84567901234568 17.77777777777778)"/><use xlink:href="#e" transform="matrix(1,0,0,1,370,1269) translate(42.56172839506172 44.44444444444444)"/><path d="M286.74 1201h-8.9v-2h8.9m25.63 2h-16.73v-2h16.73m72.3 2h-8.9v-2h8.9" fill="#5e5e5e"/><path d="M277.86 1201h-.8l-.45-2h1.26M399.93 1200l-14.27 4.64v-9.28z" fill="#5e5e5e"/><path d="M403.16 1200l-18.5 6v-12m2 9.26l10.03-3.26-10.04-3.26" fill="#5e5e5e"/><use xlink:href="#f" transform="matrix(1,0,0,1,312.3703703703704,1189.3333333333333) translate(0 14.222222222222223)"/><path d="M461 1121.53h-2v-90.85h2m0-21.33h-2V901h2M460 1136.8l-4.64-14.27h9.28z" fill="#c92d39"/><path d="M460 1140.03l-6-18.5h12m-9.26 2l3.26 10.03 3.26-10.03M461 901.03h-2V900h2" fill="#c92d39"/><use xlink:href="#m" transform="matrix(1,0,0,1,436.8395061728395,1009.3473958333334) translate(0 14.222222222222223)"/><path d="M1079.66 1143.17c-1.14.1-2.05.34-2.96.8l-39.44 19.43c-2.16 1.02-3.64 2.84-4.1 5.23l-9.77 43.76c-.47 2.04-.13 4.08 1 5.9.13.23.24.34.47.57l27.28 35c1.48 1.94 3.52 2.97 5.9 2.97h43.9c2.38 0 4.42-1.03 5.9-2.96l27.28-35c1.48-1.94 2.05-4.2 1.48-6.6l-9.77-43.65c-.45-2.4-1.93-4.2-4.1-5.23l-39.43-19.44c-1.25-.57-2.4-.9-3.64-.8z" stroke="#000" stroke-opacity="0" stroke-width="3.83" fill="#326ce5"/><path d="M1079.64 1140c-1.2.12-2.16.36-3.12.84l-41.64 20.52c-2.28 1.08-3.84 3-4.32 5.52l-10.32 46.2c-.48 2.16-.12 4.32 1.08 6.24.12.24.24.36.48.6l28.8 36.96c1.56 2.04 3.72 3.12 6.24 3.12h46.32c2.52 0 4.68-1.08 6.24-3.12l28.8-36.96c1.56-2.04 2.16-4.44 1.56-6.84l-10.32-46.2c-.48-2.52-2.04-4.44-4.32-5.52l-41.64-20.52c-1.32-.6-2.52-.96-3.84-.84zm0 3.24c1.32-.12 2.4.12 3.6.72l39.6 19.44c2.04 1.08 3.48 2.88 4.08 5.28l9.72 43.68c.48 2.4 0 4.56-1.44 6.48l-27.36 35.04c-1.44 1.92-3.48 3-5.88 3h-43.92c-2.4 0-4.44-1.08-5.88-3l-27.36-35.04c-.12-.12-.24-.36-.36-.6-1.2-1.8-1.56-3.72-1.08-5.88l9.72-43.68c.6-2.4 1.92-4.2 4.08-5.28l39.6-19.44c.96-.48 1.8-.72 2.88-.84z" stroke="#000" stroke-opacity="0" stroke-width="3.83" fill="#fff"/><path d="M1074.02 1242.07c0 3.56-1.2 5.35-3.64 5.35-1.53 0-2.56-.6-3.08-1.8h-.05c.03.07.04.6.04 1.63v4h-1.66v-12.17c0-1.05-.02-1.74-.06-2.1h1.6l.02.3.05.7.02.66h.03c.3-.62.7-1.08 1.17-1.37.48-.3 1.1-.45 1.9-.45 1.23 0 2.14.42 2.74 1.27.62.83.92 2.15.92 3.97zm-1.73.03c0-1.42-.2-2.44-.56-3.05-.38-.62-.97-.92-1.78-.92-.66 0-1.17.15-1.54.43-.37.28-.65.73-.85 1.33-.2.58-.28 1.38-.28 2.33 0 1.35.2 2.33.6 2.97.43.63 1.1.95 2.04.95.82 0 1.4-.3 1.78-.92.38-.62.57-1.66.57-3.13zM1084.48 1242.1c0 1.8-.4 3.13-1.15 4-.76.88-1.88 1.32-3.33 1.32-1.45 0-2.54-.46-3.28-1.36-.74-.92-1.1-2.24-1.1-3.96 0-3.53 1.47-5.3 4.44-5.3 1.52 0 2.63.45 3.34 1.3.72.87 1.08 2.2 1.08 4zm-1.73 0c0-1.4-.22-2.43-.62-3.07-.4-.64-1.08-.95-2.04-.95-.98 0-1.68.3-2.1.97-.44.65-.66 1.67-.66 3.05 0 1.35.2 2.37.64 3.05.42.68 1.1 1 2 1 1 0 1.7-.3 2.12-.97.43-.66.65-1.7.65-3.08zM1092.8 1245.58c-.3.66-.7 1.12-1.22 1.4-.5.3-1.13.43-1.87.43-1.24 0-2.17-.43-2.76-1.3-.58-.86-.88-2.18-.88-3.94 0-3.57 1.22-5.35 3.65-5.35.76 0 1.38.16 1.9.44.5.28.9.74 1.2 1.35v-5.4h1.64v11.9c0 1.08.03 1.8.06 2.13h-1.58l-.06-.7c0-.37-.03-.68-.03-.95zm-5-3.48c0 1.44.18 2.46.54 3.07.37.62.96.94 1.8.94.93 0 1.6-.33 2.02-1 .43-.67.64-1.7.64-3.1 0-1.36-.2-2.36-.64-2.98-.42-.63-1.1-.96-2-.96-.84 0-1.44.33-1.82.97-.36.63-.55 1.65-.55 3.07z" stroke="#000" stroke-opacity="0" fill="#fff"/><path d="M1055.92 1180.2l24.08-7.2 24.1 7.2-24.1 7.2zM1055.92 1182.95v26.4l22.43 12.83.12-32.32zM1104.08 1182.95v26.4l-22.44 12.83-.1-32.32z" stroke="#000" stroke-opacity="0" stroke-width="3.77" fill="#fff"/><use xlink:href="#g" transform="matrix(1,0,0,1,990,1269) translate(61.60493827160494 17.77777777777778)"/><use xlink:href="#n" transform="matrix(1,0,0,1,990,1269) translate(61.69753086419753 44.44444444444444)"/><path d="M1022.16 1201h-1.98v-2h1.98m-9.9 2h-3.95v-2h3.97m-11.88 2h-3.96v-2h3.95m-11.88 2h-3.96v-2h3.96m-11.87 2h-3.96v-2h3.95m-11.88 2h-3.96v-2h3.97m-11.87 2h-3.96v-2h3.96m-11.88 2h-3.95v-2h3.95m-11.87 2h-3.96v-2h3.95m-11.87 2h-3.96v-2h3.96m-11.88 2h-3.95v-2h3.95m-11.87 2h-3.96v-2h3.96m-11.87 2h-3.96v-2h3.96m-11.88 2h-3.96v-2h3.96m-11.87 2h-3.95v-2h3.96m-11.86 2h-3.96v-2h3.96m-11.88 2h-3.96v-2h3.96m-11.87 2h-3.97v-2h3.96m-95 2h-3.96v-2h3.96m-11.88 2h-3.95v-2h3.95m-11.87 2h-3.96v-2h3.95m-11.87 2h-3.96v-2h3.96m-11.88 2h-3.95v-2h3.95m-11.87 2h-3.96v-2h3.96m-11.87 2h-3.96v-2h3.96m-11.88 2h-3.96v-2h3.96m-11.87 2h-3.95v-2h3.96m-11.87 2h-3.95v-2h3.95m-11.87 2h-3.96v-2h3.96m-11.87 2h-3.97v-2h3.96m-11.9 2h-3.94v-2h3.95m-11.86 2h-3.96v-2h3.96m-11.87 2h-3.96v-2h3.97m-11.88 2h-3.97v-2h3.96m-11.88 2h-1.98v-2h1.98m273.1 2h-3.46v-2h3.45" fill="#5e5e5e"/><path d="M1022.94 1201h-.8v-2h1.25M534.34 1204.64l-14.27-4.64 14.27-4.64z" fill="#5e5e5e"/><path d="M535.34 1206l-18.5-6 18.5-6m-12.03 6l10.04 3.26v-6.52" fill="#5e5e5e"/><use xlink:href="#o" transform="matrix(1,0,0,1,733.0370370370371,1189.3333333333333) translate(0 14.222222222222223)"/><path d="M1079.66 543.17c-1.14.1-2.05.34-2.96.8l-39.44 19.43c-2.16 1.02-3.64 2.84-4.1 5.23l-9.77 43.76c-.47 2.04-.13 4.08 1 5.9.13.23.24.34.47.57l27.28 35c1.48 1.94 3.52 2.97 5.9 2.97h43.9c2.38 0 4.42-1.03 5.9-2.96l27.28-35c1.48-1.94 2.05-4.2 1.48-6.6l-9.77-43.65c-.45-2.4-1.93-4.2-4.1-5.23l-39.43-19.44c-1.25-.57-2.4-.9-3.64-.8z" stroke="#000" stroke-opacity="0" stroke-width="3.83" fill="#326ce5"/><path d="M1079.64 540c-1.2.12-2.16.36-3.12.84l-41.64 20.52c-2.28 1.08-3.84 3-4.32 5.52l-10.32 46.2c-.48 2.16-.12 4.32 1.08 6.24.12.24.24.36.48.6l28.8 36.96c1.56 2.04 3.72 3.12 6.24 3.12h46.32c2.52 0 4.68-1.08 6.24-3.12l28.8-36.96c1.56-2.04 2.16-4.44 1.56-6.84l-10.32-46.2c-.48-2.52-2.04-4.44-4.32-5.52l-41.64-20.52c-1.32-.6-2.52-.96-3.84-.84zm0 3.24c1.32-.12 2.4.12 3.6.72l39.6 19.44c2.04 1.08 3.48 2.88 4.08 5.28l9.72 43.68c.48 2.4 0 4.56-1.44 6.48l-27.36 35.04c-1.44 1.92-3.48 3-5.88 3h-43.92c-2.4 0-4.44-1.08-5.88-3l-27.36-35.04c-.12-.12-.24-.36-.36-.6-1.2-1.8-1.56-3.72-1.08-5.88l9.72-43.68c.6-2.4 1.92-4.2 4.08-5.28l39.6-19.44c.96-.48 1.8-.72 2.88-.84z" stroke="#000" stroke-opacity="0" stroke-width="3.83" fill="#fff"/><path d="M1082.13 586.47v5.43h25.6v-5.43zM1068.98 571.95v5.44h38.76v-5.45zM1052.26 571.95v5.44h9.7v-5.45zM1083.07 600.97v5.45h24.67v-5.45zM1068.98 615.5v5.42h38.76v-5.43zM1052.26 615.5v5.42h9.7v-5.43z" stroke="#000" stroke-opacity="0" stroke-width="3.77" fill="#fff"/><path d="M1083.8 607.2c0 2.1-1.65 3.8-3.68 3.8-2.04 0-3.7-1.7-3.7-3.8 0-2.1 1.66-3.82 3.7-3.82 2.03 0 3.7 1.7 3.7 3.8z" stroke="#000" stroke-opacity="0" stroke-width="3.77" fill="#326ce5"/><path d="M1065.56 590.78l6.65.08c2.5-10.6 14.5-8.62 15.87.3l6.53-.38c-2.1-17.37-26.2-19.9-28.72-1.85z" stroke="#000" stroke-opacity="0" stroke-width="3.77" fill="#fff"/><path d="M1079.97 575.92c-8.74 0-15.9 6.87-15.9 15.4 2.5-.04 7.92.1 8.78 0 0-3.45 3.12-6.35 7.12-6.35s7.13 2.9 7.13 6.34c1.52.07 7.92-.28 8.77 0 0-8.5-7.15-15.38-15.9-15.38zm0 1.8c7.48 0 13.2 5.7 13.77 12.7h-5.3c-.55-4.06-4.02-7.26-8.47-7.26-4.45 0-7.92 3.2-8.46 7.25h-5.27c.54-6.98 6.27-12.67 13.74-12.67z" stroke="#000" stroke-opacity="0" stroke-width="3.77" fill="#326ce5"/><path d="M1060.88 591.46h37.8v24.26h-37.8v-24.26z" stroke="#000" stroke-opacity="0" stroke-width="3.77" fill="#fff"/><path d="M1060.57 590.18v26.9h39.13v-26.9zm1.76 1.83h35.6v23.25h-35.6z" stroke="#000" stroke-opacity="0" stroke-width="3.77" fill="#326ce5"/><path d="M1062.8 643.57c0 .96-.35 1.7-1.06 2.23-.7.52-1.7.78-2.96.78-1.23 0-2.2-.2-2.86-.62-.66-.43-1.1-1.08-1.3-1.97l1.46-.3c.13.54.43.95.86 1.2.45.26 1.06.4 1.84.4.84 0 1.45-.15 1.83-.4.4-.28.6-.68.6-1.2 0-.4-.13-.74-.4-1-.27-.23-.7-.44-1.3-.6l-1.2-.33c-.93-.25-1.6-.5-2-.74-.4-.24-.72-.54-.94-.9-.23-.33-.35-.76-.35-1.26 0-.93.33-1.64.98-2.12.64-.5 1.6-.74 2.82-.74 1.1 0 1.96.2 2.6.6.65.4 1.06 1.04 1.23 1.9l-1.5.2c-.08-.45-.32-.8-.72-1.04-.4-.25-.93-.36-1.6-.36-.74 0-1.3.1-1.65.35-.35.23-.53.58-.53 1.05 0 .3.07.53.22.72.14.18.36.35.64.48.3.14.9.32 1.82.55.88.22 1.5.43 1.9.63.38.2.68.4.9.64.22.23.4.5.52.8.13.3.18.66.18 1.05zM1066 641.64c0 1.17.24 2.08.72 2.7.46.65 1.15.97 2.06.97.7 0 1.3-.14 1.72-.44.43-.3.72-.66.87-1.12l1.45.42c-.6 1.62-1.94 2.42-4.04 2.42-1.47 0-2.6-.44-3.36-1.35-.76-.9-1.14-2.24-1.14-4 0-1.7.38-3 1.14-3.9.77-.9 1.87-1.35 3.3-1.35 2.9 0 4.37 1.8 4.37 5.43v.24zm5.38-1.3c-.1-1.08-.35-1.87-.8-2.36-.44-.5-1.07-.74-1.9-.74-.8 0-1.43.28-1.9.83-.47.55-.7 1.3-.75 2.27zM1076.45 641.24c0 1.36.2 2.36.63 3.02.4.66 1.04.98 1.87.98.6 0 1.08-.16 1.47-.5.4-.32.65-.82.74-1.5l1.66.1c-.13 1-.53 1.78-1.22 2.36-.68.6-1.54.88-2.6.88-1.4 0-2.45-.44-3.18-1.34-.73-.92-1.1-2.23-1.1-3.97 0-1.72.37-3.03 1.1-3.93.74-.9 1.8-1.36 3.16-1.36 1.02 0 1.86.28 2.52.82.68.54 1.1 1.28 1.27 2.23l-1.7.13c-.08-.56-.3-1.02-.65-1.34-.35-.34-.84-.5-1.48-.5-.88 0-1.5.3-1.9.9-.4.6-.6 1.6-.6 3.02zM1084.62 646.4v-7.85c0-.72-.02-1.5-.05-2.38h1.55l.08 2.1h.03c.27-.9.57-1.5.9-1.8.36-.34.84-.5 1.46-.5.2 0 .43.04.66.1v1.56c-.22-.06-.5-.1-.88-.1-.68 0-1.2.3-1.57.93-.35.6-.53 1.46-.53 2.6v5.33zM1092.12 641.64c0 1.17.23 2.08.7 2.7.47.65 1.16.97 2.07.97.7 0 1.27-.14 1.7-.44.44-.3.73-.66.88-1.12l1.45.42c-.6 1.62-1.94 2.42-4.04 2.42-1.48 0-2.6-.44-3.37-1.35-.77-.9-1.14-2.24-1.14-4 0-1.7.36-3 1.13-3.9.77-.9 1.87-1.35 3.3-1.35 2.9 0 4.36 1.8 4.36 5.43v.24zm5.37-1.3c-.1-1.08-.37-1.87-.8-2.36-.45-.5-1.08-.74-1.9-.74-.8 0-1.44.28-1.9.83-.48.55-.73 1.3-.76 2.27zM1105.12 646.3c-.55.17-1.1.24-1.67.24-1.32 0-1.98-.77-1.98-2.3v-6.84h-1.15v-1.23h1.2l.5-2.3h1.1v2.3h1.83v1.23h-1.83v6.46c0 .5.07.83.23 1.04.15.2.43.3.8.3.23 0 .55-.05.97-.14z" stroke="#000" stroke-opacity="0" fill="#fff"/><path d="M1083.82 603.63c0 2.1-1.65 3.8-3.7 3.8-2.03 0-3.68-1.7-3.68-3.8 0-2.1 1.65-3.8 3.7-3.8 2.03 0 3.68 1.7 3.68 3.8z" stroke="#000" stroke-opacity="0" stroke-width="3.77" fill="#326ce5"/><use xlink:href="#p" transform="matrix(1,0,0,1,990,669) translate(36.41975308641975 17.77777777777778)"/><use xlink:href="#d" transform="matrix(1,0,0,1,990,669) translate(112.77777777777777 17.77777777777778)"/><use xlink:href="#e" transform="matrix(1,0,0,1,990,669) translate(42.56172839506172 44.44444444444444)"/><path d="M277.84 600h10.1m10.1 0h20.18m10.1 0h20.18m10.1 0h20.2m10.08 0h20.2m10.08 0h20.2m10.1 0h20.18m10.1 0h20.18m10.1 0h20.2m10.08 0h20.2m10.1 0h20.18m10.1 0h20.18m10.1 0h20.18m10.1 0h20.2m10.08 0h20.2m10.1 0h20.18m10.1 0h20.18m10.1 0h20.18m10.1 0h20.2m10.08 0h20.2m10.1 0h20.18m10.1 0h20.18m10.1 0h20.2m10.08 0h20.2m10.1 0h10.08" stroke="#5e5e5e" stroke-width="2" fill="none"/><path d="M277.86 601h-.8l-.45-2h1.26" fill="#5e5e5e"/><path d="M1019.93 600l-14.27 4.64v-9.28z" stroke="#5e5e5e" stroke-width="2" fill="#5e5e5e"/><path d="M1081 1139.03h-2V910.68h2m0-21.33h-2V678.5h2" fill="#c92d39"/><path d="M1081 1140.1l-1.36-.1-.64.1v-1.1h2M1084.64 677.5h-9.28l4.64-14.26z" fill="#c92d39"/><path d="M1086 678.5h-12l6-18.5m-3.26 16.5h6.52l-3.26-10.03" fill="#c92d39"/><use xlink:href="#i" transform="matrix(1,0,0,1,1055.3827160493827,889.3473958333334) translate(0 14.222222222222223)"/><path d="M759.66 963.17c-1.14.1-2.05.34-2.96.8l-39.44 19.43c-2.16 1.02-3.64 2.84-4.1 5.23l-9.77 43.76c-.47 2.04-.13 4.08 1 5.9.13.23.24.34.47.57l27.28 35c1.48 1.94 3.52 2.97 5.9 2.97h43.9c2.38 0 4.42-1.03 5.9-2.96l27.28-35c1.48-1.94 2.05-4.2 1.48-6.6l-9.77-43.65c-.45-2.4-1.93-4.2-4.1-5.23l-39.43-19.44c-1.25-.57-2.4-.9-3.64-.8z" stroke="#000" stroke-opacity="0" stroke-width="3.83" fill="#326ce5"/><path d="M759.64 960c-1.2.12-2.16.36-3.12.84l-41.64 20.52c-2.28 1.08-3.84 3-4.32 5.52l-10.32 46.2c-.48 2.16-.12 4.32 1.08 6.24.12.24.24.36.48.6l28.8 36.96c1.56 2.04 3.72 3.12 6.24 3.12h46.32c2.52 0 4.68-1.08 6.24-3.12l28.8-36.96c1.56-2.04 2.16-4.44 1.56-6.84l-10.32-46.2c-.48-2.52-2.04-4.44-4.32-5.52l-41.64-20.52c-1.32-.6-2.52-.96-3.84-.84zm0 3.24c1.32-.12 2.4.12 3.6.72l39.6 19.44c2.04 1.08 3.48 2.88 4.08 5.28l9.72 43.68c.48 2.4 0 4.56-1.44 6.48l-27.36 35.04c-1.44 1.92-3.48 3-5.88 3h-43.92c-2.4 0-4.44-1.08-5.88-3l-27.36-35.04c-.12-.12-.24-.36-.36-.6-1.2-1.8-1.56-3.72-1.08-5.88l9.72-43.68c.6-2.4 1.92-4.2 4.08-5.28l39.6-19.44c.96-.48 1.8-.72 2.88-.84z" stroke="#000" stroke-opacity="0" stroke-width="3.83" fill="#fff"/><path d="M762.13 1006.47v5.43h25.6v-5.43zM748.98 991.95v5.44h38.76v-5.45zM732.26 991.95v5.44h9.7v-5.45zM763.07 1020.97v5.45h24.67v-5.45zM748.98 1035.5v5.42h38.76v-5.43zM732.26 1035.5v5.42h9.7v-5.43z" stroke="#000" stroke-opacity="0" stroke-width="3.77" fill="#fff"/><path d="M763.8 1027.2c0 2.1-1.65 3.8-3.68 3.8-2.04 0-3.7-1.7-3.7-3.8 0-2.1 1.66-3.82 3.7-3.82 2.03 0 3.7 1.7 3.7 3.8z" stroke="#000" stroke-opacity="0" stroke-width="3.77" fill="#326ce5"/><path d="M745.56 1010.78l6.65.08c2.5-10.6 14.5-8.62 15.87.3l6.53-.38c-2.1-17.37-26.2-19.9-28.72-1.85z" stroke="#000" stroke-opacity="0" stroke-width="3.77" fill="#fff"/><path d="M759.97 995.92c-8.74 0-15.9 6.87-15.9 15.4 2.5-.04 7.92.1 8.78 0 0-3.45 3.12-6.35 7.12-6.35s7.13 2.9 7.13 6.34c1.52.07 7.92-.28 8.77 0 0-8.5-7.15-15.38-15.9-15.38zm0 1.8c7.48 0 13.2 5.7 13.77 12.7h-5.3c-.55-4.06-4.02-7.26-8.47-7.26-4.45 0-7.92 3.2-8.46 7.25h-5.27c.54-6.98 6.27-12.67 13.74-12.67z" stroke="#000" stroke-opacity="0" stroke-width="3.77" fill="#326ce5"/><path d="M740.88 1011.46h37.8v24.26h-37.8v-24.26z" stroke="#000" stroke-opacity="0" stroke-width="3.77" fill="#fff"/><path d="M740.57 1010.18v26.9h39.13v-26.9zm1.76 1.83h35.6v23.25h-35.6z" stroke="#000" stroke-opacity="0" stroke-width="3.77" fill="#326ce5"/><path d="M742.8 1063.57c0 .96-.35 1.7-1.06 2.23-.7.52-1.7.78-2.96.78-1.23 0-2.2-.2-2.86-.62-.66-.43-1.1-1.08-1.3-1.97l1.46-.3c.13.54.43.95.86 1.2.45.26 1.06.4 1.84.4.84 0 1.45-.15 1.83-.4.4-.28.6-.68.6-1.2 0-.4-.13-.74-.4-1-.27-.23-.7-.44-1.3-.6l-1.2-.33c-.93-.25-1.6-.5-2-.74-.4-.24-.72-.54-.94-.9-.23-.33-.35-.76-.35-1.26 0-.93.33-1.64.98-2.12.64-.5 1.6-.74 2.82-.74 1.1 0 1.96.2 2.6.6.65.4 1.06 1.04 1.23 1.9l-1.5.2c-.08-.45-.32-.8-.72-1.04-.4-.25-.93-.36-1.6-.36-.74 0-1.3.1-1.65.35-.35.23-.53.58-.53 1.05 0 .3.07.53.22.72.14.18.36.35.64.48.3.14.9.32 1.82.55.88.22 1.5.43 1.9.63.38.2.68.4.9.64.22.23.4.5.52.8.13.3.18.66.18 1.05zM746 1061.64c0 1.17.24 2.08.72 2.7.46.65 1.15.97 2.06.97.7 0 1.3-.14 1.72-.44.43-.3.72-.66.87-1.12l1.45.42c-.6 1.62-1.94 2.42-4.04 2.42-1.47 0-2.6-.44-3.36-1.35-.76-.9-1.14-2.24-1.14-4 0-1.7.38-3 1.14-3.9.77-.9 1.87-1.35 3.3-1.35 2.9 0 4.37 1.8 4.37 5.43v.24zm5.38-1.3c-.1-1.08-.35-1.87-.8-2.36-.44-.5-1.07-.74-1.9-.74-.8 0-1.43.28-1.9.83-.47.55-.7 1.3-.75 2.27zM756.45 1061.24c0 1.36.2 2.36.63 3.02.4.66 1.04.98 1.87.98.6 0 1.08-.16 1.47-.5.4-.32.65-.82.74-1.5l1.66.1c-.13 1-.53 1.78-1.22 2.36-.68.6-1.54.88-2.6.88-1.4 0-2.45-.44-3.18-1.34-.73-.92-1.1-2.23-1.1-3.97 0-1.72.37-3.03 1.1-3.93.74-.9 1.8-1.36 3.16-1.36 1.02 0 1.86.28 2.52.82.68.54 1.1 1.28 1.27 2.23l-1.7.13c-.08-.56-.3-1.02-.65-1.34-.35-.34-.84-.5-1.48-.5-.88 0-1.5.3-1.9.9-.4.6-.6 1.6-.6 3.02zM764.62 1066.4v-7.85c0-.72-.02-1.5-.05-2.38h1.55l.08 2.1h.03c.27-.9.57-1.5.9-1.8.36-.34.84-.5 1.46-.5.2 0 .43.04.66.1v1.56c-.22-.06-.5-.1-.88-.1-.68 0-1.2.3-1.57.93-.35.6-.53 1.46-.53 2.6v5.33zM772.12 1061.64c0 1.17.23 2.08.7 2.7.47.65 1.16.97 2.07.97.7 0 1.27-.14 1.7-.44.44-.3.73-.66.88-1.12l1.45.42c-.6 1.62-1.94 2.42-4.04 2.42-1.48 0-2.6-.44-3.37-1.35-.77-.9-1.14-2.24-1.14-4 0-1.7.36-3 1.13-3.9.77-.9 1.87-1.35 3.3-1.35 2.9 0 4.36 1.8 4.36 5.43v.24zm5.37-1.3c-.1-1.08-.37-1.87-.8-2.36-.45-.5-1.08-.74-1.9-.74-.8 0-1.44.28-1.9.83-.48.55-.73 1.3-.76 2.27zM785.12 1066.3c-.55.17-1.1.24-1.67.24-1.32 0-1.98-.77-1.98-2.3v-6.84h-1.15v-1.23h1.2l.5-2.3h1.1v2.3h1.83v1.23h-1.83v6.46c0 .5.07.83.23 1.04.15.2.43.3.8.3.23 0 .55-.05.97-.14z" stroke="#000" stroke-opacity="0" fill="#fff"/><path d="M763.82 1023.63c0 2.1-1.65 3.8-3.7 3.8-2.03 0-3.68-1.7-3.68-3.8 0-2.1 1.65-3.8 3.7-3.8 2.03 0 3.68 1.7 3.68 3.8z" stroke="#000" stroke-opacity="0" stroke-width="3.77" fill="#326ce5"/><use xlink:href="#q" transform="matrix(1,0,0,1,670,1089) translate(39.44444444444446 17.77777777777778)"/><use xlink:href="#l" transform="matrix(1,0,0,1,670,1089) translate(110.92592592592592 17.77777777777778)"/><use xlink:href="#r" transform="matrix(1,0,0,1,670,1089) translate(40.12345679012345 44.44444444444444)"/><path d="M761 941.53h-2v-2.06h2m0-8.23h-2v-4.12h2m0-8.23h-2v-4.13h2m0-8.23h-2v-4.12h2m0-8.23h-2v-4.12h2m0-8.24h-2v-1.16h2m0-23.53h-2v-4.12h2m0-8.23h-2v-4.12h2m0-8.23h-2v-4.12h2m0-8.23h-2V816h2m0-8.25h-2v-4.1h2m0-8.24h-2v-4.1h2m0-8.24h-2V781h2" fill="#5e5e5e"/><path d="M761 781.03h-2V780h2M760 956.8l-4.64-14.27h9.28z" fill="#5e5e5e"/><path d="M760 960.03l-6-18.5h12m-9.26 2l3.26 10.03 3.26-10.03" fill="#5e5e5e"/><g><use xlink:href="#o" transform="matrix(1,0,0,1,723.0370370370371,859.3473958333334) translate(0 14.222222222222223)"/></g><path d="M890.8 922.24l-7.22 20.8-5.75 14.56-4.82 10.86-4.16 8.43-3.7 6.7-3.3 5.48-3 4.54-2.77 3.8-2.56 3.23-2.37 2.77-2.24 2.4-2.13 2.06-2.02 1.82-1.92 1.6-1.85 1.4-1.78 1.24-1.73 1.1-1.68.97-.74.4-.93-1.78.7-.37 1.6-.93 1.66-1.05 1.7-1.2 1.78-1.34 1.86-1.54 1.96-1.77 2.06-2.02 2.18-2.32 2.33-2.7 2.5-3.17 2.72-3.72 2.95-4.47 3.27-5.4 3.65-6.64 4.13-8.35 4.8-10.77 5.7-14.48 7.18-20.7 26.7-101.14h2.07m104.53-219.48h-.56l-1.5.1-1.5.16-1.47.22-1.46.28-1.48.35-1.46.4-1.48.48-1.5.57-1.5.63-1.53.73-1.57.82-1.6.93-1.67 1.05-1.7 1.2-1.78 1.34-1.86 1.54-1.96 1.77-2.06 2.02-2.18 2.32-2.33 2.7-2.5 3.17-2.72 3.72-2.95 4.47-3.27 5.4-3.65 6.64-4.13 8.35-4.8 10.77-5.7 14.48-7.18 20.7-10.2 34.03-17.63 66.8h-2.08L939 731.84l10.2-34.1 7.22-20.8 5.75-14.54 4.82-10.86 4.16-8.43 3.7-6.7 3.3-5.48 3-4.54 2.77-3.8 2.56-3.23 2.37-2.77 2.24-2.4 2.13-2.06 2.02-1.82 1.92-1.6 1.85-1.4 1.78-1.24 1.73-1.1 1.68-.97 1.66-.87 1.6-.75 1.6-.67 1.56-.57 1.56-.5 1.54-.44 1.55-.38 1.55-.3 1.56-.22 1.57-.17 1.6-.1h.6" fill="#c92d39"/><path d="M1022.94 601l-.8.02-.03-2 1.3-.02M834.94 1020.2l-14.96-1 12.7-8z" fill="#c92d39"/><path d="M836.25 1021.28l-19.4-1.28 16.45-10.37m-10.2 8.78l10.54.7-1.6-6.3" fill="#c92d39"/><g><use xlink:href="#m" transform="matrix(1,0,0,1,896.2764945971514,799.1763227823004) translate(0 14.222222222222223)"/></g><defs><path fill="#333" d="M212-179c-10-28-35-45-73-45-59 0-87 40-87 99 0 60 29 101 89 101 43 0 62-24 78-52l27 14C228-24 195 4 139 4 59 4 22-46 18-125c-6-104 99-153 187-111 19 9 31 26 39 46" id="s"/><path fill="#333" d="M24 0v-261h32V0H24" id="t"/><path fill="#333" d="M84 4C-5 8 30-112 23-190h32v120c0 31 7 50 39 49 72-2 45-101 50-169h31l1 190h-30c-1-10 1-25-2-33-11 22-28 36-60 37" id="u"/><path fill="#333" d="M135-143c-3-34-86-38-87 0 15 53 115 12 119 90S17 21 10-45l28-5c4 36 97 45 98 0-10-56-113-15-118-90-4-57 82-63 122-42 12 7 21 19 24 35" id="v"/><path fill="#333" d="M59-47c-2 24 18 29 38 22v24C64 9 27 4 27-40v-127H5v-23h24l9-43h21v43h35v23H59v120" id="w"/><path fill="#333" d="M100-194c63 0 86 42 84 106H49c0 40 14 67 53 68 26 1 43-12 49-29l28 8c-11 28-37 45-77 45C44 4 14-33 15-96c1-61 26-98 85-98zm52 81c6-60-76-77-97-28-3 7-6 17-6 28h103" id="x"/><path fill="#333" d="M114-163C36-179 61-72 57 0H25l-1-190h30c1 12-1 29 2 39 6-27 23-49 58-41v29" id="y"/><g id="a"><use transform="matrix(0.06172839506172839,0,0,0.06172839506172839,0,0)" xlink:href="#s"/><use transform="matrix(0.06172839506172839,0,0,0.06172839506172839,15.987654320987653,0)" xlink:href="#t"/><use transform="matrix(0.06172839506172839,0,0,0.06172839506172839,20.864197530864196,0)" xlink:href="#u"/><use transform="matrix(0.06172839506172839,0,0,0.06172839506172839,33.20987654320987,0)" xlink:href="#v"/><use transform="matrix(0.06172839506172839,0,0,0.06172839506172839,44.32098765432099,0)" xlink:href="#w"/><use transform="matrix(0.06172839506172839,0,0,0.06172839506172839,50.49382716049383,0)" xlink:href="#x"/><use transform="matrix(0.06172839506172839,0,0,0.06172839506172839,62.839506172839506,0)" xlink:href="#y"/></g><path fill="#333" d="M140-251c81 0 123 46 123 126C263-46 219 4 140 4 59 4 17-45 17-125s42-126 123-126zm0 227c63 0 89-41 89-101s-29-99-89-99c-61 0-89 39-89 99S79-25 140-24" id="z"/><path fill="#333" d="M115-194c55 1 70 41 70 98S169 2 115 4C84 4 66-9 55-30l1 105H24l-1-265h31l2 30c10-21 28-34 59-34zm-8 174c40 0 45-34 45-75s-6-73-45-74c-42 0-51 32-51 76 0 43 10 73 51 73" id="A"/><path fill="#333" d="M141-36C126-15 110 5 73 4 37 3 15-17 15-53c-1-64 63-63 125-63 3-35-9-54-41-54-24 1-41 7-42 31l-33-3c5-37 33-52 76-52 45 0 72 20 72 64v82c-1 20 7 32 28 27v20c-31 9-61-2-59-35zM48-53c0 20 12 33 32 33 41-3 63-29 60-74-43 2-92-5-92 41" id="B"/><path fill="#333" d="M100-194c62-1 85 37 85 99 1 63-27 99-86 99S16-35 15-95c0-66 28-99 85-99zM99-20c44 1 53-31 53-75 0-43-8-75-51-75s-53 32-53 75 10 74 51 75" id="C"/><g id="b"><use transform="matrix(0.06172839506172839,0,0,0.06172839506172839,0,0)" xlink:href="#z"/><use transform="matrix(0.06172839506172839,0,0,0.06172839506172839,17.28395061728395,0)" xlink:href="#A"/><use transform="matrix(0.06172839506172839,0,0,0.06172839506172839,29.629629629629626,0)" xlink:href="#x"/><use transform="matrix(0.06172839506172839,0,0,0.06172839506172839,41.9753086419753,0)" xlink:href="#y"/><use transform="matrix(0.06172839506172839,0,0,0.06172839506172839,49.32098765432098,0)" xlink:href="#B"/><use transform="matrix(0.06172839506172839,0,0,0.06172839506172839,61.66666666666666,0)" xlink:href="#w"/><use transform="matrix(0.06172839506172839,0,0,0.06172839506172839,67.83950617283949,0)" xlink:href="#C"/><use transform="matrix(0.06172839506172839,0,0,0.06172839506172839,80.18518518518518,0)" xlink:href="#y"/></g><path fill="#333" d="M24-231v-30h32v30H24zM24 0v-190h32V0H24" id="D"/><path fill="#333" d="M117-194c89-4 53 116 60 194h-32v-121c0-31-8-49-39-48C34-167 62-67 57 0H25l-1-190h30c1 10-1 24 2 32 11-22 29-35 61-36" id="E"/><g id="c"><use transform="matrix(0.06172839506172839,0,0,0.06172839506172839,0,0)" xlink:href="#s"/><use transform="matrix(0.06172839506172839,0,0,0.06172839506172839,15.987654320987653,0)" xlink:href="#t"/><use transform="matrix(0.06172839506172839,0,0,0.06172839506172839,20.864197530864196,0)" xlink:href="#D"/><use transform="matrix(0.06172839506172839,0,0,0.06172839506172839,25.74074074074074,0)" xlink:href="#x"/><use transform="matrix(0.06172839506172839,0,0,0.06172839506172839,38.08641975308642,0)" xlink:href="#E"/><use transform="matrix(0.06172839506172839,0,0,0.06172839506172839,50.432098765432094,0)" xlink:href="#w"/><use transform="matrix(0.06172839506172839,0,0,0.06172839506172839,56.60493827160494,0)" xlink:href="#v"/></g><path fill="#333" d="M205 0l-28-72H64L36 0H1l101-248h38L239 0h-34zm-38-99l-47-123c-12 45-31 82-46 123h93" id="F"/><g id="d"><use transform="matrix(0.06172839506172839,0,0,0.06172839506172839,0,0)" xlink:href="#s"/><use transform="matrix(0.06172839506172839,0,0,0.06172839506172839,15.987654320987653,0)" xlink:href="#F"/></g><path fill="#333" d="M96-169c-40 0-48 33-48 73s9 75 48 75c24 0 41-14 43-38l32 2c-6 37-31 61-74 61-59 0-76-41-82-99-10-93 101-131 147-64 4 7 5 14 7 22l-32 3c-4-21-16-35-41-35" id="G"/><path fill="#333" d="M101-234c-31-9-42 10-38 44h38v23H63V0H32v-167H5v-23h27c-7-52 17-82 69-68v24" id="H"/><g id="e"><use transform="matrix(0.06172839506172839,0,0,0.06172839506172839,0,0)" xlink:href="#G"/><use transform="matrix(0.06172839506172839,0,0,0.06172839506172839,11.11111111111111,0)" xlink:href="#x"/><use transform="matrix(0.06172839506172839,0,0,0.06172839506172839,23.45679012345679,0)" xlink:href="#y"/><use transform="matrix(0.06172839506172839,0,0,0.06172839506172839,30.80246913580247,0)" xlink:href="#w"/><use transform="matrix(0.06172839506172839,0,0,0.06172839506172839,36.97530864197531,0)" xlink:href="#D"/><use transform="matrix(0.06172839506172839,0,0,0.06172839506172839,41.851851851851855,0)" xlink:href="#H"/><use transform="matrix(0.06172839506172839,0,0,0.06172839506172839,48.0246913580247,0)" xlink:href="#D"/><use transform="matrix(0.06172839506172839,0,0,0.06172839506172839,52.90123456790124,0)" xlink:href="#G"/><use transform="matrix(0.06172839506172839,0,0,0.06172839506172839,64.01234567901236,0)" xlink:href="#B"/><use transform="matrix(0.06172839506172839,0,0,0.06172839506172839,76.35802469135804,0)" xlink:href="#w"/><use transform="matrix(0.06172839506172839,0,0,0.06172839506172839,82.53086419753087,0)" xlink:href="#x"/></g><path fill="#333" d="M25-224v-37h50v37H25zM25 0v-190h50V0H25" id="I"/><path fill="#333" d="M137-138c1-29-70-34-71-4 15 46 118 7 119 86 1 83-164 76-172 9l43-7c4 19 20 25 44 25 33 8 57-30 24-41C81-84 22-81 20-136c-2-80 154-74 161-7" id="J"/><path fill="#333" d="M85 4C-2 5 27-109 22-190h50c7 57-23 150 33 157 60-5 35-97 40-157h50l1 190h-47c-2-12 1-28-3-38-12 25-28 42-61 42" id="K"/><path fill="#333" d="M185-48c-13 30-37 53-82 52C43 2 14-33 14-96s30-98 90-98c62 0 83 45 84 108H66c0 31 8 55 39 56 18 0 30-7 34-22zm-45-69c5-46-57-63-70-21-2 6-4 13-4 21h74" id="L"/><g id="f"><use transform="matrix(0.04938271604938272,0,0,0.04938271604938272,0,0)" xlink:href="#I"/><use transform="matrix(0.04938271604938272,0,0,0.04938271604938272,4.938271604938272,0)" xlink:href="#J"/><use transform="matrix(0.04938271604938272,0,0,0.04938271604938272,14.814814814814817,0)" xlink:href="#J"/><use transform="matrix(0.04938271604938272,0,0,0.04938271604938272,24.69135802469136,0)" xlink:href="#K"/><use transform="matrix(0.04938271604938272,0,0,0.04938271604938272,35.50617283950618,0)" xlink:href="#L"/><use transform="matrix(0.04938271604938272,0,0,0.04938271604938272,45.38271604938272,0)" xlink:href="#J"/></g><path fill="#333" d="M194 0L95-120 63-95V0H30v-248h33v124l119-124h40L117-140 236 0h-42" id="M"/><path fill="#333" d="M143 0L79-87 56-68V0H24v-261h32v163l83-92h37l-77 82L181 0h-38" id="N"/><g id="g"><use transform="matrix(0.06172839506172839,0,0,0.06172839506172839,0,0)" xlink:href="#M"/><use transform="matrix(0.06172839506172839,0,0,0.06172839506172839,14.814814814814813,0)" xlink:href="#B"/><use transform="matrix(0.06172839506172839,0,0,0.06172839506172839,27.160493827160494,0)" xlink:href="#H"/><use transform="matrix(0.06172839506172839,0,0,0.06172839506172839,33.333333333333336,0)" xlink:href="#N"/><use transform="matrix(0.06172839506172839,0,0,0.06172839506172839,44.44444444444444,0)" xlink:href="#B"/></g><path fill="#333" d="M160-131c35 5 61 23 61 61C221 17 115-2 30 0v-248c76 3 177-17 177 60 0 33-19 50-47 57zm-97-11c50-1 110 9 110-42 0-47-63-36-110-37v79zm0 115c55-2 124 14 124-45 0-56-70-42-124-44v89" id="O"/><g id="h"><use transform="matrix(0.06172839506172839,0,0,0.06172839506172839,0,0)" xlink:href="#O"/><use transform="matrix(0.06172839506172839,0,0,0.06172839506172839,14.814814814814813,0)" xlink:href="#y"/><use transform="matrix(0.06172839506172839,0,0,0.06172839506172839,22.160493827160494,0)" xlink:href="#C"/><use transform="matrix(0.06172839506172839,0,0,0.06172839506172839,34.50617283950617,0)" xlink:href="#N"/><use transform="matrix(0.06172839506172839,0,0,0.06172839506172839,45.61728395061728,0)" xlink:href="#x"/><use transform="matrix(0.06172839506172839,0,0,0.06172839506172839,57.962962962962955,0)" xlink:href="#y"/></g><path fill="#333" d="M115-3C79 11 28 4 28-45v-112H4v-33h27l15-45h31v45h36v33H77v99c-1 23 16 31 38 25v30" id="P"/><path fill="#333" d="M135-150c-39-12-60 13-60 57V0H25l-1-190h47c2 13-1 29 3 40 6-28 27-53 61-41v41" id="Q"/><g id="i"><use transform="matrix(0.04938271604938272,0,0,0.04938271604938272,0,0)" xlink:href="#P"/><use transform="matrix(0.04938271604938272,0,0,0.04938271604938272,5.8765432098765435,0)" xlink:href="#Q"/><use transform="matrix(0.04938271604938272,0,0,0.04938271604938272,12.790123456790125,0)" xlink:href="#K"/><use transform="matrix(0.04938271604938272,0,0,0.04938271604938272,23.604938271604937,0)" xlink:href="#J"/><use transform="matrix(0.04938271604938272,0,0,0.04938271604938272,33.48148148148148,0)" xlink:href="#P"/><use transform="matrix(0.04938271604938272,0,0,0.04938271604938272,39.358024691358025,0)" xlink:href="#J"/></g><path fill="#333" d="M232-93c-1 65-40 97-104 97C67 4 28-28 28-90v-158h33c8 89-33 224 67 224 102 0 64-133 71-224h33v155" id="R"/><g id="j"><use transform="matrix(0.06172839506172839,0,0,0.06172839506172839,0,0)" xlink:href="#R"/><use transform="matrix(0.06172839506172839,0,0,0.06172839506172839,15.987654320987653,0)" xlink:href="#v"/><use transform="matrix(0.06172839506172839,0,0,0.06172839506172839,27.098765432098766,0)" xlink:href="#x"/><use transform="matrix(0.06172839506172839,0,0,0.06172839506172839,39.44444444444444,0)" xlink:href="#y"/></g><g id="k"><use transform="matrix(0.06172839506172839,0,0,0.06172839506172839,0,0)" xlink:href="#u"/><use transform="matrix(0.06172839506172839,0,0,0.06172839506172839,12.345679012345679,0)" xlink:href="#v"/><use transform="matrix(0.06172839506172839,0,0,0.06172839506172839,23.45679012345679,0)" xlink:href="#x"/><use transform="matrix(0.06172839506172839,0,0,0.06172839506172839,35.80246913580247,0)" xlink:href="#y"/></g><path fill="#333" d="M30 0v-248h187v28H63v79h144v27H63v87h162V0H30" id="S"/><g id="l"><use transform="matrix(0.06172839506172839,0,0,0.06172839506172839,0,0)" xlink:href="#S"/><use transform="matrix(0.06172839506172839,0,0,0.06172839506172839,14.814814814814813,0)" xlink:href="#S"/></g><path fill="#333" d="M195-6C206 82 75 100 31 46c-4-6-6-13-8-21l49-6c3 16 16 24 34 25 40 0 42-37 40-79-11 22-30 35-61 35-53 0-70-43-70-97 0-56 18-96 73-97 30 0 46 14 59 34l2-30h47zm-90-29c32 0 41-27 41-63 0-35-9-62-40-62-32 0-39 29-40 63 0 36 9 62 39 62" id="T"/><path fill="#333" d="M135-194c87-1 58 113 63 194h-50c-7-57 23-157-34-157-59 0-34 97-39 157H25l-1-190h47c2 12-1 28 3 38 12-26 28-41 61-42" id="U"/><g id="m"><use transform="matrix(0.04938271604938272,0,0,0.04938271604938272,0,0)" xlink:href="#J"/><use transform="matrix(0.04938271604938272,0,0,0.04938271604938272,9.876543209876544,0)" xlink:href="#I"/><use transform="matrix(0.04938271604938272,0,0,0.04938271604938272,14.814814814814817,0)" xlink:href="#T"/><use transform="matrix(0.04938271604938272,0,0,0.04938271604938272,25.629629629629633,0)" xlink:href="#U"/><use transform="matrix(0.04938271604938272,0,0,0.04938271604938272,36.44444444444445,0)" xlink:href="#J"/></g><g id="n"><use transform="matrix(0.06172839506172839,0,0,0.06172839506172839,0,0)" xlink:href="#s"/><use transform="matrix(0.06172839506172839,0,0,0.06172839506172839,15.987654320987653,0)" xlink:href="#t"/><use transform="matrix(0.06172839506172839,0,0,0.06172839506172839,20.864197530864196,0)" xlink:href="#D"/><use transform="matrix(0.06172839506172839,0,0,0.06172839506172839,25.74074074074074,0)" xlink:href="#x"/><use transform="matrix(0.06172839506172839,0,0,0.06172839506172839,38.08641975308642,0)" xlink:href="#E"/><use transform="matrix(0.06172839506172839,0,0,0.06172839506172839,50.432098765432094,0)" xlink:href="#w"/></g><path fill="#333" d="M135-194c53 0 70 44 70 98 0 56-19 98-73 100-31 1-45-17-59-34 3 33 2 69 2 105H25l-1-265h48c2 10 0 23 3 31 11-24 29-35 60-35zM114-30c33 0 39-31 40-66 0-38-9-64-40-64-56 0-55 130 0 130" id="V"/><g id="o"><use transform="matrix(0.04938271604938272,0,0,0.04938271604938272,0,0)" xlink:href="#V"/><use transform="matrix(0.04938271604938272,0,0,0.04938271604938272,10.814814814814815,0)" xlink:href="#Q"/><use transform="matrix(0.04938271604938272,0,0,0.04938271604938272,17.728395061728396,0)" xlink:href="#L"/><use transform="matrix(0.04938271604938272,0,0,0.04938271604938272,27.60493827160494,0)" xlink:href="#J"/><use transform="matrix(0.04938271604938272,0,0,0.04938271604938272,37.48148148148148,0)" xlink:href="#L"/><use transform="matrix(0.04938271604938272,0,0,0.04938271604938272,47.358024691358025,0)" xlink:href="#U"/><use transform="matrix(0.04938271604938272,0,0,0.04938271604938272,58.17283950617284,0)" xlink:href="#P"/><use transform="matrix(0.04938271604938272,0,0,0.04938271604938272,64.04938271604938,0)" xlink:href="#J"/></g><g id="p"><use transform="matrix(0.06172839506172839,0,0,0.06172839506172839,0,0)" xlink:href="#s"/><use transform="matrix(0.06172839506172839,0,0,0.06172839506172839,15.987654320987653,0)" xlink:href="#t"/><use transform="matrix(0.06172839506172839,0,0,0.06172839506172839,20.864197530864196,0)" xlink:href="#u"/><use transform="matrix(0.06172839506172839,0,0,0.06172839506172839,33.20987654320987,0)" xlink:href="#v"/><use transform="matrix(0.06172839506172839,0,0,0.06172839506172839,44.32098765432099,0)" xlink:href="#w"/><use transform="matrix(0.06172839506172839,0,0,0.06172839506172839,50.49382716049383,0)" xlink:href="#x"/><use transform="matrix(0.06172839506172839,0,0,0.06172839506172839,62.839506172839506,0)" xlink:href="#y"/></g><g id="q"><use transform="matrix(0.06172839506172839,0,0,0.06172839506172839,0,0)" xlink:href="#O"/><use transform="matrix(0.06172839506172839,0,0,0.06172839506172839,14.814814814814813,0)" xlink:href="#y"/><use transform="matrix(0.06172839506172839,0,0,0.06172839506172839,22.160493827160494,0)" xlink:href="#C"/><use transform="matrix(0.06172839506172839,0,0,0.06172839506172839,34.50617283950617,0)" xlink:href="#N"/><use transform="matrix(0.06172839506172839,0,0,0.06172839506172839,45.61728395061728,0)" xlink:href="#x"/><use transform="matrix(0.06172839506172839,0,0,0.06172839506172839,57.962962962962955,0)" xlink:href="#y"/></g><g id="r"><use transform="matrix(0.06172839506172839,0,0,0.06172839506172839,0,0)" xlink:href="#s"/><use transform="matrix(0.06172839506172839,0,0,0.06172839506172839,15.987654320987653,0)" xlink:href="#x"/><use transform="matrix(0.06172839506172839,0,0,0.06172839506172839,28.333333333333332,0)" xlink:href="#y"/><use transform="matrix(0.06172839506172839,0,0,0.06172839506172839,35.67901234567901,0)" xlink:href="#w"/><use transform="matrix(0.06172839506172839,0,0,0.06172839506172839,41.851851851851855,0)" xlink:href="#D"/><use transform="matrix(0.06172839506172839,0,0,0.06172839506172839,46.7283950617284,0)" xlink:href="#H"/><use transform="matrix(0.06172839506172839,0,0,0.06172839506172839,52.90123456790124,0)" xlink:href="#D"/><use transform="matrix(0.06172839506172839,0,0,0.06172839506172839,57.777777777777786,0)" xlink:href="#G"/><use transform="matrix(0.06172839506172839,0,0,0.06172839506172839,68.8888888888889,0)" xlink:href="#B"/><use transform="matrix(0.06172839506172839,0,0,0.06172839506172839,81.23456790123458,0)" xlink:href="#w"/><use transform="matrix(0.06172839506172839,0,0,0.06172839506172839,87.40740740740742,0)" xlink:href="#x"/></g></defs></g></svg>