<svg xmlns="http://www.w3.org/2000/svg" xmlns:xlink="http://www.w3.org/1999/xlink" xmlns:lucid="lucid" width="870.87" height="868.01"><g transform="translate(-15.201940916226675 -12.65306122448986)" lucid:page-tab-id="0_0"><path d="M0 0h932.28v1322.83H0z" fill="#fff"/><path d="M810.8 689.02h-2v-262h2m0-21.35h-2v-244.5h2" fill="#c92d39"/><path d="M810.8 690.1l-1.33-.1-.67.1V689h2M814.43 160.16h-9.27l4.64-14.27z" fill="#c92d39"/><path d="M815.8 161.16H803.8l6.02-18.5m-3.26 16.5h6.5l-3.24-10.03" fill="#c92d39"/><use xlink:href="#a" transform="matrix(1,0,0,1,785.1786344167298,405.6727548215903) translate(0 14.222222222222223)"/><path d="M292.02 671.52h-2V558.47h2m0-21.33h-2V406.6h2M291.02 686.8l-4.63-14.28h9.26z" fill="#c92d39"/><path d="M291.02 690.02l-6-18.5h12m-9.26 2l3.26 10.03 3.26-10.03M292.02 406.62h-2v-1.03h2" fill="#c92d39"/><use xlink:href="#b" transform="matrix(1,0,0,1,267.8599143361048,537.1412862901217) translate(0 14.222222222222223)"/><path d="M89.9 35.56c-1.05.1-1.9.3-2.72.73L51.02 54.1c-1.98.94-3.33 2.6-3.75 4.8L38.3 99.02c-.4 1.87-.1 3.75.95 5.4.1.22.2.33.4.53l25.02 32.1c1.36 1.77 3.23 2.7 5.42 2.7h40.22c2.18 0 4.06-.93 5.4-2.7l25.02-32.1c1.36-1.77 1.88-3.85 1.36-6.04l-8.96-40c-.42-2.2-1.78-3.86-3.76-4.8L93.23 36.3c-1.15-.53-2.2-.85-3.34-.74z" stroke="#000" stroke-opacity="0" stroke-width="3.83" fill="#326ce5"/><path d="M89.87 32.65c-1.1.1-1.98.33-2.86.77l-38.16 18.8c-2.1 1-3.52 2.76-3.96 5.07l-9.46 42.35c-.44 1.98-.1 3.96 1 5.72.1.22.2.33.43.55l26.4 33.88c1.43 1.87 3.4 2.86 5.72 2.86h42.46c2.3 0 4.3-1 5.73-2.86l26.4-33.88c1.43-1.87 1.98-4.07 1.43-6.27l-9.47-42.36c-.44-2.32-1.87-4.08-3.96-5.07L93.4 33.43c-1.22-.56-2.32-.9-3.53-.78zm0 2.97c1.2-.1 2.2.1 3.3.66l36.3 17.82c1.88 1 3.2 2.64 3.75 4.84l8.9 40.05c.45 2.2 0 4.17-1.3 5.93l-25.1 32.12c-1.3 1.76-3.2 2.75-5.4 2.75H70.08c-2.2 0-4.07-1-5.4-2.75L39.6 104.93c-.1-.1-.22-.33-.33-.55-1.1-1.65-1.43-3.4-1-5.4l8.92-40.04c.54-2.2 1.75-3.85 3.73-4.84l36.3-17.82c.88-.44 1.65-.66 2.64-.77z" stroke="#000" stroke-opacity="0" stroke-width="3.83" fill="#fff"/><path d="M84.73 126.22c0 3.26-1.12 4.9-3.35 4.9-1.4 0-2.34-.54-2.82-1.64h-.04c.02.06.03.55.03 1.48v3.67h-1.5v-11.15c0-.96-.03-1.6-.06-1.9h1.45s.02.1.02.24c.02.14.03.35.04.66l.04.6h.03c.27-.57.62-1 1.06-1.26.45-.28 1.03-.4 1.75-.4 1.13 0 1.96.37 2.5 1.15.57.77.85 1.98.85 3.65zm-1.6.03c0-1.3-.16-2.24-.5-2.8-.35-.56-.9-.84-1.63-.84-.6 0-1.07.14-1.4.4-.35.26-.6.67-.8 1.22-.16.55-.25 1.27-.25 2.14 0 1.25.2 2.15.57 2.73.38.57 1 .86 1.86.86.75 0 1.3-.28 1.63-.85.36-.55.54-1.5.54-2.85zM94.3 126.25c0 1.64-.34 2.87-1.04 3.67-.7.8-1.72 1.2-3.06 1.2-1.32 0-2.32-.42-3-1.24-.68-.85-1.02-2.05-1.02-3.63 0-3.23 1.36-4.85 4.08-4.85 1.4 0 2.4.4 3.06 1.2.66.78 1 2 1 3.65zm-1.58 0c0-1.3-.2-2.23-.57-2.82-.36-.58-1-.87-1.87-.87-.88 0-1.52.3-1.92.9-.4.6-.6 1.52-.6 2.8 0 1.23.2 2.16.6 2.78.38.62 1 .92 1.83.92.9 0 1.55-.3 1.93-.9.4-.6.6-1.53.6-2.8zM101.93 129.44c-.27.6-.65 1.03-1.1 1.3-.47.25-1.05.38-1.73.38-1.14 0-2-.4-2.54-1.2-.53-.8-.8-2-.8-3.62 0-3.27 1.1-4.9 3.34-4.9.7 0 1.26.13 1.73.4.45.25.83.67 1.1 1.23h.02l-.02-1.04v-3.9h1.5V129c0 1 .04 1.64.07 1.95h-1.45l-.05-.65-.03-.86zm-4.58-3.2c0 1.32.17 2.26.5 2.82.34.58.88.86 1.64.86.85 0 1.47-.3 1.85-.92.4-.62.58-1.57.58-2.86 0-1.23-.2-2.15-.58-2.72-.38-.57-1-.87-1.85-.87-.75 0-1.3.3-1.65.88-.33.58-.5 1.52-.5 2.82z" stroke="#000" stroke-opacity="0" fill="#fff"/><path d="M68.13 69.5l22.07-6.6 22.08 6.6-22.08 6.6zM68.13 72.03v24.2L88.7 108l.1-29.64zM112.28 72.03v24.2L91.7 108l-.1-29.64z" stroke="#000" stroke-opacity="0" stroke-width="3.77" fill="#fff"/><use xlink:href="#c" transform="matrix(1,0,0,1,5.201940916226675,151.65734265734267) translate(50.407407407407405 17.77777777777778)"/><use xlink:href="#d" transform="matrix(1,0,0,1,5.201940916226675,151.65734265734267) translate(41.73456790123457 44.44444444444444)"/><path d="M290.7 298.5c-1.04.1-1.87.3-2.7.72l-36.16 17.82c-1.98.94-3.34 2.6-3.75 4.8l-8.98 40.1c-.4 1.9-.1 3.76.94 5.43.1.2.2.3.42.52l25 32.1c1.36 1.76 3.24 2.7 5.43 2.7h40.23c2.2 0 4.07-.94 5.42-2.7l25-32.1c1.36-1.78 1.9-3.86 1.36-6.05l-8.95-40.02c-.4-2.18-1.77-3.85-3.75-4.8l-36.16-17.8c-1.14-.53-2.2-.84-3.33-.74z" stroke="#000" stroke-opacity="0" stroke-width="3.83" fill="#326ce5"/><path d="M290.7 295.6c-1.1.1-2 .32-2.87.76l-38.17 18.8c-2.1 1-3.52 2.76-3.96 5.07l-9.46 42.35c-.44 1.98-.1 3.96 1 5.72.1.22.2.33.43.55l26.4 33.88c1.43 1.87 3.4 2.86 5.72 2.86h42.45c2.3 0 4.3-1 5.72-2.87l26.4-33.88c1.43-1.87 1.98-4.07 1.43-6.27l-9.46-42.35c-.44-2.3-1.87-4.07-3.96-5.06l-38.17-18.8c-1.2-.56-2.3-.9-3.5-.78zm0 2.96c1.2-.1 2.2.1 3.3.66l36.3 17.82c1.86 1 3.18 2.64 3.73 4.84l8.9 40.04c.45 2.2 0 4.18-1.3 5.94l-25.1 32.12c-1.3 1.76-3.18 2.75-5.38 2.75H270.9c-2.2 0-4.08-1-5.4-2.75l-25.08-32.12c-.1-.1-.22-.33-.33-.55-1.1-1.64-1.44-3.4-1-5.38l8.9-40.04c.56-2.2 1.77-3.85 3.75-4.84l36.3-17.82c.88-.44 1.65-.66 2.64-.77z" stroke="#000" stroke-opacity="0" stroke-width="3.83" fill="#fff"/><path d="M292.98 338.2v4.97h23.47v-4.98zM280.92 324.88v4.98h35.53v-4.98zM265.6 324.88v4.98h8.9v-4.98zM293.83 351.48v5h22.62v-5zM280.92 364.8v4.97h35.53v-4.98zM265.6 364.8v4.97h8.9v-4.98z" stroke="#000" stroke-opacity="0" stroke-width="3.77" fill="#fff"/><path d="M294.5 357.18c0 1.93-1.5 3.5-3.37 3.5s-3.4-1.57-3.4-3.5c0-1.92 1.53-3.5 3.4-3.5 1.87 0 3.38 1.58 3.38 3.5z" stroke="#000" stroke-opacity="0" stroke-width="3.77" fill="#326ce5"/><path d="M277.78 342.14l6.1.08c2.3-9.72 13.28-7.9 14.53.28l6-.36c-1.9-15.93-24-18.23-26.32-1.7z" stroke="#000" stroke-opacity="0" stroke-width="3.77" fill="#fff"/><path d="M291 328.52c-8.02 0-14.58 6.3-14.58 14.1 2.3-.02 7.26.12 8.04 0 0-3.15 2.86-5.8 6.54-5.8 3.67 0 6.53 2.65 6.53 5.8 1.4.06 7.25-.26 8.04 0 0-7.8-6.56-14.1-14.57-14.1zm0 1.65c6.85 0 12.1 5.23 12.62 11.64h-4.87c-.5-3.72-3.67-6.65-7.75-6.65-4.1 0-7.26 2.93-7.76 6.66h-4.84c.5-6.4 5.74-11.63 12.6-11.63z" stroke="#000" stroke-opacity="0" stroke-width="3.77" fill="#326ce5"/><path d="M273.5 342.77h34.64V365H273.5v-22.23z" stroke="#000" stroke-opacity="0" stroke-width="3.77" fill="#fff"/><path d="M273.2 341.6v24.65h35.88V341.6zm1.62 1.66h32.64v21.3h-32.64z" stroke="#000" stroke-opacity="0" stroke-width="3.77" fill="#326ce5"/><path d="M275.26 390.53c0 .88-.33 1.56-.98 2.05-.64.47-1.54.7-2.72.7-1.12 0-2-.18-2.6-.56-.62-.4-1.02-1-1.2-1.8l1.33-.27c.12.5.4.87.78 1.1.4.24.97.36 1.68.36.78 0 1.33-.12 1.7-.36.35-.24.53-.6.53-1.1 0-.36-.13-.66-.38-.9-.25-.22-.65-.4-1.2-.56l-1.08-.3c-.87-.23-1.5-.45-1.86-.68-.36-.22-.65-.5-.85-.8-.2-.32-.32-.72-.32-1.17 0-.86.3-1.5.9-1.95.6-.46 1.45-.68 2.6-.68 1 0 1.78.18 2.37.54.6.37.97.95 1.13 1.76l-1.37.17c-.08-.42-.3-.74-.67-.96-.37-.2-.86-.32-1.47-.32-.7 0-1.2.1-1.53.32-.32.22-.5.54-.5.97 0 .26.08.5.22.66.12.17.32.32.58.44.27.12.82.3 1.67.5.8.2 1.38.4 1.73.58.35.18.63.37.83.58.2.22.38.46.5.75.1.27.16.6.16.95zM278.2 388.76c0 1.07.2 1.9.64 2.5.43.58 1.06.87 1.9.87.65 0 1.17-.14 1.57-.4.4-.28.67-.62.8-1.04l1.34.38c-.54 1.47-1.78 2.2-3.7 2.2-1.35 0-2.38-.4-3.08-1.22-.7-.83-1.05-2.06-1.05-3.68 0-1.55.35-2.75 1.06-3.57.7-.82 1.7-1.23 3.02-1.23 2.67 0 4 1.67 4 4.98v.2zm4.92-1.2c-.08-.98-.33-1.7-.73-2.15-.4-.45-1-.67-1.75-.67-.73 0-1.32.25-1.75.76-.43.5-.65 1.18-.7 2.07zM287.77 388.4c0 1.24.2 2.16.57 2.77.38.6.96.9 1.72.9.54 0 1-.16 1.35-.46.37-.3.6-.74.68-1.38l1.53.1c-.1.9-.48 1.63-1.1 2.17-.63.52-1.43.8-2.4.8-1.27 0-2.24-.4-2.9-1.24-.68-.84-1-2.04-1-3.63 0-1.58.32-2.78 1-3.6.67-.84 1.63-1.25 2.88-1.25.94 0 1.7.25 2.32.74.62.5 1 1.18 1.16 2.06l-1.55.1c-.08-.5-.28-.92-.6-1.22-.3-.3-.77-.46-1.35-.46-.8 0-1.38.27-1.75.82-.35.55-.53 1.47-.53 2.78zM295.26 393.12v-7.2c0-.65-.02-1.37-.05-2.17h1.43c.05 1.05.07 1.7.07 1.9h.03c.24-.8.52-1.34.84-1.64.3-.28.76-.43 1.32-.43.2 0 .4.03.6.1v1.42c-.2-.07-.46-.1-.8-.1-.62 0-1.1.28-1.43.85-.33.55-.5 1.34-.5 2.38v4.9zM302.13 388.76c0 1.07.2 1.9.65 2.5.43.58 1.06.87 1.9.87.64 0 1.17-.14 1.56-.4.4-.28.66-.62.8-1.04l1.33.38c-.54 1.47-1.77 2.2-3.7 2.2-1.35 0-2.38-.4-3.08-1.22-.7-.83-1.06-2.06-1.06-3.68 0-1.55.35-2.75 1.05-3.57.7-.82 1.7-1.23 3-1.23 2.68 0 4.02 1.67 4.02 4.98v.2zm4.92-1.2c-.08-.98-.32-1.7-.73-2.15-.4-.45-.98-.67-1.73-.67s-1.33.25-1.77.76c-.42.5-.65 1.18-.68 2.07zM314.04 393.05c-.5.14-1 .2-1.53.2-1.2 0-1.8-.7-1.8-2.12v-6.25h-1.05v-1.13h1.1l.45-2.1h1v2.1h1.7v1.13h-1.7v5.92c0 .45.08.76.22.95.15.18.4.27.75.27.2 0 .5-.04.87-.12z" stroke="#000" stroke-opacity="0" fill="#fff"/><path d="M294.53 353.92c0 1.92-1.52 3.5-3.4 3.5-1.86 0-3.37-1.58-3.37-3.5 0-1.93 1.5-3.5 3.38-3.5 1.87 0 3.4 1.57 3.4 3.5z" stroke="#000" stroke-opacity="0" stroke-width="3.77" fill="#326ce5"/><use xlink:href="#e" transform="matrix(1,0,0,1,206.0182674468389,414.5944055944055) translate(33.15432098765432 17.77777777777778)"/><use xlink:href="#f" transform="matrix(1,0,0,1,206.0182674468389,414.5944055944055) translate(107.04320987654322 17.77777777777778)"/><use xlink:href="#g" transform="matrix(1,0,0,1,206.0182674468389,414.5944055944055) translate(38.06172839506172 44.44444444444444)"/><path d="M191.6 344.46l.73 2.64 1.77 1.78 2.65.7h7.8v2h-8.07l-3.4-.9-2.54-2.54-.93-3.4v-10.6h2m28.8 17.45h-7.92v-2h7.93m-28.8-25.92h-2v-20.9h2m0-10.47h-2v-20.9h2m0-10.45h-2v-20.9h2m0-10.47h-2v-20.9h2m0-10.47h-2v-20.9h2m0-10.45h-2v-10.7h2m0-21.34h-2v-20.23h2m-3.44-27l2.53 2.54.9 3.42v10.6h-2V93.78l-.7-2.65-1.78-1.78-2.64-.7h-13.64v-2h13.9m-27.66 2H143.3v-2h13.78" fill="#5e5e5e"/><path d="M143.33 88.66h-.8l-.45-2h1.25M235.68 350.6l-14.27 4.63v-9.27z" fill="#5e5e5e"/><path d="M238.92 350.6l-18.5 6v-12.02m2 9.27l10.02-3.26-10.03-3.27" fill="#5e5e5e"/><use xlink:href="#h" transform="matrix(1,0,0,1,162.98261555190317,134.81131020068315) translate(0 14.222222222222223)"/><path d="M541.73 167.03c-1.04.1-1.88.3-2.7.72l-36.17 17.82c-1.98.94-3.34 2.6-3.75 4.8l-8.96 40.1c-.4 1.9-.1 3.77.94 5.43.1.2.2.32.42.52l25 32.1c1.36 1.77 3.24 2.7 5.43 2.7h40.22c2.2 0 4.07-.93 5.42-2.7l25-32.1c1.36-1.77 1.9-3.85 1.36-6.04l-8.96-40c-.4-2.2-1.77-3.87-3.75-4.8l-36.16-17.83c-1.14-.52-2.2-.83-3.33-.72z" stroke="#000" stroke-opacity="0" stroke-width="3.83" fill="#326ce5"/><path d="M541.7 164.12c-1.1.1-1.97.33-2.85.77l-38.17 18.8c-2.1 1-3.52 2.75-3.96 5.06l-9.46 42.35c-.44 2-.1 3.97 1 5.73.1.22.2.33.43.55l26.4 33.9c1.42 1.86 3.4 2.85 5.7 2.85h42.47c2.3 0 4.3-1 5.72-2.86l26.4-33.9c1.42-1.86 1.97-4.06 1.42-6.26l-9.46-42.34c-.44-2.3-1.87-4.07-3.96-5.06l-38.17-18.8c-1.2-.56-2.3-.9-3.52-.78zm0 2.97c1.22-.12 2.2.1 3.3.65l36.3 17.82c1.88 1 3.2 2.64 3.75 4.84l8.9 40.05c.45 2.2 0 4.18-1.3 5.94l-25.1 32.12c-1.3 1.76-3.18 2.75-5.38 2.75H521.9c-2.2 0-4.06-1-5.38-2.75l-25.08-32.13c-.1-.12-.22-.34-.33-.56-1.1-1.65-1.42-3.4-.98-5.4l8.9-40.03c.56-2.2 1.77-3.84 3.75-4.83l36.3-17.82c.88-.44 1.65-.66 2.64-.77z" stroke="#000" stroke-opacity="0" stroke-width="3.83" fill="#fff"/><path d="M536.56 257.7c0 3.25-1.1 4.9-3.34 4.9-1.4 0-2.35-.55-2.82-1.65h-.04c.02.06.03.54.03 1.48v3.66h-1.52v-11.15c0-.96-.02-1.6-.06-1.9h1.47v.24c.03.13.03.34.05.65l.02.6h.03c.27-.58.63-1 1.07-1.26.44-.3 1.02-.42 1.75-.42 1.12 0 1.96.38 2.5 1.16.56.77.84 1.98.84 3.65zm-1.58 0c0-1.28-.17-2.22-.5-2.77-.36-.57-.9-.85-1.65-.85-.6 0-1.07.13-1.4.4-.35.25-.6.66-.78 1.2-.18.55-.26 1.28-.26 2.15 0 1.25.18 2.14.56 2.73.38.58 1 .87 1.86.87.75 0 1.3-.28 1.63-.85.35-.57.53-1.52.53-2.87zM546.14 257.72c0 1.64-.35 2.87-1.04 3.66-.7.8-1.73 1.2-3.06 1.2-1.32 0-2.32-.4-3-1.23-.68-.85-1.02-2.05-1.02-3.63 0-3.24 1.36-4.85 4.08-4.85 1.4 0 2.4.4 3.06 1.2.66.77.98 2 .98 3.65zm-1.58 0c0-1.3-.2-2.23-.57-2.82-.38-.58-1-.87-1.88-.87-.88 0-1.53.3-1.92.9-.4.58-.6 1.52-.6 2.8 0 1.23.2 2.16.6 2.78.38.63 1 .93 1.82.93.9 0 1.56-.3 1.95-.9.4-.6.6-1.54.6-2.8zM553.77 260.9c-.28.6-.65 1.04-1.1 1.3-.48.26-1.05.4-1.73.4-1.15 0-2-.4-2.54-1.2-.53-.8-.8-2.02-.8-3.63 0-3.27 1.1-4.9 3.34-4.9.7 0 1.26.13 1.72.4.46.25.83.67 1.1 1.23h.03l-.03-1.04v-3.9h1.5v10.92c0 .98.03 1.63.06 1.94h-1.44c-.03-.1-.04-.3-.07-.65 0-.33-.03-.6-.03-.86zm-4.6-3.18c0 1.3.18 2.25.52 2.8.33.58.87.87 1.63.87.86 0 1.47-.32 1.86-.93.38-.62.57-1.57.57-2.86 0-1.22-.2-2.14-.58-2.7-.4-.58-1-.88-1.86-.88-.76 0-1.3.3-1.65.88-.35.58-.52 1.5-.52 2.82z" stroke="#000" stroke-opacity="0" fill="#fff"/><path d="M519.96 200.97l22.08-6.6 22.08 6.6-22.08 6.6zM519.96 203.5v24.2l20.57 11.76.1-29.63zM564.12 203.5v24.2l-20.57 11.76-.1-29.63z" stroke="#000" stroke-opacity="0" stroke-width="3.77" fill="#fff"/><use xlink:href="#i" transform="matrix(1,0,0,1,457.0386756101042,283.12587412587413) translate(57.10493827160494 17.77777777777778)"/><use xlink:href="#j" transform="matrix(1,0,0,1,457.0386756101042,283.12587412587413) translate(52.845679012345684 44.44444444444444)"/><path d="M403.17 309.78l-4.65 7.02-3.77 5.2-3.27 4.12-2.95 3.42-2.72 2.9-2.54 2.5-2.42 2.18-2.32 1.92-2.24 1.7-2.2 1.52-2.13 1.36-2.1 1.22-2.1 1.1-2.1.98-2.07.87-1.94.72-.7-1.88 1.9-.7 2-.85 2.02-.95 2-1.06 2.05-1.2 2.08-1.3 2.12-1.47 2.18-1.66 2.26-1.87 2.35-2.12 2.48-2.44 2.67-2.84 2.9-3.35 3.2-4.07 3.72-5.12 4.6-6.94 7.64-13.26h2.32m77.54-75.32l-1.5.04-2.37.14-2.3.24-2.2.33-2.16.4-2.1.5-2.07.57-2.04.66-2 .75-2.02.85-2 .94-2 1.06-2.05 1.17-2.07 1.32-2.12 1.47-2.18 1.64-2.25 1.87-2.36 2.14-2.5 2.44-2.66 2.84-2.88 3.35-3.22 4.07-3.7 5.12-4.6 6.94-7.06 11.7-.82 1.43h-2.3l1.4-2.44 7.08-11.77 4.65-7 3.76-5.2 3.28-4.13 2.95-3.42 2.72-2.9 2.55-2.5 2.42-2.18 2.32-1.92 2.24-1.7 2.2-1.53 2.13-1.36 2.12-1.23 2.1-1.1 2.08-.97 2.08-.88 2.1-.78 2.1-.68 2.16-.6 2.18-.52 2.23-.42 2.3-.34 2.37-.25 2.46-.15 1.53-.04" fill="#c92d39"/><path d="M489.7 220.13h-.77l-.04-1.98 1.26-.03M361.15 352.3l-14.83-2.24 13.3-6.9z" fill="#c92d39"/><path d="M362.36 353.5l-19.24-2.9 17.27-8.97m-10.9 7.9l10.44 1.58-1.07-6.42" fill="#c92d39"/><use xlink:href="#a" transform="matrix(1,0,0,1,391.8004393701234,274.1260907899515) translate(0 14.222222222222223)"/><path d="M89.9 692.9c-1.05.1-1.9.3-2.72.73l-36.16 17.82c-1.98.94-3.33 2.6-3.75 4.8l-8.96 40.1c-.4 1.88-.1 3.76.95 5.43.1.2.2.3.4.52l25.02 32.1c1.36 1.76 3.23 2.7 5.42 2.7h40.22c2.18 0 4.06-.94 5.4-2.7l25.02-32.1c1.36-1.77 1.88-3.86 1.36-6.05l-8.96-40c-.42-2.2-1.78-3.86-3.76-4.8l-36.15-17.82c-1.15-.52-2.2-.83-3.34-.73z" stroke="#000" stroke-opacity="0" stroke-width="3.83" fill="#326ce5"/><path d="M89.87 690c-1.1.1-1.98.33-2.86.77l-38.16 18.8c-2.1 1-3.52 2.76-3.96 5.07L35.42 757c-.44 1.97-.1 3.95 1 5.7.1.23.2.34.43.56l26.4 33.88c1.43 1.87 3.4 2.86 5.72 2.86h42.46c2.3 0 4.3-1 5.73-2.86l26.4-33.88c1.43-1.87 1.98-4.07 1.43-6.27l-9.47-42.36c-.44-2.3-1.87-4.07-3.96-5.06l-38.18-18.8c-1.22-.56-2.32-.9-3.53-.78zm0 2.97c1.2-.1 2.2.1 3.3.66l36.3 17.82c1.88 1 3.2 2.64 3.75 4.84l8.9 40.03c.45 2.2 0 4.18-1.3 5.94l-25.1 32.12c-1.3 1.75-3.2 2.74-5.4 2.74H70.08c-2.2 0-4.07-1-5.4-2.75L39.6 762.26c-.1-.1-.22-.33-.33-.55-1.1-1.65-1.43-3.4-1-5.4l8.92-40.03c.54-2.2 1.75-3.86 3.73-4.85l36.3-17.82c.88-.44 1.65-.66 2.64-.77z" stroke="#000" stroke-opacity="0" stroke-width="3.83" fill="#fff"/><path d="M84.73 783.56c0 3.27-1.12 4.9-3.35 4.9-1.4 0-2.34-.54-2.82-1.63h-.04c.02.05.03.54.03 1.48v3.67h-1.5v-11.14c0-.97-.03-1.6-.06-1.92h1.45l.02.26c.02.15.03.36.04.66l.04.6h.03c.27-.57.62-1 1.06-1.26.45-.28 1.03-.4 1.75-.4 1.13 0 1.96.37 2.5 1.15.57.78.85 2 .85 3.66zm-1.6.03c0-1.3-.16-2.25-.5-2.8-.35-.57-.9-.85-1.63-.85-.6 0-1.07.14-1.4.4-.35.25-.6.66-.8 1.22-.16.54-.25 1.27-.25 2.14 0 1.25.2 2.15.57 2.73.38.58 1 .87 1.86.87.75 0 1.3-.27 1.63-.84.36-.57.54-1.52.54-2.87zM94.3 783.6c0 1.64-.34 2.86-1.04 3.66-.7.8-1.72 1.2-3.06 1.2-1.32 0-2.32-.4-3-1.24-.68-.85-1.02-2.05-1.02-3.62 0-3.24 1.36-4.85 4.08-4.85 1.4 0 2.4.4 3.06 1.18.66.8 1 2 1 3.67zm-1.58 0c0-1.3-.2-2.24-.57-2.82-.36-.6-1-.88-1.87-.88-.88 0-1.52.3-1.92.9-.4.6-.6 1.52-.6 2.8 0 1.23.2 2.16.6 2.78.38.63 1 .93 1.83.93.9 0 1.55-.28 1.93-.9.4-.6.6-1.53.6-2.8zM101.93 786.78c-.27.6-.65 1.03-1.1 1.3-.47.25-1.05.38-1.73.38-1.14 0-2-.4-2.54-1.2-.53-.8-.8-2-.8-3.62 0-3.27 1.1-4.9 3.34-4.9.7 0 1.26.14 1.73.4.45.26.83.67 1.1 1.23h.02l-.02-1.04v-3.9h1.5v10.92c0 .98.04 1.63.07 1.94h-1.45l-.05-.66-.03-.86zm-4.58-3.2c0 1.33.17 2.26.5 2.82.34.58.88.86 1.64.86.85 0 1.47-.3 1.85-.92.4-.6.58-1.56.58-2.85 0-1.25-.2-2.16-.58-2.74-.38-.57-1-.87-1.85-.87-.75 0-1.3.3-1.65.88-.33.57-.5 1.5-.5 2.8z" stroke="#000" stroke-opacity="0" fill="#fff"/><path d="M68.13 726.84l22.07-6.6 22.08 6.6-22.08 6.6zM68.13 729.37v24.2l20.57 11.76.1-29.63zM112.28 729.37v24.2L91.7 765.33l-.1-29.63z" stroke="#000" stroke-opacity="0" stroke-width="3.77" fill="#fff"/><use xlink:href="#k" transform="matrix(1,0,0,1,5.201940916226675,808.9999999999998) translate(62.10493827160494 17.77777777777778)"/><use xlink:href="#d" transform="matrix(1,0,0,1,5.201940916226675,808.9999999999998) translate(41.73456790123457 44.44444444444444)"/><path d="M290.7 692.9c-1.04.1-1.87.3-2.7.73l-36.16 17.82c-1.98.94-3.34 2.6-3.75 4.8l-8.98 40.1c-.4 1.88-.1 3.76.94 5.43.1.2.2.3.42.52l25 32.1c1.36 1.76 3.24 2.7 5.43 2.7h40.23c2.2 0 4.07-.94 5.42-2.7l25-32.1c1.36-1.77 1.9-3.86 1.36-6.05l-8.95-40c-.4-2.2-1.77-3.86-3.75-4.8l-36.16-17.82c-1.14-.52-2.2-.83-3.33-.73z" stroke="#000" stroke-opacity="0" stroke-width="3.83" fill="#326ce5"/><path d="M290.7 690c-1.1.1-2 .33-2.87.77l-38.17 18.8c-2.1 1-3.52 2.76-3.96 5.07L236.24 757c-.44 1.97-.1 3.95 1 5.7.1.23.2.34.43.56l26.4 33.88c1.43 1.87 3.4 2.86 5.72 2.86h42.45c2.3 0 4.3-1 5.72-2.86l26.4-33.88c1.43-1.87 1.98-4.07 1.43-6.27l-9.46-42.36c-.44-2.3-1.87-4.07-3.96-5.06l-38.17-18.8c-1.2-.56-2.3-.9-3.5-.78zm0 2.97c1.2-.1 2.2.1 3.3.66l36.3 17.82c1.86 1 3.18 2.64 3.73 4.84l8.9 40.03c.45 2.2 0 4.18-1.3 5.94l-25.1 32.12c-1.3 1.75-3.18 2.74-5.38 2.74H270.9c-2.2 0-4.08-1-5.4-2.75l-25.08-32.13c-.1-.1-.22-.33-.33-.55-1.1-1.65-1.44-3.4-1-5.4l8.9-40.03c.56-2.2 1.77-3.86 3.75-4.85l36.3-17.82c.88-.44 1.65-.66 2.64-.77z" stroke="#000" stroke-opacity="0" stroke-width="3.83" fill="#fff"/><path d="M292.98 732.6v4.98h23.47v-5zM280.92 719.28v5h35.53v-5zM265.6 719.28v5h8.9v-5zM293.83 745.9v4.98h22.62v-5zM280.92 759.2v4.98h35.53v-5zM265.6 759.2v4.98h8.9v-5z" stroke="#000" stroke-opacity="0" stroke-width="3.77" fill="#fff"/><path d="M294.5 751.6c0 1.9-1.5 3.48-3.37 3.48s-3.4-1.57-3.4-3.5c0-1.92 1.53-3.48 3.4-3.48 1.87 0 3.38 1.56 3.38 3.5z" stroke="#000" stroke-opacity="0" stroke-width="3.77" fill="#326ce5"/><path d="M277.78 736.54l6.1.08c2.3-9.72 13.28-7.9 14.53.28l6-.36c-1.9-15.92-24-18.23-26.32-1.7z" stroke="#000" stroke-opacity="0" stroke-width="3.77" fill="#fff"/><path d="M291 722.92c-8.02 0-14.58 6.3-14.58 14.1 2.3-.02 7.26.12 8.04 0 0-3.14 2.86-5.8 6.54-5.8 3.67 0 6.53 2.66 6.53 5.8 1.4.07 7.25-.26 8.04 0 0-7.8-6.56-14.1-14.57-14.1zm0 1.66c6.85 0 12.1 5.22 12.62 11.63h-4.87c-.5-3.7-3.67-6.64-7.75-6.64-4.1 0-7.26 2.93-7.76 6.65h-4.84c.5-6.4 5.74-11.62 12.6-11.62z" stroke="#000" stroke-opacity="0" stroke-width="3.77" fill="#326ce5"/><path d="M273.5 737.17h34.64v22.24H273.5v-22.23z" stroke="#000" stroke-opacity="0" stroke-width="3.77" fill="#fff"/><path d="M273.2 736v24.66h35.88V736zm1.62 1.67h32.64v21.3h-32.64z" stroke="#000" stroke-opacity="0" stroke-width="3.77" fill="#326ce5"/><path d="M275.26 784.94c0 .88-.33 1.56-.98 2.04-.64.48-1.54.72-2.72.72-1.12 0-2-.2-2.6-.57-.62-.4-1.02-1-1.2-1.8l1.33-.28c.12.5.4.87.78 1.12.4.23.97.35 1.68.35.78 0 1.33-.13 1.7-.37.35-.25.53-.6.53-1.1 0-.37-.13-.67-.38-.9-.25-.22-.65-.42-1.2-.56l-1.08-.3c-.87-.24-1.5-.47-1.86-.7-.36-.2-.65-.48-.85-.8-.2-.3-.32-.7-.32-1.17 0-.85.3-1.5.9-1.95.6-.45 1.45-.67 2.6-.67 1 0 1.78.2 2.37.55.6.37.97.95 1.13 1.75l-1.37.18c-.08-.42-.3-.74-.67-.96-.37-.23-.86-.33-1.47-.33-.7 0-1.2.1-1.53.3-.32.22-.5.54-.5.98 0 .26.08.48.22.66.12.16.32.32.58.43.27.13.82.3 1.67.5.8.2 1.38.4 1.73.6.35.16.63.36.83.57.2.2.38.45.5.75.1.26.16.58.16.94zM278.2 783.17c0 1.07.2 1.9.64 2.5.43.57 1.06.86 1.9.86.65 0 1.17-.13 1.57-.4.4-.28.67-.62.8-1.04l1.34.38c-.54 1.48-1.78 2.22-3.7 2.22-1.35 0-2.38-.4-3.08-1.24-.7-.82-1.05-2.06-1.05-3.68 0-1.54.35-2.74 1.06-3.57.7-.8 1.7-1.22 3.02-1.22 2.67 0 4 1.66 4 4.98v.2zm4.92-1.2c-.08-1-.33-1.7-.73-2.15-.4-.46-1-.68-1.75-.68-.73 0-1.32.25-1.75.75-.43.5-.65 1.2-.7 2.07zM287.77 782.8c0 1.25.2 2.17.57 2.77.38.6.96.9 1.72.9.54 0 1-.15 1.35-.45.37-.3.6-.76.68-1.4l1.53.12c-.1.9-.48 1.62-1.1 2.15-.63.53-1.43.8-2.4.8-1.27 0-2.24-.4-2.9-1.23-.68-.84-1-2.04-1-3.64 0-1.57.32-2.78 1-3.6.67-.83 1.63-1.25 2.88-1.25.94 0 1.7.25 2.32.75.62.5 1 1.18 1.16 2.05l-1.55.12c-.08-.52-.28-.94-.6-1.24-.3-.3-.77-.45-1.35-.45-.8 0-1.38.28-1.75.82-.35.56-.53 1.48-.53 2.78zM295.26 787.52v-7.18c0-.66-.02-1.4-.05-2.2h1.43c.05 1.07.07 1.7.07 1.93h.03c.24-.8.52-1.36.84-1.65.3-.3.76-.44 1.32-.44.2 0 .4.03.6.1v1.42c-.2-.06-.46-.1-.8-.1-.62 0-1.1.3-1.43.85-.33.55-.5 1.35-.5 2.4v4.87zM302.13 783.17c0 1.07.2 1.9.65 2.5.43.57 1.06.86 1.9.86.64 0 1.17-.13 1.56-.4.4-.28.66-.62.8-1.04l1.33.38c-.54 1.48-1.77 2.22-3.7 2.22-1.35 0-2.38-.4-3.08-1.24-.7-.82-1.06-2.06-1.06-3.68 0-1.54.35-2.74 1.05-3.57.7-.8 1.7-1.22 3-1.22 2.68 0 4.02 1.66 4.02 4.98v.2zm4.92-1.2c-.08-1-.32-1.7-.73-2.15-.4-.46-.98-.68-1.73-.68s-1.33.25-1.77.75c-.42.5-.65 1.2-.68 2.07zM314.04 787.45c-.5.14-1 .2-1.53.2-1.2 0-1.8-.7-1.8-2.1v-6.27h-1.05v-1.12h1.1l.45-2.1h1v2.1h1.7v1.12h-1.7v5.92c0 .46.08.77.22.95.15.2.4.27.75.27.2 0 .5-.03.87-.1z" stroke="#000" stroke-opacity="0" fill="#fff"/><path d="M294.53 748.32c0 1.93-1.52 3.5-3.4 3.5-1.86 0-3.37-1.57-3.37-3.5 0-1.92 1.5-3.5 3.38-3.5 1.87 0 3.4 1.58 3.4 3.5z" stroke="#000" stroke-opacity="0" stroke-width="3.77" fill="#326ce5"/><use xlink:href="#l" transform="matrix(1,0,0,1,206.0182674468389,808.9999999999998) translate(46.0246913580247 17.77777777777778)"/><use xlink:href="#m" transform="matrix(1,0,0,1,206.0182674468389,808.9999999999998) translate(95.34567901234568 17.77777777777778)"/><use xlink:href="#g" transform="matrix(1,0,0,1,206.0182674468389,808.9999999999998) translate(38.06172839506172 44.44444444444444)"/><path d="M151.88 746h-8.57v-2h8.58m11.1 2h-2.54v-2h2.54m57.43 2h-2.16v-2h2.17" fill="#5e5e5e"/><path d="M143.33 746h-.8l-.45-2h1.25M235.68 745l-14.27 4.63v-9.27z" fill="#5e5e5e"/><path d="M238.92 745l-18.5 6v-12m2 9.26l10.02-3.26-10.03-3.26" fill="#5e5e5e"/><use xlink:href="#h" transform="matrix(1,0,0,1,162.98261555190317,734.3311926169068) translate(0 14.222222222222223)"/><path d="M809.48 692.9c-1.04.1-1.87.3-2.7.73l-36.17 17.82c-1.97.94-3.32 2.6-3.74 4.8l-8.96 40.1c-.42 1.88-.1 3.76.94 5.43.1.2.2.3.4.52l25.02 32.1c1.36 1.76 3.23 2.7 5.42 2.7h40.23c2.2 0 4.07-.94 5.43-2.7l25-32.1c1.36-1.77 1.88-3.86 1.36-6.05l-8.97-40c-.42-2.2-1.77-3.86-3.75-4.8l-36.16-17.82c-1.15-.52-2.2-.83-3.34-.73z" stroke="#000" stroke-opacity="0" stroke-width="3.83" fill="#326ce5"/><path d="M809.47 690c-1.1.1-1.98.33-2.86.77l-38.17 18.8c-2.1 1-3.52 2.76-3.96 5.07L755 757c-.43 1.97-.1 3.95 1 5.7.1.23.22.34.44.56l26.4 33.88c1.43 1.87 3.42 2.86 5.73 2.86h42.46c2.3 0 4.3-1 5.72-2.86l26.4-33.88c1.43-1.87 1.98-4.07 1.43-6.27l-9.46-42.36c-.44-2.3-1.87-4.07-3.96-5.06L813 690.78c-1.22-.56-2.32-.9-3.53-.78zm0 2.97c1.2-.1 2.2.1 3.3.66l36.3 17.82c1.87 1 3.2 2.64 3.74 4.84l8.92 40.03c.44 2.2 0 4.18-1.32 5.94l-25.08 32.12c-1.32 1.75-3.2 2.74-5.4 2.74h-40.25c-2.2 0-4.08-1-5.4-2.75l-25.08-32.13c-.12-.1-.23-.33-.34-.55-1.1-1.65-1.43-3.4-1-5.4l8.92-40.03c.55-2.2 1.76-3.86 3.74-4.85l36.3-17.82c.9-.44 1.66-.66 2.65-.77z" stroke="#000" stroke-opacity="0" stroke-width="3.83" fill="#fff"/><path d="M804.32 783.56c0 3.27-1.12 4.9-3.35 4.9-1.4 0-2.34-.54-2.82-1.63h-.04c.03.05.04.54.04 1.48v3.67h-1.5v-11.14c0-.97-.03-1.6-.06-1.92h1.46l.03.26.03.66.03.6h.03c.27-.57.62-1 1.07-1.26.44-.28 1.02-.4 1.74-.4 1.13 0 1.96.37 2.5 1.15.57.78.85 2 .85 3.66zm-1.6.03c0-1.3-.16-2.25-.5-2.8-.35-.57-.9-.85-1.63-.85-.62 0-1.08.14-1.42.4-.34.25-.6.66-.77 1.22-.17.54-.26 1.27-.26 2.14 0 1.25.2 2.15.58 2.73.37.58 1 .87 1.85.87.75 0 1.3-.27 1.64-.84.35-.57.53-1.52.53-2.87zM813.9 783.6c0 1.64-.35 2.86-1.05 3.66-.7.8-1.72 1.2-3.05 1.2-1.33 0-2.33-.4-3-1.24-.7-.85-1.03-2.05-1.03-3.62 0-3.24 1.36-4.85 4.08-4.85 1.4 0 2.4.4 3.07 1.18.65.8.98 2 .98 3.67zm-1.6 0c0-1.3-.18-2.24-.55-2.82-.37-.6-1-.88-1.87-.88-.9 0-1.53.3-1.93.9-.4.6-.6 1.52-.6 2.8 0 1.23.2 2.16.6 2.78.38.63 1 .93 1.83.93.9 0 1.56-.28 1.94-.9.4-.6.6-1.53.6-2.8zM821.53 786.78c-.28.6-.65 1.03-1.12 1.3-.45.25-1.02.38-1.7.38-1.15 0-2-.4-2.54-1.2-.54-.8-.8-2-.8-3.62 0-3.27 1.1-4.9 3.33-4.9.68 0 1.26.14 1.72.4.46.26.83.67 1.1 1.23h.02V775.43h1.5v10.92c0 .98.02 1.63.05 1.94h-1.46l-.05-.66c-.03-.32-.04-.6-.04-.86zm-4.6-3.2c0 1.33.18 2.26.5 2.82.35.58.9.86 1.65.86.86 0 1.48-.3 1.87-.92.38-.6.58-1.56.58-2.85 0-1.25-.2-2.16-.58-2.74-.4-.57-1-.87-1.85-.87-.76 0-1.3.3-1.66.88-.33.57-.5 1.5-.5 2.8z" stroke="#000" stroke-opacity="0" fill="#fff"/><path d="M787.72 726.84l22.08-6.6 22.07 6.6-22.07 6.6zM787.72 729.37v24.2l20.57 11.76.1-29.63zM831.87 729.37v24.2l-20.57 11.76-.1-29.63z" stroke="#000" stroke-opacity="0" stroke-width="3.77" fill="#fff"/><use xlink:href="#i" transform="matrix(1,0,0,1,724.7937776509207,808.9999999999998) translate(57.10493827160494 17.77777777777778)"/><use xlink:href="#n" transform="matrix(1,0,0,1,724.7937776509207,808.9999999999998) translate(57.19753086419753 44.44444444444444)"/><path d="M756.7 746h-2v-2h2m-9.98 2h-4v-2h4m-11.98 2h-4v-2h4m-11.97 2h-4v-2h4m-11.97 2h-4v-2h4m-11.97 2h-4v-2h4m-11.97 2h-4v-2h4m-11.97 2h-4v-2h4m-12 2h-3.98v-2h4m-11.98 2h-4v-2h4m-11.97 2h-4v-2h4M627 746h-4v-2h4m-11.97 2h-4v-2h4m-11.97 2h-4v-2h4m-95.78 2h-4v-2h4m-11.97 2h-3.98v-2h4m-11.98 2h-4v-2h4m-11.97 2h-4v-2h4m-11.98 2h-4v-2h4m-11.98 2h-4v-2h4m-11.97 2h-4v-2h4m-11.97 2h-4v-2h4m-11.97 2h-3.98v-2h4m-11.98 2h-4v-2h4m-11.98 2h-4v-2h4m-11.97 2h-4v-2h4m-11.98 2h-2v-2h2m227.46 2h-3.7v-2h3.7" fill="#5e5e5e"/><path d="M757.47 746h-.8v-2h1.25M360.63 749.63L346.36 745l14.27-4.64z" fill="#5e5e5e"/><path d="M361.63 751l-18.5-6 18.5-6m-12.03 6l10.03 3.26v-6.52" fill="#5e5e5e"/><use xlink:href="#o" transform="matrix(1,0,0,1,513.445200585917,734.3311926169068) translate(0 14.222222222222223)"/><path d="M809.48 35.56c-1.04.1-1.87.3-2.7.73L770.6 54.1c-1.97.94-3.32 2.6-3.74 4.8l-8.96 40.12c-.42 1.87-.1 3.75.94 5.4.1.22.2.33.4.53l25.02 32.1c1.36 1.77 3.23 2.7 5.42 2.7h40.23c2.2 0 4.07-.93 5.43-2.7l25-32.1c1.36-1.77 1.88-3.85 1.36-6.04l-8.97-40c-.42-2.2-1.77-3.86-3.75-4.8l-36.16-17.8c-1.15-.53-2.2-.85-3.34-.74z" stroke="#000" stroke-opacity="0" stroke-width="3.83" fill="#326ce5"/><path d="M809.47 32.65c-1.1.1-1.98.33-2.86.77l-38.17 18.8c-2.1 1-3.52 2.76-3.96 5.07L755 99.64c-.43 1.98-.1 3.96 1 5.72.1.22.22.33.44.55l26.4 33.88c1.43 1.87 3.42 2.86 5.73 2.86h42.46c2.3 0 4.3-1 5.72-2.86l26.4-33.88c1.43-1.87 1.98-4.07 1.43-6.27l-9.46-42.36c-.44-2.32-1.87-4.08-3.96-5.07L813 33.43c-1.22-.56-2.32-.9-3.53-.78zm0 2.97c1.2-.1 2.2.1 3.3.66l36.3 17.82c1.87 1 3.2 2.64 3.74 4.84L861.73 99c.44 2.2 0 4.17-1.32 5.93l-25.08 32.12c-1.32 1.76-3.2 2.75-5.4 2.75h-40.25c-2.2 0-4.08-1-5.4-2.75l-25.08-32.12c-.12-.1-.23-.33-.34-.55-1.1-1.65-1.43-3.4-1-5.4l8.92-40.04c.55-2.2 1.76-3.85 3.74-4.84l36.3-17.82c.9-.44 1.66-.66 2.65-.77z" stroke="#000" stroke-opacity="0" stroke-width="3.83" fill="#fff"/><path d="M811.75 75.25v4.98h23.47v-4.98zM799.7 61.94v4.98h35.52v-4.98zM784.37 61.94v4.98h8.9v-4.98zM812.6 88.54v5h22.62v-5zM799.7 101.85v5h35.52v-5zM784.37 101.85v5h8.9v-5z" stroke="#000" stroke-opacity="0" stroke-width="3.77" fill="#fff"/><path d="M813.3 94.25c0 1.92-1.53 3.5-3.4 3.5-1.87 0-3.38-1.58-3.38-3.5 0-1.93 1.5-3.5 3.38-3.5 1.87 0 3.4 1.57 3.4 3.5z" stroke="#000" stroke-opacity="0" stroke-width="3.77" fill="#326ce5"/><path d="M796.56 79.2l6.1.08c2.28-9.72 13.28-7.9 14.53.28l5.98-.36c-1.92-15.92-24-18.23-26.33-1.7z" stroke="#000" stroke-opacity="0" stroke-width="3.77" fill="#fff"/><path d="M809.77 65.58c-8.02 0-14.58 6.3-14.58 14.1 2.3-.02 7.25.12 8.04 0 0-3.15 2.86-5.8 6.53-5.8 3.67 0 6.53 2.65 6.53 5.8 1.4.07 7.26-.26 8.05 0 0-7.8-6.56-14.1-14.58-14.1zm0 1.66c6.85 0 12.1 5.22 12.62 11.63h-4.87c-.5-3.72-3.68-6.65-7.76-6.65s-7.26 2.93-7.75 6.65h-4.84c.5-6.4 5.74-11.63 12.6-11.63z" stroke="#000" stroke-opacity="0" stroke-width="3.77" fill="#326ce5"/><path d="M792.27 79.83h34.64v22.23h-34.63V79.83z" stroke="#000" stroke-opacity="0" stroke-width="3.77" fill="#fff"/><path d="M791.98 78.65v24.66h35.87V78.66zm1.62 1.68h32.64v21.3H793.6z" stroke="#000" stroke-opacity="0" stroke-width="3.77" fill="#326ce5"/><path d="M794.03 127.6c0 .88-.32 1.55-.97 2.04-.65.47-1.55.72-2.72.72-1.13 0-2-.2-2.62-.58-.6-.38-1-1-1.2-1.8l1.34-.27c.13.5.4.88.8 1.12.4.24.97.35 1.68.35.77 0 1.33-.12 1.68-.37.36-.24.54-.6.54-1.1 0-.36-.12-.66-.37-.9-.25-.22-.65-.4-1.2-.55l-1.1-.3c-.85-.24-1.47-.46-1.84-.68-.37-.23-.65-.5-.86-.82-.2-.3-.3-.7-.3-1.16 0-.86.28-1.5.87-1.96.6-.45 1.46-.68 2.6-.68 1 0 1.8.2 2.38.55.6.37.97.96 1.12 1.76l-1.36.17c-.07-.4-.3-.73-.67-.96-.36-.22-.85-.32-1.47-.32-.68 0-1.2.1-1.5.32-.34.2-.5.53-.5.96 0 .27.07.5.2.66.14.16.33.3.6.43.26.13.8.3 1.66.5.8.2 1.38.4 1.73.6.36.16.63.35.84.57.2.2.35.45.47.74.1.27.16.6.16.95zM796.97 125.83c0 1.07.2 1.9.65 2.5.43.57 1.06.86 1.9.86.64 0 1.17-.15 1.56-.42.4-.27.67-.6.8-1.03l1.34.4c-.55 1.47-1.78 2.2-3.7 2.2-1.36 0-2.38-.4-3.1-1.23-.7-.82-1.04-2.06-1.04-3.68 0-1.55.35-2.74 1.05-3.57.7-.82 1.7-1.23 3.02-1.23 2.68 0 4 1.66 4 4.97v.23zm4.92-1.2c-.1-1-.33-1.7-.74-2.16-.4-.45-.98-.68-1.73-.68-.74 0-1.33.25-1.75.75-.43.5-.66 1.2-.7 2.08zM806.55 125.46c0 1.24.2 2.17.57 2.77.37.6.95.9 1.72.9.54 0 .98-.15 1.34-.45.36-.3.6-.76.68-1.4l1.52.1c-.1.92-.5 1.64-1.12 2.17-.62.54-1.4.8-2.38.8-1.27 0-2.25-.4-2.9-1.23-.68-.83-1.02-2.04-1.02-3.63 0-1.6.34-2.8 1-3.62.68-.82 1.65-1.24 2.9-1.24.94 0 1.7.25 2.32.75.6.48 1 1.16 1.15 2.04l-1.55.1c-.08-.5-.28-.92-.6-1.22-.32-.3-.77-.46-1.36-.46-.8 0-1.38.28-1.74.82-.36.55-.53 1.48-.53 2.78zM814.03 130.18v-7.2c0-.64 0-1.37-.05-2.17h1.43l.08 1.93h.03c.25-.8.53-1.36.84-1.65.32-.3.76-.44 1.33-.44.2 0 .4.03.6.08v1.43c-.2-.05-.45-.08-.8-.08-.62 0-1.1.28-1.43.84-.33.56-.5 1.35-.5 2.4v4.88zM820.9 125.83c0 1.07.22 1.9.65 2.5.43.57 1.06.86 1.9.86.65 0 1.17-.15 1.57-.42.4-.27.66-.6.8-1.03l1.33.4c-.54 1.47-1.78 2.2-3.7 2.2-1.36 0-2.38-.4-3.08-1.23-.7-.82-1.05-2.06-1.05-3.68 0-1.55.34-2.74 1.05-3.57.7-.82 1.7-1.23 3.02-1.23 2.66 0 4 1.66 4 4.97v.23zm4.92-1.2c-.08-1-.32-1.7-.72-2.16-.4-.45-1-.68-1.74-.68-.73 0-1.3.25-1.75.75-.42.5-.64 1.2-.68 2.08zM832.82 130.1c-.5.15-1 .22-1.53.22-1.22 0-1.83-.7-1.83-2.12v-6.26h-1.05v-1.13h1.1l.46-2.1h1v2.1h1.7v1.14h-1.7v5.92c0 .45.08.77.22.95.14.2.4.28.74.28.2 0 .5-.04.88-.12z" stroke="#000" stroke-opacity="0" fill="#fff"/><path d="M813.3 90.98c0 1.93-1.5 3.5-3.38 3.5-1.87 0-3.4-1.57-3.4-3.5 0-1.92 1.53-3.5 3.4-3.5 1.87 0 3.38 1.58 3.38 3.5z" stroke="#000" stroke-opacity="0" stroke-width="3.77" fill="#326ce5"/><use xlink:href="#p" transform="matrix(1,0,0,1,724.7937776509207,151.65734265734267) translate(31.919753086419753 17.77777777777778)"/><use xlink:href="#f" transform="matrix(1,0,0,1,724.7937776509207,151.65734265734267) translate(108.27777777777777 17.77777777777778)"/><use xlink:href="#g" transform="matrix(1,0,0,1,724.7937776509207,151.65734265734267) translate(38.06172839506172 44.44444444444444)"/><path d="M143.3 87.66h9.94m9.93 0h19.86m9.93 0h19.87m9.93 0h19.86m9.93 0h19.87m9.93 0h19.86m9.94 0H332m9.94 0h19.86m9.93 0h19.86m9.92 0h19.87m9.92 0h19.86m9.93 0h19.87m9.94 0h19.87m9.93 0h19.86m9.93 0h19.86m9.93 0h19.85m9.93 0h19.87m9.93 0h19.86m9.93 0h19.86m9.93 0h19.87m9.93 0h9.93" stroke="#5e5e5e" stroke-width="2" fill="none"/><path d="M143.33 88.66h-.8l-.45-2h1.25" fill="#5e5e5e"/><path d="M754.46 87.66L740.2 92.3V83z" stroke="#5e5e5e" stroke-width="2" fill="#5e5e5e"/><path d="M541.73 495.7c-1.04.1-1.88.3-2.7.73l-36.17 17.8c-1.98.95-3.34 2.62-3.75 4.8l-8.96 40.13c-.4 1.87-.1 3.75.94 5.4.1.22.2.33.42.53l25 32.1c1.36 1.76 3.24 2.7 5.43 2.7h40.22c2.2 0 4.07-.94 5.42-2.7l25-32.1c1.36-1.78 1.9-3.86 1.36-6.05l-8.96-40c-.4-2.2-1.77-3.87-3.75-4.8l-36.16-17.82c-1.14-.53-2.2-.84-3.33-.73z" stroke="#000" stroke-opacity="0" stroke-width="3.83" fill="#326ce5"/><path d="M541.7 492.8c-1.1.1-1.97.32-2.85.76l-38.17 18.8c-2.1 1-3.52 2.76-3.96 5.07l-9.46 42.36c-.44 1.97-.1 3.95 1 5.7.1.23.2.34.43.56l26.4 33.88c1.42 1.87 3.4 2.86 5.7 2.86h42.47c2.3 0 4.3-1 5.72-2.86l26.4-33.88c1.42-1.87 1.97-4.07 1.42-6.27l-9.46-42.37c-.44-2.3-1.87-4.07-3.96-5.06l-38.17-18.8c-1.2-.56-2.3-.9-3.52-.78zm0 2.96c1.22-.1 2.2.1 3.3.66l36.3 17.82c1.88 1 3.2 2.64 3.75 4.84l8.9 40.05c.45 2.2 0 4.18-1.3 5.94l-25.1 32.12c-1.3 1.75-3.18 2.74-5.38 2.74H521.9c-2.2 0-4.06-1-5.38-2.75l-25.08-32.13c-.1-.1-.22-.33-.33-.55-1.1-1.65-1.42-3.4-.98-5.4l8.9-40.04c.56-2.2 1.77-3.85 3.75-4.84l36.3-17.82c.88-.44 1.65-.66 2.64-.77z" stroke="#000" stroke-opacity="0" stroke-width="3.83" fill="#fff"/><path d="M544 535.4v4.97h23.47v-4.98zM531.94 522.08v4.98h35.53v-4.98zM516.6 522.08v4.98h8.9v-4.98zM544.85 548.68v5h22.62v-5zM531.94 562v4.98h35.53v-5zM516.6 562v4.98h8.9v-5z" stroke="#000" stroke-opacity="0" stroke-width="3.77" fill="#fff"/><path d="M545.53 554.4c0 1.9-1.5 3.48-3.38 3.48-1.87 0-3.4-1.57-3.4-3.5 0-1.92 1.53-3.48 3.4-3.48 1.87 0 3.38 1.56 3.38 3.5z" stroke="#000" stroke-opacity="0" stroke-width="3.77" fill="#326ce5"/><path d="M528.8 539.34l6.1.08c2.3-9.72 13.28-7.9 14.53.28l6-.36c-1.92-15.92-24.02-18.23-26.33-1.7z" stroke="#000" stroke-opacity="0" stroke-width="3.77" fill="#fff"/><path d="M542.02 525.72c-8.02 0-14.58 6.3-14.58 14.1 2.3-.02 7.26.12 8.05 0 0-3.15 2.84-5.8 6.52-5.8 3.67 0 6.53 2.65 6.53 5.8 1.4.07 7.26-.26 8.04 0 0-7.8-6.57-14.1-14.58-14.1zm0 1.66c6.85 0 12.1 5.22 12.62 11.63h-4.87c-.5-3.7-3.67-6.64-7.75-6.64-4.1 0-7.26 2.93-7.76 6.65h-4.84c.5-6.4 5.74-11.62 12.6-11.62z" stroke="#000" stroke-opacity="0" stroke-width="3.77" fill="#326ce5"/><path d="M524.5 539.97h34.66v22.23H524.5v-22.23z" stroke="#000" stroke-opacity="0" stroke-width="3.77" fill="#fff"/><path d="M524.23 538.8v24.65h35.87V538.8zm1.6 1.67h32.66v21.3h-32.66z" stroke="#000" stroke-opacity="0" stroke-width="3.77" fill="#326ce5"/><path d="M526.28 587.73c0 .88-.33 1.56-.98 2.05-.64.47-1.54.72-2.7.72-1.14 0-2.02-.2-2.63-.58-.6-.38-1-1-1.2-1.8l1.34-.27c.14.5.4.87.8 1.1.4.25.97.36 1.7.36.76 0 1.3-.1 1.67-.36.36-.24.54-.6.54-1.1 0-.36-.1-.66-.36-.9-.25-.22-.65-.4-1.2-.55l-1.08-.3c-.87-.25-1.5-.47-1.86-.7-.36-.22-.65-.5-.85-.8-.2-.32-.32-.72-.32-1.17 0-.85.3-1.5.9-1.95.58-.45 1.44-.68 2.58-.68 1 0 1.8.2 2.4.55.6.36.96.95 1.12 1.75l-1.37.17c-.08-.4-.3-.73-.67-.96-.37-.2-.86-.3-1.47-.3-.67 0-1.2.1-1.5.3-.33.22-.5.54-.5.97 0 .27.07.5.2.66.14.17.34.32.6.44.27.13.82.3 1.67.5.8.2 1.38.4 1.73.6.35.16.63.35.83.57.2.2.37.45.48.74.12.27.18.6.18.95zM529.22 585.97c0 1.07.2 1.9.64 2.5.43.57 1.06.86 1.9.86.65 0 1.17-.14 1.57-.4.4-.28.66-.62.8-1.04l1.33.38c-.54 1.48-1.78 2.22-3.7 2.22-1.35 0-2.38-.4-3.08-1.24-.7-.82-1.05-2.06-1.05-3.68 0-1.55.35-2.74 1.05-3.57.7-.8 1.7-1.22 3.02-1.22 2.67 0 4 1.66 4 4.97v.22zm4.92-1.2c-.08-1-.33-1.7-.73-2.16-.4-.44-.98-.67-1.73-.67-.73 0-1.32.26-1.75.76-.43.5-.65 1.2-.68 2.07zM538.8 585.6c0 1.24.18 2.17.56 2.77.38.6.96.9 1.72.9.54 0 1-.15 1.35-.45.36-.3.6-.76.67-1.4l1.53.1c-.12.92-.5 1.64-1.12 2.17-.6.53-1.4.8-2.37.8-1.28 0-2.25-.4-2.92-1.24-.66-.83-1-2.04-1-3.63 0-1.58.34-2.78 1.02-3.6.67-.83 1.63-1.25 2.9-1.25.92 0 1.7.25 2.3.75.62.5 1 1.17 1.16 2.05l-1.55.1c-.08-.5-.3-.92-.6-1.22-.32-.3-.78-.46-1.36-.46-.8 0-1.38.28-1.75.82-.35.55-.53 1.48-.53 2.78zM546.28 590.32v-7.2c0-.64-.02-1.37-.05-2.17h1.43l.06 1.92h.03c.24-.8.52-1.36.84-1.65.3-.3.75-.44 1.3-.44.22 0 .42.02.63.08v1.43c-.2-.06-.47-.1-.8-.1-.63 0-1.12.28-1.44.85-.34.55-.5 1.34-.5 2.38v4.9zM553.15 585.97c0 1.07.2 1.9.65 2.5.43.57 1.06.86 1.9.86.64 0 1.17-.14 1.56-.4.4-.28.66-.62.8-1.04l1.33.38c-.55 1.48-1.78 2.22-3.7 2.22-1.36 0-2.4-.4-3.1-1.24-.7-.82-1.04-2.06-1.04-3.68 0-1.55.35-2.74 1.05-3.57.7-.8 1.72-1.22 3.03-1.22 2.67 0 4 1.66 4 4.97v.22zm4.92-1.2c-.08-1-.32-1.7-.73-2.16-.4-.44-.98-.67-1.73-.67-.73 0-1.3.26-1.75.76-.42.5-.65 1.2-.68 2.07zM565.06 590.25c-.5.14-1 .2-1.53.2-1.2 0-1.8-.7-1.8-2.1v-6.27h-1.06v-1.13h1.1l.46-2.1h1v2.1h1.68v1.13h-1.67V588c0 .45.07.77.2.95.16.2.4.27.76.27.2 0 .48-.04.86-.12z" stroke="#000" stroke-opacity="0" fill="#fff"/><path d="M545.55 551.12c0 1.93-1.52 3.5-3.4 3.5-1.86 0-3.37-1.57-3.37-3.5 0-1.92 1.5-3.5 3.38-3.5 1.87 0 3.4 1.58 3.4 3.5z" stroke="#000" stroke-opacity="0" stroke-width="3.77" fill="#326ce5"/><use xlink:href="#q" transform="matrix(1,0,0,1,457.0386756101042,611.7972027972028) translate(34.94444444444446 17.77777777777778)"/><use xlink:href="#m" transform="matrix(1,0,0,1,457.0386756101042,611.7972027972028) translate(106.42592592592592 17.77777777777778)"/><use xlink:href="#r" transform="matrix(1,0,0,1,457.0386756101042,611.7972027972028) translate(35.62345679012345 44.44444444444444)"/><path d="M543.04 474.32h-2v-1.96h2m0-7.8h-2v-3.9h2m0-7.82h-2v-3.9h2m0-7.82h-2v-3.9h2m0-7.82h-2v-3.9h2m0-7.82h-2v-3.9h2m0-7.8h-2v-3.92h2m0-7.8h-2v-.12h2m0-23.32h-2v-3.9h2m0-7.82h-2v-3.9h2m0-7.82h-2v-3.9h2m0-7.82h-2v-3.9h2m0-7.8h-2v-3.92h2m0-7.8h-2v-3.92h2m0-7.8h-2v-3.9h2m0-7.82h-2v-3.9h2m0-7.82h-2v-1.95h2" fill="#5e5e5e"/><path d="M543.04 275.15h-2v-1.02h2M542.04 489.58l-4.63-14.26h9.28z" fill="#5e5e5e"/><path d="M542.04 492.82l-6-18.5h12m-9.26 2l3.26 10.03 3.26-10.03" fill="#5e5e5e"/><g><use xlink:href="#o" transform="matrix(1,0,0,1,505.07785336356767,372.8056219544575) translate(0 14.222222222222223)"/></g><path d="M653.1 440.1l-7.25 28.44-5.4 17.98-4.33 12.5-3.62 9.16-3.1 6.98-2.7 5.46-2.4 4.37-2.15 3.55-1.95 2.94-1.8 2.45-1.64 2.08-1.53 1.78-1.43 1.53-1.35 1.32-.97.88-1.33-1.5.93-.83 1.3-1.27 1.37-1.46 1.47-1.7 1.6-2.03 1.73-2.4 1.9-2.86 2.12-3.5 2.35-4.3 2.67-5.37 3.06-6.9 3.58-9.08 4.3-12.4 5.4-17.92 7.2-28.35 21.2-111.36h2.04m82.37-239.62l-.78.05-.85.1-.84.1-.85.17-.85.2-.85.24-.86.28-.88.33-.9.37-.92.44-.94.5-.97.55-1 .65-1.06.73-1.08.83-1.15.96-1.22 1.1-1.28 1.26-1.38 1.46-1.5 1.72-1.58 2-1.74 2.4-1.9 2.87-2.1 3.5-2.37 4.3-2.66 5.37-3.06 6.9-3.6 9.1-4.3 12.4-5.37 17.9-7.2 28.36-12.18 58.22-10.07 52.94h-2.04l10.16-53.33 12.18-58.28 7.24-28.44 5.4-17.97 4.34-12.5 3.6-9.16 3.1-6.98 2.72-5.47 2.4-4.37 2.15-3.56 1.94-2.94 1.78-2.46 1.65-2.08 1.53-1.78 1.44-1.52 1.34-1.32 1.28-1.15 1.22-1 1.16-.9 1.1-.77 1.1-.68 1.03-.6 1.02-.54.98-.46.97-.4.96-.37.95-.3.94-.27.92-.2.92-.2.93-.13.93-.1.83-.05" fill="#c92d39"/><path d="M757.47 88.66l-.78.02-.06-2 1.28-.03M612.07 545.28l-14.94 1.26 11.35-9.8z" fill="#c92d39"/><path d="M613.53 546.16l-19.4 1.64 14.74-12.72m-8.76 10.2l10.52-.88-2.53-6" fill="#c92d39"/><g><use xlink:href="#b" transform="matrix(1,0,0,1,652.2371139925118,306.95575265840887) translate(0 14.222222222222223)"/></g><defs><path fill="#333" d="M115-3C79 11 28 4 28-45v-112H4v-33h27l15-45h31v45h36v33H77v99c-1 23 16 31 38 25v30" id="s"/><path fill="#333" d="M135-150c-39-12-60 13-60 57V0H25l-1-190h47c2 13-1 29 3 40 6-28 27-53 61-41v41" id="t"/><path fill="#333" d="M85 4C-2 5 27-109 22-190h50c7 57-23 150 33 157 60-5 35-97 40-157h50l1 190h-47c-2-12 1-28-3-38-12 25-28 42-61 42" id="u"/><path fill="#333" d="M137-138c1-29-70-34-71-4 15 46 118 7 119 86 1 83-164 76-172 9l43-7c4 19 20 25 44 25 33 8 57-30 24-41C81-84 22-81 20-136c-2-80 154-74 161-7" id="v"/><g id="a"><use transform="matrix(0.04938271604938272,0,0,0.04938271604938272,0,0)" xlink:href="#s"/><use transform="matrix(0.04938271604938272,0,0,0.04938271604938272,5.8765432098765435,0)" xlink:href="#t"/><use transform="matrix(0.04938271604938272,0,0,0.04938271604938272,12.790123456790125,0)" xlink:href="#u"/><use transform="matrix(0.04938271604938272,0,0,0.04938271604938272,23.604938271604937,0)" xlink:href="#v"/><use transform="matrix(0.04938271604938272,0,0,0.04938271604938272,33.48148148148148,0)" xlink:href="#s"/><use transform="matrix(0.04938271604938272,0,0,0.04938271604938272,39.358024691358025,0)" xlink:href="#v"/></g><path fill="#333" d="M25-224v-37h50v37H25zM25 0v-190h50V0H25" id="w"/><path fill="#333" d="M195-6C206 82 75 100 31 46c-4-6-6-13-8-21l49-6c3 16 16 24 34 25 40 0 42-37 40-79-11 22-30 35-61 35-53 0-70-43-70-97 0-56 18-96 73-97 30 0 46 14 59 34l2-30h47zm-90-29c32 0 41-27 41-63 0-35-9-62-40-62-32 0-39 29-40 63 0 36 9 62 39 62" id="x"/><path fill="#333" d="M135-194c87-1 58 113 63 194h-50c-7-57 23-157-34-157-59 0-34 97-39 157H25l-1-190h47c2 12-1 28 3 38 12-26 28-41 61-42" id="y"/><g id="b"><use transform="matrix(0.04938271604938272,0,0,0.04938271604938272,0,0)" xlink:href="#v"/><use transform="matrix(0.04938271604938272,0,0,0.04938271604938272,9.876543209876544,0)" xlink:href="#w"/><use transform="matrix(0.04938271604938272,0,0,0.04938271604938272,14.814814814814817,0)" xlink:href="#x"/><use transform="matrix(0.04938271604938272,0,0,0.04938271604938272,25.629629629629633,0)" xlink:href="#y"/><use transform="matrix(0.04938271604938272,0,0,0.04938271604938272,36.44444444444445,0)" xlink:href="#v"/></g><path fill="#333" d="M212-179c-10-28-35-45-73-45-59 0-87 40-87 99 0 60 29 101 89 101 43 0 62-24 78-52l27 14C228-24 195 4 139 4 59 4 22-46 18-125c-6-104 99-153 187-111 19 9 31 26 39 46" id="z"/><path fill="#333" d="M24 0v-261h32V0H24" id="A"/><path fill="#333" d="M84 4C-5 8 30-112 23-190h32v120c0 31 7 50 39 49 72-2 45-101 50-169h31l1 190h-30c-1-10 1-25-2-33-11 22-28 36-60 37" id="B"/><path fill="#333" d="M135-143c-3-34-86-38-87 0 15 53 115 12 119 90S17 21 10-45l28-5c4 36 97 45 98 0-10-56-113-15-118-90-4-57 82-63 122-42 12 7 21 19 24 35" id="C"/><path fill="#333" d="M59-47c-2 24 18 29 38 22v24C64 9 27 4 27-40v-127H5v-23h24l9-43h21v43h35v23H59v120" id="D"/><path fill="#333" d="M100-194c63 0 86 42 84 106H49c0 40 14 67 53 68 26 1 43-12 49-29l28 8c-11 28-37 45-77 45C44 4 14-33 15-96c1-61 26-98 85-98zm52 81c6-60-76-77-97-28-3 7-6 17-6 28h103" id="E"/><path fill="#333" d="M114-163C36-179 61-72 57 0H25l-1-190h30c1 12-1 29 2 39 6-27 23-49 58-41v29" id="F"/><g id="c"><use transform="matrix(0.06172839506172839,0,0,0.06172839506172839,0,0)" xlink:href="#z"/><use transform="matrix(0.06172839506172839,0,0,0.06172839506172839,15.987654320987653,0)" xlink:href="#A"/><use transform="matrix(0.06172839506172839,0,0,0.06172839506172839,20.864197530864196,0)" xlink:href="#B"/><use transform="matrix(0.06172839506172839,0,0,0.06172839506172839,33.20987654320987,0)" xlink:href="#C"/><use transform="matrix(0.06172839506172839,0,0,0.06172839506172839,44.32098765432099,0)" xlink:href="#D"/><use transform="matrix(0.06172839506172839,0,0,0.06172839506172839,50.49382716049383,0)" xlink:href="#E"/><use transform="matrix(0.06172839506172839,0,0,0.06172839506172839,62.839506172839506,0)" xlink:href="#F"/></g><path fill="#333" d="M140-251c81 0 123 46 123 126C263-46 219 4 140 4 59 4 17-45 17-125s42-126 123-126zm0 227c63 0 89-41 89-101s-29-99-89-99c-61 0-89 39-89 99S79-25 140-24" id="G"/><path fill="#333" d="M115-194c55 1 70 41 70 98S169 2 115 4C84 4 66-9 55-30l1 105H24l-1-265h31l2 30c10-21 28-34 59-34zm-8 174c40 0 45-34 45-75s-6-73-45-74c-42 0-51 32-51 76 0 43 10 73 51 73" id="H"/><path fill="#333" d="M141-36C126-15 110 5 73 4 37 3 15-17 15-53c-1-64 63-63 125-63 3-35-9-54-41-54-24 1-41 7-42 31l-33-3c5-37 33-52 76-52 45 0 72 20 72 64v82c-1 20 7 32 28 27v20c-31 9-61-2-59-35zM48-53c0 20 12 33 32 33 41-3 63-29 60-74-43 2-92-5-92 41" id="I"/><path fill="#333" d="M100-194c62-1 85 37 85 99 1 63-27 99-86 99S16-35 15-95c0-66 28-99 85-99zM99-20c44 1 53-31 53-75 0-43-8-75-51-75s-53 32-53 75 10 74 51 75" id="J"/><g id="d"><use transform="matrix(0.06172839506172839,0,0,0.06172839506172839,0,0)" xlink:href="#G"/><use transform="matrix(0.06172839506172839,0,0,0.06172839506172839,17.28395061728395,0)" xlink:href="#H"/><use transform="matrix(0.06172839506172839,0,0,0.06172839506172839,29.629629629629626,0)" xlink:href="#E"/><use transform="matrix(0.06172839506172839,0,0,0.06172839506172839,41.9753086419753,0)" xlink:href="#F"/><use transform="matrix(0.06172839506172839,0,0,0.06172839506172839,49.32098765432098,0)" xlink:href="#I"/><use transform="matrix(0.06172839506172839,0,0,0.06172839506172839,61.66666666666666,0)" xlink:href="#D"/><use transform="matrix(0.06172839506172839,0,0,0.06172839506172839,67.83950617283949,0)" xlink:href="#J"/><use transform="matrix(0.06172839506172839,0,0,0.06172839506172839,80.18518518518518,0)" xlink:href="#F"/></g><path fill="#333" d="M24-231v-30h32v30H24zM24 0v-190h32V0H24" id="K"/><path fill="#333" d="M117-194c89-4 53 116 60 194h-32v-121c0-31-8-49-39-48C34-167 62-67 57 0H25l-1-190h30c1 10-1 24 2 32 11-22 29-35 61-36" id="L"/><g id="e"><use transform="matrix(0.06172839506172839,0,0,0.06172839506172839,0,0)" xlink:href="#z"/><use transform="matrix(0.06172839506172839,0,0,0.06172839506172839,15.987654320987653,0)" xlink:href="#A"/><use transform="matrix(0.06172839506172839,0,0,0.06172839506172839,20.864197530864196,0)" xlink:href="#K"/><use transform="matrix(0.06172839506172839,0,0,0.06172839506172839,25.74074074074074,0)" xlink:href="#E"/><use transform="matrix(0.06172839506172839,0,0,0.06172839506172839,38.08641975308642,0)" xlink:href="#L"/><use transform="matrix(0.06172839506172839,0,0,0.06172839506172839,50.432098765432094,0)" xlink:href="#D"/><use transform="matrix(0.06172839506172839,0,0,0.06172839506172839,56.60493827160494,0)" xlink:href="#C"/></g><path fill="#333" d="M205 0l-28-72H64L36 0H1l101-248h38L239 0h-34zm-38-99l-47-123c-12 45-31 82-46 123h93" id="M"/><g id="f"><use transform="matrix(0.06172839506172839,0,0,0.06172839506172839,0,0)" xlink:href="#z"/><use transform="matrix(0.06172839506172839,0,0,0.06172839506172839,15.987654320987653,0)" xlink:href="#M"/></g><path fill="#333" d="M96-169c-40 0-48 33-48 73s9 75 48 75c24 0 41-14 43-38l32 2c-6 37-31 61-74 61-59 0-76-41-82-99-10-93 101-131 147-64 4 7 5 14 7 22l-32 3c-4-21-16-35-41-35" id="N"/><path fill="#333" d="M101-234c-31-9-42 10-38 44h38v23H63V0H32v-167H5v-23h27c-7-52 17-82 69-68v24" id="O"/><g id="g"><use transform="matrix(0.06172839506172839,0,0,0.06172839506172839,0,0)" xlink:href="#N"/><use transform="matrix(0.06172839506172839,0,0,0.06172839506172839,11.11111111111111,0)" xlink:href="#E"/><use transform="matrix(0.06172839506172839,0,0,0.06172839506172839,23.45679012345679,0)" xlink:href="#F"/><use transform="matrix(0.06172839506172839,0,0,0.06172839506172839,30.80246913580247,0)" xlink:href="#D"/><use transform="matrix(0.06172839506172839,0,0,0.06172839506172839,36.97530864197531,0)" xlink:href="#K"/><use transform="matrix(0.06172839506172839,0,0,0.06172839506172839,41.851851851851855,0)" xlink:href="#O"/><use transform="matrix(0.06172839506172839,0,0,0.06172839506172839,48.0246913580247,0)" xlink:href="#K"/><use transform="matrix(0.06172839506172839,0,0,0.06172839506172839,52.90123456790124,0)" xlink:href="#N"/><use transform="matrix(0.06172839506172839,0,0,0.06172839506172839,64.01234567901236,0)" xlink:href="#I"/><use transform="matrix(0.06172839506172839,0,0,0.06172839506172839,76.35802469135804,0)" xlink:href="#D"/><use transform="matrix(0.06172839506172839,0,0,0.06172839506172839,82.53086419753087,0)" xlink:href="#E"/></g><path fill="#333" d="M185-48c-13 30-37 53-82 52C43 2 14-33 14-96s30-98 90-98c62 0 83 45 84 108H66c0 31 8 55 39 56 18 0 30-7 34-22zm-45-69c5-46-57-63-70-21-2 6-4 13-4 21h74" id="P"/><g id="h"><use transform="matrix(0.04938271604938272,0,0,0.04938271604938272,0,0)" xlink:href="#w"/><use transform="matrix(0.04938271604938272,0,0,0.04938271604938272,4.938271604938272,0)" xlink:href="#v"/><use transform="matrix(0.04938271604938272,0,0,0.04938271604938272,14.814814814814817,0)" xlink:href="#v"/><use transform="matrix(0.04938271604938272,0,0,0.04938271604938272,24.69135802469136,0)" xlink:href="#u"/><use transform="matrix(0.04938271604938272,0,0,0.04938271604938272,35.50617283950618,0)" xlink:href="#P"/><use transform="matrix(0.04938271604938272,0,0,0.04938271604938272,45.38271604938272,0)" xlink:href="#v"/></g><path fill="#333" d="M194 0L95-120 63-95V0H30v-248h33v124l119-124h40L117-140 236 0h-42" id="Q"/><path fill="#333" d="M143 0L79-87 56-68V0H24v-261h32v163l83-92h37l-77 82L181 0h-38" id="R"/><g id="i"><use transform="matrix(0.06172839506172839,0,0,0.06172839506172839,0,0)" xlink:href="#Q"/><use transform="matrix(0.06172839506172839,0,0,0.06172839506172839,14.814814814814813,0)" xlink:href="#I"/><use transform="matrix(0.06172839506172839,0,0,0.06172839506172839,27.160493827160494,0)" xlink:href="#O"/><use transform="matrix(0.06172839506172839,0,0,0.06172839506172839,33.333333333333336,0)" xlink:href="#R"/><use transform="matrix(0.06172839506172839,0,0,0.06172839506172839,44.44444444444444,0)" xlink:href="#I"/></g><path fill="#333" d="M160-131c35 5 61 23 61 61C221 17 115-2 30 0v-248c76 3 177-17 177 60 0 33-19 50-47 57zm-97-11c50-1 110 9 110-42 0-47-63-36-110-37v79zm0 115c55-2 124 14 124-45 0-56-70-42-124-44v89" id="S"/><g id="j"><use transform="matrix(0.06172839506172839,0,0,0.06172839506172839,0,0)" xlink:href="#S"/><use transform="matrix(0.06172839506172839,0,0,0.06172839506172839,14.814814814814813,0)" xlink:href="#F"/><use transform="matrix(0.06172839506172839,0,0,0.06172839506172839,22.160493827160494,0)" xlink:href="#J"/><use transform="matrix(0.06172839506172839,0,0,0.06172839506172839,34.50617283950617,0)" xlink:href="#R"/><use transform="matrix(0.06172839506172839,0,0,0.06172839506172839,45.61728395061728,0)" xlink:href="#E"/><use transform="matrix(0.06172839506172839,0,0,0.06172839506172839,57.962962962962955,0)" xlink:href="#F"/></g><path fill="#333" d="M232-93c-1 65-40 97-104 97C67 4 28-28 28-90v-158h33c8 89-33 224 67 224 102 0 64-133 71-224h33v155" id="T"/><g id="k"><use transform="matrix(0.06172839506172839,0,0,0.06172839506172839,0,0)" xlink:href="#T"/><use transform="matrix(0.06172839506172839,0,0,0.06172839506172839,15.987654320987653,0)" xlink:href="#C"/><use transform="matrix(0.06172839506172839,0,0,0.06172839506172839,27.098765432098766,0)" xlink:href="#E"/><use transform="matrix(0.06172839506172839,0,0,0.06172839506172839,39.44444444444444,0)" xlink:href="#F"/></g><g id="l"><use transform="matrix(0.06172839506172839,0,0,0.06172839506172839,0,0)" xlink:href="#B"/><use transform="matrix(0.06172839506172839,0,0,0.06172839506172839,12.345679012345679,0)" xlink:href="#C"/><use transform="matrix(0.06172839506172839,0,0,0.06172839506172839,23.45679012345679,0)" xlink:href="#E"/><use transform="matrix(0.06172839506172839,0,0,0.06172839506172839,35.80246913580247,0)" xlink:href="#F"/></g><path fill="#333" d="M30 0v-248h187v28H63v79h144v27H63v87h162V0H30" id="U"/><g id="m"><use transform="matrix(0.06172839506172839,0,0,0.06172839506172839,0,0)" xlink:href="#U"/><use transform="matrix(0.06172839506172839,0,0,0.06172839506172839,14.814814814814813,0)" xlink:href="#U"/></g><g id="n"><use transform="matrix(0.06172839506172839,0,0,0.06172839506172839,0,0)" xlink:href="#z"/><use transform="matrix(0.06172839506172839,0,0,0.06172839506172839,15.987654320987653,0)" xlink:href="#A"/><use transform="matrix(0.06172839506172839,0,0,0.06172839506172839,20.864197530864196,0)" xlink:href="#K"/><use transform="matrix(0.06172839506172839,0,0,0.06172839506172839,25.74074074074074,0)" xlink:href="#E"/><use transform="matrix(0.06172839506172839,0,0,0.06172839506172839,38.08641975308642,0)" xlink:href="#L"/><use transform="matrix(0.06172839506172839,0,0,0.06172839506172839,50.432098765432094,0)" xlink:href="#D"/></g><path fill="#333" d="M135-194c53 0 70 44 70 98 0 56-19 98-73 100-31 1-45-17-59-34 3 33 2 69 2 105H25l-1-265h48c2 10 0 23 3 31 11-24 29-35 60-35zM114-30c33 0 39-31 40-66 0-38-9-64-40-64-56 0-55 130 0 130" id="V"/><g id="o"><use transform="matrix(0.04938271604938272,0,0,0.04938271604938272,0,0)" xlink:href="#V"/><use transform="matrix(0.04938271604938272,0,0,0.04938271604938272,10.814814814814815,0)" xlink:href="#t"/><use transform="matrix(0.04938271604938272,0,0,0.04938271604938272,17.728395061728396,0)" xlink:href="#P"/><use transform="matrix(0.04938271604938272,0,0,0.04938271604938272,27.60493827160494,0)" xlink:href="#v"/><use transform="matrix(0.04938271604938272,0,0,0.04938271604938272,37.48148148148148,0)" xlink:href="#P"/><use transform="matrix(0.04938271604938272,0,0,0.04938271604938272,47.358024691358025,0)" xlink:href="#y"/><use transform="matrix(0.04938271604938272,0,0,0.04938271604938272,58.17283950617284,0)" xlink:href="#s"/><use transform="matrix(0.04938271604938272,0,0,0.04938271604938272,64.04938271604938,0)" xlink:href="#v"/></g><g id="p"><use transform="matrix(0.06172839506172839,0,0,0.06172839506172839,0,0)" xlink:href="#z"/><use transform="matrix(0.06172839506172839,0,0,0.06172839506172839,15.987654320987653,0)" xlink:href="#A"/><use transform="matrix(0.06172839506172839,0,0,0.06172839506172839,20.864197530864196,0)" xlink:href="#B"/><use transform="matrix(0.06172839506172839,0,0,0.06172839506172839,33.20987654320987,0)" xlink:href="#C"/><use transform="matrix(0.06172839506172839,0,0,0.06172839506172839,44.32098765432099,0)" xlink:href="#D"/><use transform="matrix(0.06172839506172839,0,0,0.06172839506172839,50.49382716049383,0)" xlink:href="#E"/><use transform="matrix(0.06172839506172839,0,0,0.06172839506172839,62.839506172839506,0)" xlink:href="#F"/></g><g id="q"><use transform="matrix(0.06172839506172839,0,0,0.06172839506172839,0,0)" xlink:href="#S"/><use transform="matrix(0.06172839506172839,0,0,0.06172839506172839,14.814814814814813,0)" xlink:href="#F"/><use transform="matrix(0.06172839506172839,0,0,0.06172839506172839,22.160493827160494,0)" xlink:href="#J"/><use transform="matrix(0.06172839506172839,0,0,0.06172839506172839,34.50617283950617,0)" xlink:href="#R"/><use transform="matrix(0.06172839506172839,0,0,0.06172839506172839,45.61728395061728,0)" xlink:href="#E"/><use transform="matrix(0.06172839506172839,0,0,0.06172839506172839,57.962962962962955,0)" xlink:href="#F"/></g><g id="r"><use transform="matrix(0.06172839506172839,0,0,0.06172839506172839,0,0)" xlink:href="#z"/><use transform="matrix(0.06172839506172839,0,0,0.06172839506172839,15.987654320987653,0)" xlink:href="#E"/><use transform="matrix(0.06172839506172839,0,0,0.06172839506172839,28.333333333333332,0)" xlink:href="#F"/><use transform="matrix(0.06172839506172839,0,0,0.06172839506172839,35.67901234567901,0)" xlink:href="#D"/><use transform="matrix(0.06172839506172839,0,0,0.06172839506172839,41.851851851851855,0)" xlink:href="#K"/><use transform="matrix(0.06172839506172839,0,0,0.06172839506172839,46.7283950617284,0)" xlink:href="#O"/><use transform="matrix(0.06172839506172839,0,0,0.06172839506172839,52.90123456790124,0)" xlink:href="#K"/><use transform="matrix(0.06172839506172839,0,0,0.06172839506172839,57.777777777777786,0)" xlink:href="#N"/><use transform="matrix(0.06172839506172839,0,0,0.06172839506172839,68.8888888888889,0)" xlink:href="#I"/><use transform="matrix(0.06172839506172839,0,0,0.06172839506172839,81.23456790123458,0)" xlink:href="#D"/><use transform="matrix(0.06172839506172839,0,0,0.06172839506172839,87.40740740740742,0)" xlink:href="#E"/></g></defs></g></svg>